<?xml version="1.0" encoding="utf-8"?>
<!-- Generator: Adobe Illustrator 28.0.0, SVG Export Plug-In . SVG Version: 6.00 Build 0)  -->
<svg version="1.1" id="Layer_1" xmlns="http://www.w3.org/2000/svg" xmlns:xlink="http://www.w3.org/1999/xlink" x="0px" y="0px"
	 viewBox="0 0 36 36" style="enable-background:new 0 0 36 36;" xml:space="preserve">
<style type="text/css">
	.st0{fill:#EF9645;}
	.st1{fill:#FFDC5D;}
</style>
<path class="st0" d="M15.5,3C16.9,3,18,4.1,18,5.5v0l2.5-5C21.9,0.5,23,1.6,23,3v1.3l2.5-1.5c1.4,0,2.5,1.1,2.5,2.5v3.5l1,9.2H15.5
	L15.5,3z"/>
<path class="st1" d="M4.6,16.2C6,15.6,8,16.4,9.4,18.4c0.9,1.3,1.2,3.2,2.4,3.3c0.5,0.1,1.2-0.3,1.2-1.4V4.5c0,0,0-2,2-2s2,2,2,2
	v11.6c0,0,1-0.1,1-0.1V2c0,0,0-2,2-2s2,2,2,2v14.1c0,0,1,0,1,0.1V4.2c0,0,0-2,2-2s2,2,2,2v12.6c0,0.1,1,0.3,1,0.4V8.8c0,0,0-2,2-2
	s2,2,2,2V24c0,6.6-5.4,12-12,12c-4.8,0-8.1-2.6-9.9-5.3c-1.6-2.3-2-4.7-2.1-5.4c0,0-0.1-1.5-1.2-2.9c-1.5-2-2.5-3.2-3.1-3.9
	C3.4,18.2,3.1,16.9,4.6,16.2z"/>
</svg>
