<?xml version="1.0" encoding="utf-8"?>
<!-- Generator: Adobe Illustrator 28.0.0, SVG Export Plug-In . SVG Version: 6.00 Build 0)  -->
<svg version="1.1" id="Layer_1" xmlns="http://www.w3.org/2000/svg" xmlns:xlink="http://www.w3.org/1999/xlink" x="0px" y="0px"
	 viewBox="0 0 36 36" style="enable-background:new 0 0 36 36;" xml:space="preserve">
<style type="text/css">
	.st0{fill:#FFCC4D;}
	.st1{fill:#664500;}
</style>
<path class="st0" d="M36,18c0,9.9-8.1,18-18,18C8.1,36,0,27.9,0,18C0,8.1,8.1,0,18,0C27.9,0,36,8.1,36,18"/>
<ellipse class="st1" cx="18" cy="27" rx="5" ry="6"/>
<path class="st1" d="M6,11c-0.2,0-0.4-0.1-0.6-0.2c-0.4-0.3-0.5-1-0.2-1.4C8.5,5.1,12.8,5,13,5c0.6,0,1,0.4,1,1c0,0.6-0.4,1-1,1
	c-0.2,0-3.6,0.1-6.2,3.6C6.6,10.9,6.3,11,6,11z M30,11c-0.3,0-0.6-0.1-0.8-0.4C26.6,7.1,23.1,7,23,7c-0.5,0-1-0.5-1-1
	c0-0.6,0.4-1,1-1c0.2,0,4.5,0.1,7.8,4.4c0.3,0.4,0.2,1.1-0.2,1.4C30.4,10.9,30.2,11,30,11z M13.9,15.5l1.8-1.8c0.4-0.4,0.4-1,0-1.4
	s-1-0.4-1.4,0l-1.8,1.8l-1.8-1.8c-0.4-0.4-1-0.4-1.4,0s-0.4,1,0,1.4l1.8,1.8l-1.8,1.8c-0.4,0.4-0.4,1,0,1.4C9.5,18.9,9.7,19,10,19
	s0.5-0.1,0.7-0.3l1.8-1.8l1.8,1.8c0.2,0.2,0.5,0.3,0.7,0.3s0.5-0.1,0.7-0.3c0.4-0.4,0.4-1,0-1.4C15.7,17.3,13.9,15.5,13.9,15.5z
	 M24.9,15.5l1.8-1.8c0.4-0.4,0.4-1,0-1.4s-1-0.4-1.4,0l-1.8,1.8l-1.8-1.8c-0.4-0.4-1-0.4-1.4,0s-0.4,1,0,1.4l1.8,1.8l-1.8,1.8
	c-0.4,0.4-0.4,1,0,1.4c0.2,0.2,0.5,0.3,0.7,0.3s0.5-0.1,0.7-0.3l1.8-1.8l1.8,1.8c0.2,0.2,0.5,0.3,0.7,0.3s0.5-0.1,0.7-0.3
	c0.4-0.4,0.4-1,0-1.4C26.7,17.3,24.9,15.5,24.9,15.5z"/>
</svg>
