<?xml version="1.0" encoding="utf-8"?>
<!-- Generator: Adobe Illustrator 28.0.0, SVG Export Plug-In . SVG Version: 6.00 Build 0)  -->
<svg version="1.1" id="Layer_1" xmlns="http://www.w3.org/2000/svg" xmlns:xlink="http://www.w3.org/1999/xlink" x="0px" y="0px"
	 viewBox="0 0 24 24" style="enable-background:new 0 0 24 24;" xml:space="preserve">
<style type="text/css">
	.st0{fill:#888888;}
</style>
<path class="st0" d="M20.8,7.9c0,1.3-0.5,2.4-1.4,3.3l-3.1,3.1c-0.9,0.9-2,1.4-3.3,1.4c-1.1,0-2.1-0.4-3-1.1l2-2
	c0.3,0.2,0.6,0.3,1,0.3c0.5,0,1-0.2,1.3-0.5l3.1-3.1C17.8,8.8,18,8.4,18,7.9c0-0.5-0.2-1-0.5-1.3C17.1,6.2,16.6,6,16.1,6
	c-0.3,0-0.6,0.1-0.9,0.2c-0.3,0.1-0.5,0.3-0.6,0.6h-4.2l2.3-2.3c0.9-0.9,2-1.4,3.3-1.4c1.3,0,2.4,0.5,3.3,1.4
	C20.4,5.5,20.8,6.6,20.8,7.9z M14,9.4l-2,2c-0.3-0.2-0.6-0.3-1-0.3c-0.5,0-1,0.2-1.3,0.5l-3.1,3.1C6.2,15.2,6,15.6,6,16.1
	c0,0.5,0.2,1,0.5,1.3C6.9,17.8,7.4,18,7.9,18c0.3,0,0.6-0.1,0.9-0.2c0.3-0.1,0.5-0.3,0.6-0.6h4.2l-2.3,2.3c-0.9,0.9-2,1.4-3.3,1.4
	c-1.3,0-2.4-0.5-3.3-1.4c-0.9-0.9-1.4-2-1.4-3.3c0-1.3,0.5-2.4,1.4-3.3l3.1-3.1c0.9-0.9,2-1.4,3.3-1.4C12.1,8.3,13.1,8.7,14,9.4z"/>
</svg>
