<?xml version="1.0" encoding="utf-8"?>
<!-- Generator: Adobe Illustrator 24.2.0, SVG Export Plug-In . SVG Version: 6.00 Build 0)  -->
<svg version="1.1" id="图层_1" xmlns="http://www.w3.org/2000/svg" xmlns:xlink="http://www.w3.org/1999/xlink" x="0px" y="0px"
	 viewBox="0 0 24 24" style="enable-background:new 0 0 24 24;" xml:space="preserve">
<style type="text/css">
	.st0{fill:#888888;}
</style>
<g>
	<path class="st0" d="M3.5,5.9h14c0.4,0,0.6,0.2,0.6,0.6v14c0,0.4-0.2,0.6-0.6,0.6h-14c-0.4,0-0.6-0.2-0.6-0.6v-14
		C2.9,6.1,3.1,5.9,3.5,5.9z"/>
	<path class="st0" d="M20.8,15.8c0.2,0,0.3,0.1,0.3,0.3v1.7c0,0.1-0.1,0.3-0.2,0.3l-0.1,0h-2.4c-0.2,0-0.3-0.1-0.3-0.3v-0.9
		c0-0.2,0.1-0.3,0.3-0.3h1.2v-0.5c0-0.2,0.1-0.3,0.3-0.3H20.8z M20.8,12.8c0.2,0,0.3,0.1,0.3,0.3v1.7c0,0.2-0.1,0.3-0.3,0.3h-0.9
		c-0.2,0-0.3-0.1-0.3-0.3v-1.7c0-0.2,0.1-0.3,0.3-0.3H20.8z M20.8,9.7c0.2,0,0.3,0.1,0.3,0.3v1.7c0,0.2-0.1,0.3-0.3,0.3h-0.9
		c-0.2,0-0.3-0.1-0.3-0.3V10c0-0.2,0.1-0.3,0.3-0.3H20.8z M20.8,6.7c0.2,0,0.3,0.1,0.3,0.3v1.7C21.1,8.8,21,9,20.8,9h-0.9
		c-0.2,0-0.3-0.1-0.3-0.3V7c0-0.2,0.1-0.3,0.3-0.3H20.8z M8.7,2.9C8.8,2.9,9,3,9,3.2v0.9c0,0.2-0.1,0.3-0.3,0.3H7.4v1.2
		c0,0.2-0.1,0.3-0.3,0.3H6.2c-0.2,0-0.3-0.1-0.3-0.3V3.2c0-0.2,0.1-0.3,0.3-0.3H8.7z M20.8,2.9c0.2,0,0.3,0.1,0.3,0.3v2.4
		c0,0.2-0.1,0.3-0.3,0.3h-0.9c-0.2,0-0.3-0.1-0.3-0.3V4.4h-0.5c-0.2,0-0.3-0.1-0.3-0.3V3.2c0-0.2,0.1-0.3,0.3-0.3
		C19.1,2.9,20.8,2.9,20.8,2.9z M11.7,2.9C11.9,2.9,12,3,12,3.2v0.9c0,0.2-0.1,0.3-0.3,0.3H10c-0.2,0-0.3-0.1-0.3-0.3V3.2
		C9.7,3,9.9,2.9,10,2.9C10,2.9,11.7,2.9,11.7,2.9z M14.7,2.9C14.9,2.9,15,3,15,3.2v0.9c0,0.2-0.1,0.3-0.3,0.3h-1.7
		c-0.2,0-0.3-0.1-0.3-0.3V3.2c0-0.2,0.1-0.3,0.3-0.3C13.1,2.9,14.7,2.9,14.7,2.9z M17.8,2.9c0.2,0,0.3,0.1,0.3,0.3v0.9
		c0,0.2-0.1,0.3-0.3,0.3h-1.7c-0.2,0-0.3-0.1-0.3-0.3V3.2c0-0.2,0.1-0.3,0.3-0.3C16.1,2.9,17.8,2.9,17.8,2.9z"/>
</g>
</svg>
