<?xml version="1.0" encoding="utf-8"?>
<!-- Generator: Adobe Illustrator 28.0.0, SVG Export Plug-In . SVG Version: 6.00 Build 0)  -->
<svg version="1.1" id="Layer_1" xmlns="http://www.w3.org/2000/svg" xmlns:xlink="http://www.w3.org/1999/xlink" x="0px" y="0px"
	 viewBox="0 0 24 24" style="enable-background:new 0 0 24 24;" xml:space="preserve">
<style type="text/css">
	.st0{fill:#888888;}
</style>
<g>
	<path class="st0" d="M17,9.3h-2.3V3.9c0-0.2-0.2-0.4-0.4-0.4H9.7c-0.2,0-0.4,0.2-0.4,0.4v5.4H7c-0.2,0-0.3,0.1-0.1,0.3l4.9,5.6
		c0.1,0.2,0.4,0.2,0.5,0l4.9-5.6C17.3,9.4,17.3,9.3,17,9.3L17,9.3z"/>
	<path class="st0" d="M20.6,16.5H3.4c-0.2,0-0.3,0.1-0.3,0.3v3.5c0,0.2,0.1,0.3,0.3,0.3h17.2c0.2,0,0.3-0.1,0.3-0.3v-3.5
		C20.9,16.6,20.8,16.5,20.6,16.5L20.6,16.5z M5.9,19.3c-0.4,0-0.7-0.3-0.7-0.7c0-0.4,0.3-0.7,0.7-0.7c0.4,0,0.7,0.3,0.7,0.7
		C6.6,19,6.3,19.3,5.9,19.3z M8.1,19.1c-0.3,0-0.5-0.3-0.5-0.5s0.3-0.5,0.5-0.5c0.3,0,0.5,0.3,0.5,0.5C8.6,18.9,8.4,19.1,8.1,19.1z
		 M9.9,19c-0.2,0-0.4-0.2-0.4-0.4c0-0.2,0.2-0.4,0.4-0.4c0.2,0,0.4,0.2,0.4,0.4C10.3,18.9,10.1,19,9.9,19z"/>
</g>
</svg>
