<?xml version="1.0" encoding="utf-8"?>
<!-- Generator: Adobe Illustrator 28.0.0, SVG Export Plug-In . SVG Version: 6.00 Build 0)  -->
<svg version="1.1" id="Layer_1" xmlns="http://www.w3.org/2000/svg" xmlns:xlink="http://www.w3.org/1999/xlink" x="0px" y="0px"
	 viewBox="0 0 24 24" style="enable-background:new 0 0 24 24;" xml:space="preserve">
<style type="text/css">
	.st0{fill:#888888;}
</style>
<path class="st0" d="M11,5.9L9.3,3.2C9.2,3,9,2.9,8.8,2.9L4.1,3.2C4,3.2,3.8,3.3,3.7,3.4C3.7,3.5,3.6,3.6,3.6,3.8
	c0,0.1,0.1,0.2,0.1,0.3l2.5,4.1C7.9,6.3,10.9,5.9,11,5.9 M19.9,3.4l-4.6-0.5c-0.2,0-0.5,0.1-0.6,0.3L13,5.9c0,0,3,0.5,4.7,2.4l2.6-4
	c0.1-0.1,0.1-0.2,0.1-0.3C20.4,3.7,20.2,3.4,19.9,3.4 M15.6,13.4l-1.4,1.4l0.3,1.9c0.1,0.7-0.3,0.9-0.9,0.6l-1.8-0.9l-1.7,0.9
	c-0.6,0.3-1,0-0.9-0.6l0.3-1.9l-1.4-1.4c-0.5-0.5-0.3-0.9,0.3-1l1.9-0.3l0.9-1.8c0.3-0.6,0.8-0.6,1.1,0l0.9,1.8l1.9,0.3
	C15.9,12.5,16.1,12.9,15.6,13.4 M11.8,6.8C7.8,6.8,4.6,10,4.6,14s3.2,7.2,7.2,7.2s7.2-3.2,7.2-7.2C18.9,10,15.7,6.8,11.8,6.8"/>
</svg>
