<?xml version="1.0" encoding="utf-8"?>
<!-- Generator: Adobe Illustrator 24.2.0, SVG Export Plug-In . SVG Version: 6.00 Build 0)  -->
<svg version="1.1" id="图层_1" xmlns="http://www.w3.org/2000/svg" xmlns:xlink="http://www.w3.org/1999/xlink" x="0px" y="0px"
	 viewBox="0 0 24 24" style="enable-background:new 0 0 24 24;" xml:space="preserve">
<style type="text/css">
	.st0{fill:#888888;}
</style>
<path class="st0" d="M16,2.7h-4.5c-0.5,0-1,0.4-1,1v14.7H9.3V3.7c0-0.5-0.4-1-1-1H3.8c-0.5,0-1,0.4-1,1v16.7c0,0.5,0.4,1,1,1h4.5
	c0.5,0,1-0.4,1-1v-0.6h1.3v0.6c0,0.5,0.4,1,1,1H16c0.5,0,1-0.4,1-1V3.7C17,3.1,16.5,2.7,16,2.7z M5.8,19.7H4.5v-1.3h1.3V19.7z
	 M7.7,5.6H4.5V4.3h3.2V5.6z M13.4,19.7h-1.3v-1.3h1.3V19.7z M15.4,5.6h-3.2V4.3h3.2V5.6z M20.2,21.3c-0.5,0-0.9-0.4-0.9-0.9V3.6
	c0-0.5,0.4-0.9,0.9-0.9s0.9,0.4,0.9,0.9v16.7C21.1,20.9,20.7,21.3,20.2,21.3z"/>
</svg>
