<?xml version="1.0" encoding="utf-8"?>
<!-- Generator: Adobe Illustrator 28.0.0, SVG Export Plug-In . SVG Version: 6.00 Build 0)  -->
<svg version="1.1" id="Layer_1" xmlns="http://www.w3.org/2000/svg" xmlns:xlink="http://www.w3.org/1999/xlink" x="0px" y="0px"
	 viewBox="0 0 24 24" style="enable-background:new 0 0 24 24;" xml:space="preserve">
<style type="text/css">
	.st0{fill:#FFFFFF;fill-opacity:1.000000e-02;}
	.st1{fill:#888888;}
</style>
<g>
	<path class="st0" d="M0,0h24v24H0V0z"/>
	<path class="st1" d="M20.2,19.5c0.4,0,0.8,0.3,0.8,0.8S20.7,21,20.2,21H3.8C3.3,21,3,20.7,3,20.2s0.3-0.8,0.8-0.8H20.2z M13.5,6.8
		c0.4,0,0.8,0.3,0.8,0.8v9.8c0,0.4-0.3,0.8-0.8,0.8h-3c-0.4,0-0.8-0.3-0.8-0.8V7.5c0-0.4,0.3-0.8,0.8-0.8H13.5z M7.5,10.5
		c0.4,0,0.8,0.3,0.8,0.8v6c0,0.4-0.3,0.8-0.8,0.8h-3c-0.4,0-0.8-0.3-0.8-0.8v-6c0-0.4,0.3-0.8,0.8-0.8H7.5z M19.5,3
		c0.4,0,0.8,0.3,0.8,0.8v13.5c0,0.4-0.3,0.8-0.8,0.8h-3c-0.4,0-0.8-0.3-0.8-0.8V3.8c0-0.4,0.3-0.8,0.8-0.8H19.5z"/>
</g>
</svg>
