<?xml version="1.0" encoding="utf-8"?>
<!-- Generator: Adobe Illustrator 24.2.0, SVG Export Plug-In . SVG Version: 6.00 Build 0)  -->
<svg version="1.1" id="图层_1" xmlns="http://www.w3.org/2000/svg" xmlns:xlink="http://www.w3.org/1999/xlink" x="0px" y="0px"
	 viewBox="0 0 24 24" style="enable-background:new 0 0 24 24;" xml:space="preserve">
<style type="text/css">
	.st0{fill:#888888;}
</style>
<path class="st0" d="M7.4,19.3l1.1-1.1l-2.7-2.7l-1.1,1.1v1.2h1.5v1.5L7.4,19.3L7.4,19.3z M13.5,8.5c0-0.2-0.1-0.3-0.3-0.3
	c-0.1,0-0.1,0-0.2,0.1l-6.3,6.3c-0.1,0.1-0.1,0.1-0.1,0.2c0,0.2,0.1,0.3,0.3,0.3c0.1,0,0.1,0,0.2-0.1l6.3-6.3
	C13.5,8.7,13.5,8.6,13.5,8.5z M12.9,6.3l4.8,4.8L8,20.8H3.2V16L12.9,6.3z M20.8,7.4c0,0.4-0.1,0.8-0.4,1l-1.9,1.9l-4.8-4.8l1.9-1.9
	c0.3-0.3,0.6-0.4,1-0.4c0.4,0,0.8,0.1,1.1,0.4l2.7,2.7C20.6,6.7,20.8,7,20.8,7.4L20.8,7.4z"/>
</svg>
