<?xml version="1.0" encoding="utf-8"?>
<!-- Generator: Adobe Illustrator 28.0.0, SVG Export Plug-In . SVG Version: 6.00 Build 0)  -->
<svg version="1.1" id="Layer_1" xmlns="http://www.w3.org/2000/svg" xmlns:xlink="http://www.w3.org/1999/xlink" x="0px" y="0px"
	 viewBox="0 0 24 24" style="enable-background:new 0 0 24 24;" xml:space="preserve">
<style type="text/css">
	.st0{fill:#888888;}
</style>
<g>
	<path class="st0" d="M7.5,6.3C9.8,5,13.1,4.5,17.3,5c2.2,0.3,3.4,0.6,3.8,1c0.1,0.1,0,0.1,0,0.2c-1,0.5-1.8,1.2-2.5,2.1
		S17.3,10,17,10.9c-0.3,0.8-0.7,1.7-1.3,2.5s-1.1,1.6-1.8,2c-1.8,1.2-4.2,1.3-7.4,0.1c-0.8,1-1.6,2.1-2.2,3.4
		c-0.2,0.3-0.5,0.4-0.9,0.1S2.9,18.6,3,18.3c0.6-1.3,1.4-2.5,2.5-3.7s2.2-2.2,3.4-3c1.2-0.8,2.3-1.5,3.4-2s2-1,2.7-1.3l1-0.4
		c-0.2,0-0.4,0-0.8,0s-1,0.1-2,0.3s-1.9,0.4-2.9,0.7s-2,0.9-3.1,1.6S5,12.2,4.1,13.2C3.9,10.1,5,7.8,7.5,6.3L7.5,6.3z"/>
</g>
</svg>
