<?xml version="1.0" encoding="utf-8"?>
<!-- Generator: Adobe Illustrator 28.0.0, SVG Export Plug-In . SVG Version: 6.00 Build 0)  -->
<svg version="1.1" id="Layer_1" xmlns="http://www.w3.org/2000/svg" xmlns:xlink="http://www.w3.org/1999/xlink" x="0px" y="0px"
	 viewBox="0 0 24 24" style="enable-background:new 0 0 24 24;" xml:space="preserve">
<style type="text/css">
	.st0{fill:#70C0E8;}
</style>
<path class="st0" d="M21.6,12c0-5.3-4.3-9.6-9.6-9.6S2.4,6.7,2.4,12s4.3,9.6,9.6,9.6S21.6,17.3,21.6,12z M13,7.2c0,0.6-0.4,1-1,1
	s-1-0.5-1-1c0-0.6,0.5-1,1-1S13,6.7,13,7.2z M12.6,16.8c0,0.4-0.2,0.6-0.6,0.6s-0.6-0.2-0.6-0.6v-6.6c0-0.4,0.2-0.6,0.6-0.6
	s0.6,0.2,0.6,0.6V16.8z"/>
</svg>
