<?xml version="1.0" encoding="utf-8"?>
<!-- Generator: Adobe Illustrator 16.0.0, SVG Export Plug-In . SVG Version: 6.00 Build 0)  -->
<!DOCTYPE svg PUBLIC "-//W3C//DTD SVG 1.1//EN" "http://www.w3.org/Graphics/SVG/1.1/DTD/svg11.dtd">
<svg version="1.1" id="图层_1" xmlns="http://www.w3.org/2000/svg" xmlns:xlink="http://www.w3.org/1999/xlink" x="0px" y="0px"
	 width="24px" height="24px" viewBox="-309.5 392.5 24 24" enable-background="new -309.5 392.5 24 24" xml:space="preserve">
<path fill="#B1ABEA" d="M-297.861,410.084l-0.627-0.091l-0.43-0.059l-0.189-0.056c-0.079-1.183-0.471-1.742-0.821-2.081
	c-0.234-0.148-0.479-0.284-0.731-0.402c-0.026,0.421,0.006,0.844,0.096,1.256c0.146,0.491,0.504,0.894,0.977,1.095
	c-0.583-0.154-1.149-0.366-1.69-0.635c0.102-0.448,0.122-0.91,0.06-1.367c-0.024-0.292-0.118-0.572-0.273-0.82
	c-0.17-0.199-0.354-0.389-0.548-0.567c-0.16,0.383-0.263,0.784-0.306,1.194c-0.016,0.23,0.026,0.462,0.123,0.673
	c0.106,0.267,0.278,0.498,0.502,0.677c0,0-0.39-0.246-0.755-0.515c-0.174-0.118-0.335-0.255-0.482-0.403l-0.206-0.204
	c0.548-1.009,0.722-1.703,0.395-2.601c-0.037-0.065-0.084-0.126-0.14-0.177c-0.436,0.476-1.235,1.319-0.603,2.424l-0.548-0.718
	c-0.109-0.175-0.205-0.358-0.29-0.547l-0.108-0.241c0.855-0.754,1.204-1.285,1.28-1.752c0.052-0.278,0.038-0.564-0.04-0.837
	c-0.602,0.369-1.613,0.899-1.435,2.142c0,0-0.039-0.105-0.084-0.274c-0.055-0.196-0.104-0.398-0.146-0.6
	c-0.055-0.293-0.096-0.588-0.122-0.885c1.096-0.421,1.539-0.938,1.756-1.368c0.125-0.256,0.186-0.537,0.179-0.821
	c-0.683,0.185-1.777,0.438-1.963,1.69c0,0-0.013-0.448,0.022-0.901c0.02-0.3,0.058-0.598,0.113-0.893
	c1.179-0.118,1.732-0.49,2.053-0.792c0.144-0.19,0.271-0.393,0.38-0.604c-0.398-0.092-0.811-0.1-1.213-0.027
	c-0.503,0.108-0.92,0.46-1.113,0.938c0.016-0.063,0.036-0.125,0.06-0.185l0.115-0.396c0.106-0.294,0.225-0.574,0.225-0.574
	c0.32-0.11,0.608-0.297,0.839-0.546c0.273-0.295,0.421-0.731,0.681-1.603v-0.014c-0.735-0.102-1.456,0.271-1.798,0.929
	c-0.172,0.348-0.194,0.751-0.061,1.117c0,0-0.132,0.301-0.233,0.608l-0.137,0.436c-0.021,0.066-0.037,0.132-0.046,0.2
	c0.059-0.563-0.005-1.136-0.189-1.672c-0.137-0.489-0.356-0.945-0.449-1.383c-0.099,0.112-0.19,0.231-0.273,0.356
	c-0.173,0.29-0.293,0.61-0.354,0.941c-0.187,0.925,0.306,1.853,1.178,2.214c-0.06,0.315-0.102,0.636-0.125,0.956
	c-0.036,0.481-0.017,0.964-0.017,0.964c-0.213-1.284-1.045-1.917-1.568-2.614c-0.163,0.422-0.215,0.879-0.153,1.327
	c0.116,0.913,0.831,1.633,1.742,1.755c0,0,0.043,0.484,0.135,0.954c0.067,0.317,0.153,0.631,0.258,0.936
	c-0.57-1.182-1.523-1.584-2.235-2.111c-0.043,0.446,0.027,0.896,0.204,1.309c0.34,0.893,1.274,1.406,2.209,1.22l0.14,0.274
	c0.092,0.206,0.203,0.405,0.33,0.59l0.578,0.776c-0.946-0.884-1.974-0.933-2.865-1.25c0.041,0.137,0.092,0.272,0.152,0.401
	c0.142,0.308,0.326,0.594,0.548,0.849c0.564,0.526,1.444,0.93,2.502,0.318l0.219,0.216c0.155,0.165,0.331,0.313,0.521,0.436
	c0.2,0.144,0.404,0.273,0.547,0.393c0.082,0.057,0.168,0.108,0.26,0.149c-0.273-0.11-0.558-0.191-0.848-0.239
	c-0.264-0.03-0.53-0.039-0.794-0.026c-0.502,0-0.985,0.107-1.435,0.121c0.084,0.11,0.175,0.217,0.273,0.314
	c0.219,0.245,0.484,0.442,0.783,0.581c0.368,0.167,0.773,0.234,1.176,0.193c0.492-0.094,0.938-0.349,1.271-0.726
	c-0.023,0.057,1.438,0.605,1.742,0.671c-0.272-0.023-0.547-0.023-0.821,0c-0.261,0.039-0.517,0.108-0.761,0.209
	c-0.469,0.17-0.884,0.396-1.294,0.547c0.107,0.08,0.219,0.152,0.335,0.219c0.271,0.162,0.574,0.263,0.887,0.297
	c0.717,0.119,1.615-0.138,2.171-1.176l0.2,0.053c0.122,0.032,0.274,0.038,0.444,0.061l0.646,0.091c0.095,0,0.171-0.078,0.171-0.17
	C-297.716,410.151-297.781,410.092-297.861,410.084L-297.861,410.084z M-297.127,410.084l0.626-0.091l0.433-0.059l0.192-0.056
	c0.079-1.183,0.471-1.742,0.82-2.081c0.232-0.147,0.475-0.28,0.728-0.396c0.026,0.421-0.005,0.843-0.094,1.254
	c-0.146,0.491-0.502,0.893-0.973,1.095c0.582-0.154,1.144-0.369,1.68-0.639c-0.1-0.448-0.119-0.911-0.051-1.368
	c0.021-0.292,0.116-0.575,0.273-0.82c0.165-0.194,0.343-0.378,0.531-0.55c0.16,0.382,0.26,0.785,0.304,1.195
	c0.016,0.232-0.027,0.463-0.123,0.673c-0.101,0.259-0.269,0.487-0.484,0.663c0.262-0.16,0.515-0.331,0.757-0.517
	c0.175-0.118,0.336-0.252,0.482-0.403l0.204-0.202c-0.548-1.01-0.724-1.706-0.395-2.601c0.036-0.064,0.08-0.123,0.131-0.175
	c0.436,0.475,1.235,1.317,0.604,2.425l0.545-0.718c0.11-0.175,0.208-0.358,0.291-0.547l0.13-0.252
	c-0.855-0.756-1.206-1.286-1.286-1.756c-0.049-0.276-0.034-0.563,0.042-0.834c0.602,0.369,1.617,0.898,1.439,2.14l0.084-0.272
	c0.049-0.17,0.102-0.378,0.151-0.6c0.083-0.441,0.12-0.893,0.12-0.893c-1.095-0.421-1.539-0.937-1.755-1.368
	c-0.125-0.255-0.188-0.536-0.183-0.821c0.685,0.185,1.78,0.438,1.967,1.689c0,0,0-0.451-0.024-0.901
	c-0.022-0.299-0.058-0.598-0.112-0.893c-1.191-0.101-1.741-0.473-2.066-0.779c-0.142-0.19-0.269-0.393-0.376-0.604
	c0.399-0.092,0.813-0.101,1.214-0.026c0.504,0.107,0.919,0.458,1.11,0.935c-0.012-0.063-0.029-0.129-0.048-0.191l-0.128-0.403
	c-0.11-0.294-0.224-0.573-0.224-0.573c-0.323-0.11-0.61-0.299-0.84-0.549c-0.273-0.295-0.421-0.73-0.684-1.6v0.003
	c0.731-0.104,1.448,0.266,1.794,0.919c0.167,0.351,0.183,0.753,0.045,1.116c0,0,0.135,0.302,0.236,0.611l0.136,0.436
	c0.021,0.064,0.037,0.13,0.047,0.197c-0.058-0.563,0.005-1.134,0.188-1.669c0.151-0.491,0.37-0.945,0.461-1.388
	c0.099,0.112,0.19,0.231,0.274,0.356c0.173,0.295,0.293,0.618,0.352,0.953c0.189,0.923-0.303,1.85-1.171,2.212
	c0.057,0.318,0.098,0.637,0.121,0.957c0.036,0.48,0.017,0.966,0.017,0.966c0.211-1.286,1.043-1.92,1.569-2.616
	c0.163,0.422,0.217,0.88,0.157,1.327c-0.116,0.915-0.837,1.637-1.751,1.756c-0.025,0.319-0.068,0.639-0.129,0.954
	c-0.067,0.317-0.152,0.629-0.254,0.936c0.564-1.186,1.516-1.578,2.219-2.104c0.044,0.447-0.025,0.898-0.203,1.311
	c-0.347,0.889-1.282,1.4-2.217,1.21l-0.133,0.272c-0.089,0.207-0.196,0.405-0.321,0.593c-0.273,0.387-0.574,0.776-0.574,0.776
	c0.95-0.884,1.973-0.937,2.866-1.25c-0.04,0.136-0.091,0.27-0.15,0.398c-0.142,0.309-0.328,0.594-0.548,0.852
	c-0.568,0.525-1.438,0.93-2.509,0.318l-0.221,0.215c-0.155,0.166-0.331,0.312-0.52,0.436l-0.548,0.391
	c-0.082,0.06-0.168,0.108-0.258,0.151c0.275-0.111,0.56-0.192,0.851-0.241c0.265-0.029,0.529-0.036,0.795-0.024
	c0.499,0,0.984,0.107,1.433,0.122c-0.084,0.109-0.177,0.214-0.274,0.313c-0.219,0.245-0.485,0.442-0.783,0.582
	c-0.367,0.167-0.771,0.231-1.172,0.191c-0.493-0.094-0.939-0.349-1.271-0.725c0.024,0.056-1.439,0.604-1.744,0.671
	c0.278-0.024,0.559-0.024,0.837,0c0.261,0.038,0.515,0.107,0.757,0.209c0.472,0.169,0.892,0.396,1.3,0.546
	c-0.108,0.08-0.222,0.154-0.337,0.219c-0.271,0.162-0.573,0.264-0.885,0.296c-0.716,0.119-1.617-0.137-2.174-1.174l-0.194,0.052
	c-0.124,0-0.275,0.04-0.446,0.062l-0.647,0.089c-0.093,0-0.168-0.077-0.167-0.173c0.001-0.085,0.065-0.154,0.149-0.165
	L-297.127,410.084z"/>
<path fill="#2D2298" d="M-299.787,403.062c1.457,0.419,1.789,0.75,2.205,2.205c0.012,0.051,0.063,0.08,0.112,0.067
	c0.034-0.008,0.06-0.033,0.068-0.067c0.419-1.455,0.75-1.786,2.205-2.205c0.049-0.014,0.079-0.064,0.064-0.113
	c-0.008-0.031-0.032-0.057-0.064-0.064c-1.455-0.418-1.786-0.751-2.205-2.206c-0.014-0.049-0.065-0.078-0.114-0.063
	c-0.031,0.007-0.056,0.033-0.064,0.063c-0.427,1.455-0.759,1.788-2.207,2.206c-0.049,0.013-0.078,0.064-0.064,0.113
	C-299.843,403.028-299.818,403.053-299.787,403.062 M-300.625,407.185c0.013,0.05,0.063,0.08,0.113,0.065
	c0.031-0.008,0.056-0.033,0.064-0.065c0.191-0.663,0.33-0.803,0.997-0.995c0.05-0.012,0.078-0.063,0.065-0.113
	c-0.008-0.03-0.033-0.057-0.065-0.063c-0.665-0.191-0.805-0.331-0.997-0.996c-0.014-0.049-0.064-0.079-0.113-0.065
	c-0.032,0.009-0.056,0.034-0.064,0.065c-0.192,0.663-0.331,0.805-0.996,0.996c-0.05,0.012-0.079,0.063-0.065,0.113
	c0.008,0.03,0.034,0.057,0.065,0.063C-300.958,406.393-300.815,406.521-300.625,407.185 M-293.379,406.995
	c-0.769-0.223-0.931-0.385-1.147-1.149c-0.014-0.051-0.065-0.079-0.114-0.065c-0.032,0.01-0.057,0.033-0.065,0.065
	c-0.221,0.769-0.384,0.931-1.15,1.149c-0.049,0.013-0.079,0.064-0.064,0.112c0.007,0.032,0.032,0.057,0.064,0.065
	c0.769,0.222,0.931,0.383,1.147,1.149c0.014,0.049,0.065,0.078,0.113,0.063c0.033-0.008,0.057-0.033,0.065-0.063
	c0.222-0.77,0.384-0.931,1.15-1.149c0.049-0.013,0.078-0.065,0.064-0.113C-293.322,407.028-293.347,407.003-293.379,406.995"/>
</svg>
