<?xml version="1.0" encoding="utf-8"?>
<!-- Generator: Adobe Illustrator 28.0.0, SVG Export Plug-In . SVG Version: 6.00 Build 0)  -->
<svg version="1.1" id="Layer_1" xmlns="http://www.w3.org/2000/svg" xmlns:xlink="http://www.w3.org/1999/xlink" x="0px" y="0px"
	 viewBox="0 0 24 24" style="enable-background:new 0 0 24 24;" xml:space="preserve">
<style type="text/css">
	.st0{fill:#888888;}
</style>
<path class="st0" d="M18.7,4.1H5.3C4.3,4.1,3.4,5,3.4,6v12c0,1,0.9,1.9,1.9,1.9h13.3c1,0,1.9-0.9,1.9-1.9V6
	C20.6,4.9,19.7,4.1,18.7,4.1z M7.6,6.3c1,0,1.7,0.8,1.7,1.7S8.6,9.8,7.6,9.8S5.9,9,5.9,8.1S6.7,6.3,7.6,6.3z M5.3,17l3.3-4.4
	l2.4,2.9l3.3-4.3l4.3,5.9L5.3,17L5.3,17z"/>
</svg>
