<?xml version="1.0" encoding="utf-8"?>
<!-- Generator: Adobe Illustrator 16.0.0, SVG Export Plug-In . SVG Version: 6.00 Build 0)  -->
<!DOCTYPE svg PUBLIC "-//W3C//DTD SVG 1.1//EN" "http://www.w3.org/Graphics/SVG/1.1/DTD/svg11.dtd">
<svg version="1.1"
	 id="svg4" xmlns:inkscape="http://www.inkscape.org/namespaces/inkscape" xmlns:sodipodi="http://sodipodi.sourceforge.net/DTD/sodipodi-0.dtd" xmlns:svg="http://www.w3.org/2000/svg" inkscape:version="1.2.2 (732a01da63, 2022-12-09)" sodipodi:docname="file-pdf.svg"
	 xmlns="http://www.w3.org/2000/svg" xmlns:xlink="http://www.w3.org/1999/xlink" x="0px" y="0px" width="24px" height="24px"
	 viewBox="0 0 24 24" enable-background="new 0 0 24 24" xml:space="preserve">
<sodipodi:namedview  id="namedview6" bordercolor="#000000" inkscape:cy="9.3348331" pagecolor="#ffffff" inkscape:cx="11.736778" inkscape:zoom="18.318485" showgrid="false" borderopacity="0.25" inkscape:current-layer="svg4" inkscape:window-y="-8" inkscape:window-x="-8" inkscape:window-height="1009" inkscape:window-width="1920" inkscape:deskcolor="#d1d1d1" inkscape:pageopacity="0.0" inkscape:showpageshadow="2" inkscape:window-maximized="1" inkscape:pagecheckerboard="0">
	</sodipodi:namedview>
<path id="path2" fill="#D73736" d="M11.392,10.87c-0.244,0.789-0.597,1.632-1.076,2.56c-0.214,0.404-0.448,0.789-0.534,1.108
	l0.117-0.042l0,0c1.354-0.523,2.634-0.822,3.562-0.992c-0.16-0.107-0.309-0.225-0.438-0.342
	C12.384,12.619,11.829,11.829,11.392,10.87 M18.303,14.933c-0.182,0.203-0.501,0.32-0.971,0.32c-0.811,0-2.133-0.245-3.199-0.789
	c-1.834,0.202-3.199,0.448-4.298,0.8c-0.053,0.021-0.117,0.043-0.192,0.074c-1.322,2.262-2.304,3.274-3.167,3.274
	c-0.171,0-0.341-0.042-0.469-0.117l-0.512-0.331l-0.032-0.053c-0.075-0.192-0.096-0.373-0.053-0.576
	c0.117-0.565,0.725-1.461,2.005-2.261c0.203-0.149,0.522-0.32,0.949-0.522c0.32-0.555,0.661-1.205,1.024-1.92
	c0.544-1.099,0.885-2.187,1.152-3.125V9.696c-0.395-1.291-0.629-2.069-0.235-3.487c0.097-0.405,0.448-0.821,0.844-0.821h0.256
	c0.244,0,0.479,0.085,0.65,0.256c0.704,0.704,0.373,2.421,0.021,3.839c-0.021,0.064-0.033,0.118-0.043,0.149
	c0.426,1.205,1.034,2.176,1.706,2.73c0.277,0.213,0.587,0.426,0.928,0.619c0.48-0.054,0.939-0.075,1.376-0.075
	c1.323,0,2.122,0.234,2.432,0.736c0.106,0.17,0.16,0.373,0.128,0.586C18.591,14.496,18.495,14.74,18.303,14.933 M19.465,2.401H4.535
	c-1.184,0-2.133,0.949-2.133,2.133v14.93c0,1.179,0.955,2.134,2.133,2.134l0,0h14.93c1.179,0,2.134-0.955,2.134-2.134l0,0V4.535
	C21.599,3.351,20.639,2.401,19.465,2.401 M17.865,14.176c-0.105-0.107-0.533-0.373-2.025-0.373c-0.075,0-0.15,0-0.246,0.106
	c0.779,0.341,1.536,0.544,2.027,0.544c0.074,0,0.139-0.011,0.202-0.021h0.042c0.054-0.021,0.086-0.032,0.097-0.139
	C17.94,14.261,17.919,14.219,17.865,14.176 M8.086,15.732c-0.224,0.129-0.405,0.246-0.512,0.331
	c-0.757,0.693-1.237,1.397-1.291,1.802C6.764,17.705,7.393,17.002,8.086,15.732 M11.307,8.363L11.36,8.32
	c0.074-0.341,0.106-0.64,0.17-0.874l0.032-0.171c0.106-0.608,0.085-0.917-0.096-1.173l-0.16-0.053
	c-0.021,0.032-0.054,0.085-0.075,0.128C11.051,6.625,11.062,7.403,11.307,8.363z"/>
</svg>
