<?xml version="1.0" encoding="utf-8"?>
<!-- Generator: Adobe Illustrator 24.2.0, SVG Export Plug-In . SVG Version: 6.00 Build 0)  -->
<svg version="1.1" id="图层_1" xmlns="http://www.w3.org/2000/svg" xmlns:xlink="http://www.w3.org/1999/xlink" x="0px" y="0px"
	 viewBox="0 0 24 24" style="enable-background:new 0 0 24 24;" xml:space="preserve">
<style type="text/css">
	.st0{fill:url(#SVGID_1_);}
	.st1{fill:url(#SVGID_2_);}
	.st2{fill:url(#SVGID_3_);}
	.st3{fill:url(#SVGID_4_);}
	.st4{fill:#FFBBA6;}
	.st5{fill:url(#SVGID_5_);}
	.st6{fill:url(#SVGID_6_);}
	.st7{fill:url(#SVGID_7_);}
	.st8{fill:url(#SVGID_8_);}
	.st9{fill:url(#SVGID_9_);}
	.st10{fill:url(#SVGID_10_);}
	.st11{fill:url(#SVGID_11_);}
	.st12{fill:#9E1919;}
	.st13{fill:url(#SVGID_12_);}
	.st14{fill:url(#SVGID_13_);}
	.st15{fill:url(#SVGID_14_);}
</style>
<g>
	<linearGradient id="SVGID_1_" gradientUnits="userSpaceOnUse" x1="6.2892" y1="11.8221" x2="13.8963" y2="11.8221">
		<stop  offset="8.599149e-02" style="stop-color:#C7FFFF"/>
		<stop  offset="0.9038" style="stop-color:#5B42FF"/>
	</linearGradient>
	<path class="st0" d="M11.2,9.5c-0.2,0.5-0.3,0.6-0.4,0.7c0,0,0,0,0,0c0-0.2,0-0.3,0.2-0.8c0.3-0.6,0.4-1.2,0.6-1.1
		C11.8,8.4,11.5,8.8,11.2,9.5z M8.6,9.7c0.3,0.4,0.3,0.6,0.4,0.7c0,0,0,0,0,0c-0.1-0.1-0.3-0.2-0.6-0.6C8,9.3,7.6,8.9,7.8,8.8
		C7.9,8.6,8.2,9.1,8.6,9.7z M7.5,12.1c0.5-0.1,0.7,0,0.8,0c0,0,0,0,0,0c-0.2,0.1-0.3,0.2-0.8,0.2c-0.7,0.1-1.2,0.2-1.2,0
		C6.3,12.1,6.8,12.1,7.5,12.1z M9,14.2c0.2-0.5,0.3-0.6,0.4-0.7c0,0,0,0,0,0c0,0.2,0,0.3-0.2,0.8c-0.3,0.6-0.4,1.2-0.6,1.1
		C8.4,15.3,8.7,14.8,9,14.2z M11.6,14c-0.3-0.4-0.3-0.6-0.4-0.7c0,0,0,0,0,0c0.1,0.1,0.3,0.2,0.6,0.6c0.4,0.5,0.8,0.9,0.6,1.1
		C12.2,15,12,14.5,11.6,14L11.6,14z M12.7,11.6c-0.5,0.1-0.7,0-0.8,0c0,0,0,0,0,0c0.2-0.1,0.3-0.2,0.8-0.2c0.7-0.1,1.2-0.2,1.2,0
		C13.9,11.5,13.4,11.5,12.7,11.6z"/>
	<linearGradient id="SVGID_2_" gradientUnits="userSpaceOnUse" x1="9.4063" y1="11.8139" x2="10.7314" y2="11.8139">
		<stop  offset="0.201" style="stop-color:#1A0027"/>
		<stop  offset="0.2907" style="stop-color:#1D0049"/>
		<stop  offset="0.4688" style="stop-color:#230087"/>
		<stop  offset="0.6316" style="stop-color:#2700B8"/>
		<stop  offset="0.7737" style="stop-color:#2A00DC"/>
		<stop  offset="0.8896" style="stop-color:#2C00F1"/>
		<stop  offset="0.9648" style="stop-color:#2D00F9"/>
	</linearGradient>
	<path class="st1" d="M9.4,11.8c0,0.4,0.3,0.7,0.7,0.7s0.7-0.3,0.7-0.7s-0.3-0.7-0.7-0.7S9.4,11.4,9.4,11.8z"/>
	<linearGradient id="SVGID_3_" gradientUnits="userSpaceOnUse" x1="5.5523" y1="11.8221" x2="14.6342" y2="11.8221">
		<stop  offset="0" style="stop-color:#A8FFFF"/>
		<stop  offset="1" style="stop-color:#E600DB"/>
	</linearGradient>
	<path class="st2" d="M9.7,9c0.2,0.8,0.1,1.1,0.1,1.3c0,0,0,0,0,0c-0.1-0.2-0.3-0.4-0.4-1.3C9.1,8,8.8,7.2,9.2,7.1
		C9.5,7.1,9.5,7.9,9.7,9z M7.5,10.7c0.8,0.3,1,0.5,1.2,0.6c0,0,0,0,0,0c-0.3,0-0.5,0-1.3-0.2c-1-0.3-1.9-0.5-1.8-0.8
		C5.7,9.9,6.5,10.4,7.5,10.7z M7.8,13.5C8.5,13,8.7,13,8.9,12.8c0,0,0,0,0,0c-0.2,0.2-0.2,0.5-0.9,1c-0.8,0.7-1.4,1.4-1.6,1.1
		C6.3,14.7,7,14.2,7.8,13.5z M10.4,14.7c-0.2-0.8-0.1-1.1-0.1-1.3c0,0,0,0,0,0c0.1,0.2,0.3,0.4,0.4,1.3c0.2,1,0.5,1.9,0.2,1.9
		C10.7,16.6,10.6,15.7,10.4,14.7z M12.7,12.9c-0.8-0.3-0.9-0.5-1.2-0.6c0,0,0,0,0,0c0.3,0,0.5,0,1.3,0.2c1,0.3,1.9,0.5,1.7,0.8
		C14.5,13.7,13.7,13.3,12.7,12.9z M12.4,10.1c-0.6,0.6-0.9,0.6-1.1,0.7c0,0,0,0,0,0c0.2-0.2,0.2-0.5,0.9-1c0.8-0.7,1.4-1.4,1.6-1.1
		C13.9,8.9,13.2,9.4,12.4,10.1L12.4,10.1z"/>
	<linearGradient id="SVGID_4_" gradientUnits="userSpaceOnUse" x1="3.2844" y1="11.8685" x2="16.9665" y2="11.8685">
		<stop  offset="0" style="stop-color:#A8FFFF"/>
		<stop  offset="1" style="stop-color:#E600DB"/>
	</linearGradient>
	<path class="st3" d="M10.9,7c-0.1,1.3-0.3,1.6-0.4,2c0,0-0.1,0-0.1,0c-0.1-0.4-0.3-0.8-0.2-2.1c0.1-1.7-0.1-3,0.5-3
		C11.2,4,10.9,5.3,10.9,7z M6.1,8.7c1.1,0.7,1.3,1.1,1.6,1.4c0,0,0,0.1,0,0.1C7.3,10,6.9,10,5.8,9.3C4.4,8.4,3.1,7.9,3.4,7.4
		S4.7,7.9,6.1,8.7z M6,13.2c1.2-0.4,1.6-0.3,2-0.4c0,0,0.1,0.1,0,0.1c-0.4,0.2-0.6,0.5-1.8,1c-1.6,0.5-2.8,1.2-3,0.7
		C3.1,14,4.5,13.7,6,13.2z M9.5,16.8c0.1-1.3,0.3-1.6,0.4-2c0,0,0.1,0,0.1,0c0.1,0.4,0.3,0.8,0.2,2.1c-0.1,1.7,0.1,3-0.5,3
		C9.2,19.8,9.5,18.4,9.5,16.8L9.5,16.8z M13.6,14.7c-1.1-0.7-1.3-1.1-1.5-1.3c0,0,0-0.1,0-0.1c0.4,0.1,0.8,0.1,1.9,0.8
		c1.4,0.9,2.6,1.4,2.3,1.9C16,16.5,15,15.6,13.6,14.7L13.6,14.7z M14.4,9.9c-1.2,0.6-1.6,0.6-2,0.7c0,0-0.1,0,0-0.1
		c0.3-0.3,0.5-0.6,1.7-1.2c1.5-0.8,2.6-1.6,2.8-1.1C17.2,8.8,15.9,9.2,14.4,9.9z"/>
	<path class="st4" d="M18.1,10c0,0.4-0.1,0.4-0.1,0.6c0,0,0,0,0,0c0-0.1-0.1-0.2-0.1-0.6c0-0.4-0.1-0.8,0.1-0.8
		C18.2,9.2,18.1,9.5,18.1,10z M16.6,10.8c0.3,0.2,0.4,0.3,0.4,0.4c0,0,0,0,0,0c-0.1,0-0.2,0-0.5-0.2c-0.4-0.2-0.7-0.4-0.7-0.5
		C15.9,10.4,16.2,10.6,16.6,10.8z M16.5,12.6c0.3-0.2,0.4-0.2,0.5-0.2c0,0,0,0,0,0c-0.1,0.1-0.1,0.2-0.4,0.4
		c-0.4,0.2-0.7,0.5-0.8,0.3C15.8,12.9,16.1,12.8,16.5,12.6L16.5,12.6z M18,13.5c0-0.4,0.1-0.4,0.1-0.6c0,0,0,0,0,0
		c0,0.1,0.1,0.2,0.1,0.6c0,0.4,0.1,0.8-0.1,0.8C18,14.3,18,13.9,18,13.5z M19.5,12.6c-0.3-0.2-0.4-0.3-0.4-0.4c0,0,0,0,0,0
		c0.1,0,0.2,0,0.5,0.2c0.4,0.2,0.7,0.4,0.7,0.5C20.2,13.1,19.9,12.9,19.5,12.6L19.5,12.6z M19.6,10.9c-0.3,0.2-0.4,0.2-0.5,0.2
		c0,0,0,0,0,0c0.1-0.1,0.1-0.2,0.4-0.4c0.4-0.2,0.7-0.5,0.8-0.3C20.3,10.5,20,10.7,19.6,10.9L19.6,10.9z"/>
	<linearGradient id="SVGID_5_" gradientUnits="userSpaceOnUse" x1="15.8019" y1="11.7252" x2="20.3067" y2="11.7252">
		<stop  offset="8.599149e-02" style="stop-color:#C7FFFF"/>
		<stop  offset="0.9038" style="stop-color:#5B42FF"/>
	</linearGradient>
	<path class="st5" d="M18.1,10c0,0.4-0.1,0.4-0.1,0.6c0,0,0,0,0,0c0-0.1-0.1-0.2-0.1-0.6c0-0.4-0.1-0.8,0.1-0.8
		C18.2,9.2,18.1,9.5,18.1,10z M16.6,10.8c0.3,0.2,0.4,0.3,0.4,0.4c0,0,0,0,0,0c-0.1,0-0.2,0-0.5-0.2c-0.4-0.2-0.7-0.4-0.7-0.5
		C15.9,10.4,16.2,10.6,16.6,10.8z M16.5,12.6c0.3-0.2,0.4-0.2,0.5-0.2c0,0,0,0,0,0c-0.1,0.1-0.1,0.2-0.4,0.4
		c-0.4,0.2-0.7,0.5-0.8,0.3C15.8,12.9,16.1,12.8,16.5,12.6L16.5,12.6z M18,13.5c0-0.4,0.1-0.4,0.1-0.6c0,0,0,0,0,0
		c0,0.1,0.1,0.2,0.1,0.6c0,0.4,0.1,0.8-0.1,0.8C18,14.3,18,13.9,18,13.5z M19.5,12.6c-0.3-0.2-0.4-0.3-0.4-0.4c0,0,0,0,0,0
		c0.1,0,0.2,0,0.5,0.2c0.4,0.2,0.7,0.4,0.7,0.5C20.2,13.1,19.9,12.9,19.5,12.6L19.5,12.6z M19.6,10.9c-0.3,0.2-0.4,0.2-0.5,0.2
		c0,0,0,0,0,0c0.1-0.1,0.1-0.2,0.4-0.4c0.4-0.2,0.7-0.5,0.8-0.3C20.3,10.5,20,10.7,19.6,10.9L19.6,10.9z"/>
	<linearGradient id="SVGID_6_" gradientUnits="userSpaceOnUse" x1="17.5959" y1="11.7251" x2="18.4794" y2="11.7251">
		<stop  offset="0" style="stop-color:#A8FFFF"/>
		<stop  offset="1" style="stop-color:#E600DB"/>
	</linearGradient>
	<path class="st6" d="M17.6,11.7c0,0.2,0.2,0.4,0.4,0.4c0.2,0,0.4-0.2,0.4-0.4c0,0,0,0,0,0c0-0.2-0.2-0.4-0.4-0.4
		C17.8,11.3,17.6,11.5,17.6,11.7C17.6,11.7,17.6,11.7,17.6,11.7z"/>
	<linearGradient id="SVGID_7_" gradientUnits="userSpaceOnUse" x1="14.8668" y1="11.7252" x2="21.2418" y2="11.7252">
		<stop  offset="0" style="stop-color:#C7FFFF"/>
		<stop  offset="0.6" style="stop-color:#5B42FF"/>
	</linearGradient>
	<path class="st7" d="M17.2,10c0.3,0.5,0.3,0.7,0.3,0.8c0,0,0,0,0,0c-0.1-0.1-0.3-0.2-0.6-0.7c-0.4-0.6-0.7-1.1-0.5-1.2
		C16.7,8.8,16.9,9.4,17.2,10z M16.2,11.6c0.6,0,0.7,0.1,0.9,0.1c0,0,0,0,0,0c-0.2,0-0.3,0.1-0.9,0.1c-0.7,0-1.3,0.1-1.3-0.1
		S15.4,11.6,16.2,11.6z M17,13.3c0.3-0.5,0.4-0.6,0.6-0.7c0,0,0,0,0,0c-0.1,0.2,0,0.3-0.3,0.8c-0.4,0.6-0.6,1.2-0.8,1
		C16.3,14.4,16.6,13.9,17,13.3L17,13.3z M18.9,13.4c-0.3-0.5-0.3-0.7-0.3-0.8c0,0,0,0,0,0c0.1,0.1,0.3,0.2,0.6,0.7
		c0.4,0.6,0.7,1.1,0.5,1.2C19.4,14.6,19.2,14.1,18.9,13.4L18.9,13.4z M20,11.9c-0.6,0-0.7-0.1-0.9-0.1c0,0,0,0,0,0
		c0.2,0,0.3-0.1,0.9-0.1c0.7,0,1.3-0.1,1.3,0.1C21.2,12,20.7,11.9,20,11.9z M19.1,10.1c-0.3,0.5-0.4,0.6-0.6,0.7c0,0,0,0,0,0
		c0.1-0.2,0-0.3,0.3-0.8c0.4-0.6,0.6-1.2,0.8-1C19.9,9.1,19.5,9.5,19.1,10.1z"/>
	<linearGradient id="SVGID_8_" gradientUnits="userSpaceOnUse" x1="5.763" y1="12.0852" x2="13.3701" y2="12.0852">
		<stop  offset="0.201" style="stop-color:#1A0027"/>
		<stop  offset="0.2907" style="stop-color:#1D0049"/>
		<stop  offset="0.4688" style="stop-color:#230087"/>
		<stop  offset="0.6316" style="stop-color:#2700B8"/>
		<stop  offset="0.7737" style="stop-color:#2A00DC"/>
		<stop  offset="0.8896" style="stop-color:#2C00F1"/>
		<stop  offset="0.9648" style="stop-color:#2D00F9"/>
	</linearGradient>
	<path class="st8" d="M10.7,9.7c-0.2,0.5-0.3,0.6-0.4,0.7c0,0,0,0,0,0c0-0.2,0-0.3,0.2-0.8C10.7,9,10.8,8.4,11,8.5
		C11.2,8.6,10.9,9.1,10.7,9.7z M8.1,9.9c0.3,0.4,0.3,0.6,0.4,0.7c0,0,0,0,0,0c-0.1-0.1-0.3-0.2-0.6-0.6C7.4,9.6,7,9.2,7.2,9
		C7.4,8.9,7.7,9.4,8.1,9.9z M7,12.3c0.5-0.1,0.7,0,0.8,0c0,0,0,0,0,0c-0.2,0.1-0.3,0.2-0.8,0.2c-0.7,0.1-1.2,0.2-1.2,0
		C5.7,12.4,6.3,12.4,7,12.3z M8.5,14.5c0.2-0.5,0.3-0.6,0.4-0.7c0,0,0,0,0,0c0,0.2,0,0.3-0.2,0.8c-0.3,0.6-0.4,1.2-0.6,1.1
		C7.9,15.5,8.2,15.1,8.5,14.5z M11.1,14.2c-0.3-0.4-0.3-0.6-0.4-0.7c0,0,0,0,0,0c0.1,0.1,0.3,0.2,0.6,0.6c0.4,0.5,0.8,0.9,0.6,1.1
		C11.7,15.3,11.5,14.8,11.1,14.2L11.1,14.2z M12.2,11.9c-0.5,0.1-0.7,0-0.8,0c0,0,0,0,0,0c0.2-0.1,0.3-0.2,0.8-0.2
		c0.7-0.1,1.2-0.2,1.2,0C13.4,11.8,12.8,11.8,12.2,11.9z"/>
	<linearGradient id="SVGID_9_" gradientUnits="userSpaceOnUse" x1="8.8802" y1="12.077" x2="10.2052" y2="12.077">
		<stop  offset="0" style="stop-color:#A8FFFF"/>
		<stop  offset="1" style="stop-color:#E600DB"/>
	</linearGradient>
	<path class="st9" d="M8.9,12.1c0,0.4,0.3,0.7,0.7,0.7s0.7-0.3,0.7-0.7c0-0.4-0.3-0.7-0.7-0.7S8.9,11.7,8.9,12.1z"/>
	<linearGradient id="SVGID_10_" gradientUnits="userSpaceOnUse" x1="5.0261" y1="12.0852" x2="14.108" y2="12.0852">
		<stop  offset="8.599149e-02" style="stop-color:#C7FFFF"/>
		<stop  offset="0.9038" style="stop-color:#5B42FF"/>
	</linearGradient>
	<path class="st10" d="M9.2,9.3c0.2,0.8,0.1,1.1,0.1,1.3c0,0,0,0,0,0c-0.1-0.2-0.3-0.4-0.4-1.3c-0.2-1-0.5-1.9-0.2-1.9
		C9,7.3,9,8.2,9.2,9.3z M6.9,11c0.8,0.3,1,0.5,1.2,0.6c0,0,0,0,0,0c-0.3,0-0.5,0-1.3-0.2c-1-0.3-1.9-0.5-1.8-0.8
		C5.2,10.2,5.9,10.6,6.9,11z M7.3,13.8c0.6-0.6,0.9-0.6,1.1-0.7c0,0,0,0,0,0c-0.2,0.2-0.2,0.5-0.9,1c-0.8,0.7-1.4,1.4-1.6,1.1
		C5.7,15,6.5,14.5,7.3,13.8z M9.9,14.9c-0.2-0.8-0.1-1.1-0.1-1.3c0,0,0,0,0,0c0.1,0.2,0.3,0.4,0.4,1.3c0.2,1,0.5,1.9,0.2,1.9
		C10.1,16.8,10.1,16,9.9,14.9z M12.2,13.2c-0.8-0.3-0.9-0.5-1.2-0.6c0,0,0,0,0,0c0.3,0,0.5,0,1.3,0.2c1,0.3,1.9,0.5,1.7,0.8
		C14,14,13.2,13.5,12.2,13.2z M11.8,10.4c-0.6,0.6-0.9,0.6-1.1,0.7c0,0,0,0,0,0c0.2-0.2,0.2-0.5,0.9-1c0.8-0.7,1.4-1.4,1.6-1.1
		C13.4,9.2,12.7,9.7,11.8,10.4z"/>
	<linearGradient id="SVGID_11_" gradientUnits="userSpaceOnUse" x1="2.7582" y1="12.1315" x2="16.4403" y2="12.1315">
		<stop  offset="0" style="stop-color:#C7FFFF"/>
		<stop  offset="0.6" style="stop-color:#5B42FF"/>
	</linearGradient>
	<path class="st11" d="M10.3,7.2c-0.1,1.3-0.3,1.6-0.4,2c0,0-0.1,0-0.1,0C9.8,8.9,9.6,8.5,9.6,7.2c0.1-1.7-0.1-3,0.5-3
		C10.7,4.2,10.4,5.6,10.3,7.2z M5.6,9c1.1,0.7,1.3,1.1,1.6,1.4c0,0,0,0.1,0,0.1c-0.4-0.1-0.8-0.1-1.9-0.8C3.8,8.7,2.6,8.2,2.9,7.7
		S4.2,8.1,5.6,9z M5.5,13.5c1.2-0.4,1.6-0.3,2-0.4c0,0,0.1,0.1,0,0.1c-0.4,0.2-0.6,0.5-1.8,1c-1.6,0.5-2.8,1.2-3,0.7
		C2.6,14.2,3.9,14,5.5,13.5z M9,17c0.1-1.3,0.3-1.6,0.4-2c0,0,0.1,0,0.1,0c0.1,0.4,0.3,0.8,0.2,2.1c-0.1,1.7,0.1,3-0.5,3
		C8.6,20,8.9,18.7,9,17L9,17z M13.1,14.9c-1.1-0.7-1.3-1.1-1.5-1.3c0,0,0-0.1,0-0.1c0.4,0.1,0.8,0.1,1.9,0.8
		c1.4,0.9,2.6,1.4,2.3,1.9C15.5,16.7,14.5,15.8,13.1,14.9L13.1,14.9z M13.9,10.2c-1.2,0.6-1.6,0.6-2,0.7c0,0-0.1,0,0-0.1
		c0.3-0.3,0.5-0.6,1.7-1.2c1.5-0.8,2.6-1.6,2.8-1.1S15.4,9.4,13.9,10.2z"/>
	<path class="st12" d="M17.6,10.2c0,0.4-0.1,0.4-0.1,0.6c0,0,0,0,0,0c0-0.1-0.1-0.2-0.1-0.6c0-0.4-0.1-0.8,0.1-0.8
		C17.6,9.4,17.6,9.8,17.6,10.2z M16,11.1c0.3,0.2,0.4,0.3,0.4,0.4c0,0,0,0,0,0c-0.1,0-0.2,0-0.5-0.2c-0.4-0.2-0.7-0.4-0.7-0.5
		S15.6,10.9,16,11.1z M16,12.8c0.3-0.2,0.4-0.2,0.5-0.2c0,0,0,0,0,0c-0.1,0.1-0.1,0.2-0.4,0.4c-0.4,0.2-0.7,0.5-0.8,0.3
		C15.3,13.2,15.6,13,16,12.8L16,12.8z M17.5,13.7c0-0.4,0.1-0.4,0.1-0.6c0,0,0,0,0,0c0,0.1,0.1,0.2,0.1,0.6c0,0.4,0.1,0.8-0.1,0.8
		C17.4,14.5,17.5,14.2,17.5,13.7z M19,12.9c-0.3-0.2-0.4-0.3-0.4-0.4c0,0,0,0,0,0c0.1,0,0.2,0,0.5,0.2c0.4,0.2,0.7,0.4,0.7,0.5
		C19.7,13.4,19.4,13.1,19,12.9L19,12.9z M19.1,11.2c-0.3,0.2-0.4,0.2-0.5,0.2c0,0,0,0,0,0c0.1-0.1,0.1-0.2,0.4-0.4
		c0.4-0.2,0.7-0.5,0.8-0.3C19.8,10.8,19.4,10.9,19.1,11.2L19.1,11.2z"/>
	<linearGradient id="SVGID_12_" gradientUnits="userSpaceOnUse" x1="15.2758" y1="11.9883" x2="19.7805" y2="11.9883">
		<stop  offset="0.201" style="stop-color:#1A0027"/>
		<stop  offset="0.2907" style="stop-color:#1D0049"/>
		<stop  offset="0.4688" style="stop-color:#230087"/>
		<stop  offset="0.6316" style="stop-color:#2700B8"/>
		<stop  offset="0.7737" style="stop-color:#2A00DC"/>
		<stop  offset="0.8896" style="stop-color:#2C00F1"/>
		<stop  offset="0.9648" style="stop-color:#2D00F9"/>
	</linearGradient>
	<path class="st13" d="M17.6,10.2c0,0.4-0.1,0.4-0.1,0.6c0,0,0,0,0,0c0-0.1-0.1-0.2-0.1-0.6c0-0.4-0.1-0.8,0.1-0.8
		C17.6,9.4,17.6,9.8,17.6,10.2z M16,11.1c0.3,0.2,0.4,0.3,0.4,0.4c0,0,0,0,0,0c-0.1,0-0.2,0-0.5-0.2c-0.4-0.2-0.7-0.4-0.7-0.5
		S15.6,10.9,16,11.1z M16,12.8c0.3-0.2,0.4-0.2,0.5-0.2c0,0,0,0,0,0c-0.1,0.1-0.1,0.2-0.4,0.4c-0.4,0.2-0.7,0.5-0.8,0.3
		C15.3,13.2,15.6,13,16,12.8L16,12.8z M17.5,13.7c0-0.4,0.1-0.4,0.1-0.6c0,0,0,0,0,0c0,0.1,0.1,0.2,0.1,0.6c0,0.4,0.1,0.8-0.1,0.8
		C17.4,14.5,17.5,14.2,17.5,13.7z M19,12.9c-0.3-0.2-0.4-0.3-0.4-0.4c0,0,0,0,0,0c0.1,0,0.2,0,0.5,0.2c0.4,0.2,0.7,0.4,0.7,0.5
		C19.7,13.4,19.4,13.1,19,12.9L19,12.9z M19.1,11.2c-0.3,0.2-0.4,0.2-0.5,0.2c0,0,0,0,0,0c0.1-0.1,0.1-0.2,0.4-0.4
		c0.4-0.2,0.7-0.5,0.8-0.3C19.8,10.8,19.4,10.9,19.1,11.2L19.1,11.2z"/>
	<linearGradient id="SVGID_13_" gradientUnits="userSpaceOnUse" x1="17.0697" y1="11.9882" x2="17.9532" y2="11.9882">
		<stop  offset="0.201" style="stop-color:#1A0027"/>
		<stop  offset="0.2907" style="stop-color:#1D0049"/>
		<stop  offset="0.4688" style="stop-color:#230087"/>
		<stop  offset="0.6316" style="stop-color:#2700B8"/>
		<stop  offset="0.7737" style="stop-color:#2A00DC"/>
		<stop  offset="0.8896" style="stop-color:#2C00F1"/>
		<stop  offset="0.9648" style="stop-color:#2D00F9"/>
	</linearGradient>
	<path class="st14" d="M17.1,12c0,0.2,0.2,0.4,0.4,0.4c0.2,0,0.4-0.2,0.4-0.4c0,0,0,0,0,0c0-0.2-0.2-0.4-0.4-0.4
		C17.3,11.5,17.1,11.7,17.1,12C17.1,12,17.1,12,17.1,12z"/>
	<linearGradient id="SVGID_14_" gradientUnits="userSpaceOnUse" x1="14.3407" y1="11.9883" x2="20.7156" y2="11.9883">
		<stop  offset="0" style="stop-color:#A8FFFF"/>
		<stop  offset="1" style="stop-color:#E600DB"/>
	</linearGradient>
	<path class="st15" d="M16.7,10.3c0.3,0.5,0.3,0.7,0.3,0.8c0,0,0,0,0,0c-0.1-0.1-0.3-0.2-0.6-0.7c-0.4-0.6-0.7-1.1-0.5-1.2
		C16.1,9.1,16.3,9.7,16.7,10.3z M15.6,11.9c0.6,0,0.7,0.1,0.9,0.1c0,0,0,0,0,0c-0.2,0-0.3,0.1-0.9,0.1c-0.7,0-1.3,0.1-1.3-0.1
		C14.3,11.8,14.9,11.9,15.6,11.9z M16.5,13.6c0.3-0.5,0.4-0.6,0.6-0.7c0,0,0,0,0,0c-0.1,0.2,0,0.3-0.3,0.8c-0.4,0.6-0.6,1.2-0.8,1
		C15.7,14.6,16.1,14.2,16.5,13.6L16.5,13.6z M18.4,13.7c-0.3-0.5-0.3-0.7-0.3-0.8c0,0,0,0,0,0c0.1,0.1,0.3,0.2,0.6,0.7
		c0.4,0.6,0.7,1.1,0.5,1.2C18.9,14.9,18.7,14.3,18.4,13.7L18.4,13.7z M19.4,12.1c-0.6,0-0.7-0.1-0.9-0.1c0,0,0,0,0,0
		c0.2,0,0.3-0.1,0.9-0.1c0.7,0,1.3-0.1,1.3,0.1C20.7,12.2,20.1,12.1,19.4,12.1z M18.6,10.4c-0.3,0.5-0.4,0.6-0.6,0.7c0,0,0,0,0,0
		c0.1-0.2,0-0.3,0.3-0.8c0.4-0.6,0.6-1.2,0.8-1C19.3,9.3,18.9,9.8,18.6,10.4z"/>
</g>
</svg>
