<?xml version="1.0" encoding="utf-8"?>
<!-- Generator: Adobe Illustrator 28.0.0, SVG Export Plug-In . SVG Version: 6.00 Build 0)  -->
<svg version="1.1" id="Layer_1" xmlns="http://www.w3.org/2000/svg" xmlns:xlink="http://www.w3.org/1999/xlink" x="0px" y="0px"
	 viewBox="0 0 24 24" style="enable-background:new 0 0 24 24;" xml:space="preserve">
<style type="text/css">
	.st0{fill:#888888;}
</style>
<path class="st0" d="M5.7,10c1.6,0.9,3.7,1.3,6.3,1.3s4.8-0.4,6.3-1.3l-1,9.3c0,0.2-0.2,0.4-0.7,0.7c-0.4,0.3-1.1,0.6-1.9,0.8
	c-0.9,0.3-1.8,0.4-2.7,0.4s-1.8-0.1-2.7-0.4S7.8,20.2,7.4,20s-0.7-0.5-0.7-0.7L5.7,10z M15,4.2c1.2,0.2,2.2,0.6,3,1.1
	c0.8,0.5,1.2,0.9,1.2,1.4v0.2c0,0.7-0.7,1.4-2.1,1.9C15.7,9.2,14,9.5,12,9.5S8.3,9.2,6.9,8.7C5.4,8.2,4.7,7.6,4.7,6.8V6.6
	c0-0.4,0.4-0.9,1.2-1.4c0.8-0.5,1.8-0.8,3-1.1l0.8-0.9c0.3-0.3,0.7-0.5,1.3-0.5h1.8c0.7,0,1.1,0.2,1.3,0.5L15,4.2z M14,6.4h1.6
	c-1.2-1.4-1.8-2.2-2-2.4c-0.2-0.2-0.4-0.3-0.6-0.3h-2c-0.3,0-0.5,0.1-0.6,0.3l-2,2.4H10l1.2-1.3h1.6L14,6.4z"/>
</svg>
