<?xml version="1.0" encoding="utf-8"?>
<!-- Generator: Adobe Illustrator 24.2.0, SVG Export Plug-In . SVG Version: 6.00 Build 0)  -->
<svg version="1.1" id="图层_1" xmlns="http://www.w3.org/2000/svg" xmlns:xlink="http://www.w3.org/1999/xlink" x="0px" y="0px"
	 viewBox="0 0 24 24" style="enable-background:new 0 0 24 24;" xml:space="preserve">
<style type="text/css">
	.st0{fill:#888888;}
</style>
<path class="st0" d="M9.7,8.4l5.9,5.9c0,0,0.1,0.1,0,0.2c-0.3,0.5-1.9,3.2-2.3,6.7c0,0,0,0-0.1,0c0,0,0,0,0,0l-2-1.2c0,0,0,0,0-0.1
	c0.2-0.4,2-4.1,1.8-4c-0.2,0.2-1.4,1.5-2.4,2.9L10,19.6c0,0-2.1-1.4-2.7-2.3c0,0,0,0,0,0c0.4-0.5,2.6-3.4,2.6-3.4l-3.8,2.3
	c0,0,0,0-0.1,0c-0.2-0.2-1.4-1.6-1.8-2.2c0,0,0,0,0,0c0.4-0.3,2.4-2,2.4-2l-2.9,1c0,0,0,0-0.1,0l-1.1-2c0,0,0-0.1,0-0.1
	c0.5-0.1,4.7-1,6.7-2.4C9.6,8.3,9.6,8.4,9.7,8.4z M17.6,17.2c0-0.4,0.4-0.8,0.8-0.8c0.4,0,0.8,0.4,0.8,0.8c0,0.4-0.4,0.8-0.8,0.8
	C18,18,17.6,17.7,17.6,17.2z M14.3,18.8c0-0.8,0.7-1.5,1.5-1.5c0.8,0,1.5,0.7,1.5,1.5c0,0.8-0.7,1.5-1.5,1.5
	C15,20.3,14.3,19.6,14.3,18.8z M7.2,5.9c0-0.6,0.5-1.2,1.2-1.2c0.6,0,1.2,0.5,1.2,1.2C9.6,6.5,9.1,7,8.4,7C7.8,7,7.2,6.5,7.2,5.9z
	 M17.1,8.8c0,0.1,0,0.1,0,0.1c0.8,1.4,0.8,3.1-0.4,4.4c0,0-0.1,0-0.1,0l-5.9-5.9c0,0,0-0.1,0-0.1c1.3-1.2,2.9-1.2,4.4-0.4
	c0,0,0.1,0,0.1,0l3.7-3.7c0.5-0.5,1.4-0.5,1.9,0c0.5,0.5,0.5,1.4,0,1.9L17.1,8.8z"/>
</svg>
