<?xml version="1.0" encoding="utf-8"?>
<!-- Generator: Adobe Illustrator 28.0.0, SVG Export Plug-In . SVG Version: 6.00 Build 0)  -->
<svg version="1.1" id="Layer_1" xmlns="http://www.w3.org/2000/svg" xmlns:xlink="http://www.w3.org/1999/xlink" x="0px" y="0px"
	 viewBox="0 0 24 24" style="enable-background:new 0 0 24 24;" xml:space="preserve">
<style type="text/css">
	.st0{fill:#888888;}
</style>
<g>
	<path class="st0" d="M11.4,19.3c-4.5,0-8.1-3.7-8.1-8.1S6.9,3,11.4,3s8.1,3.7,8.1,8.1S15.9,19.3,11.4,19.3z M11.4,4.5
		c-3.7,0-6.7,3-6.7,6.7s3,6.7,6.7,6.7s6.7-3,6.7-6.7S15.1,4.5,11.4,4.5z"/>
	<path class="st0" d="M15.8,11.9c-0.4,0-0.7-0.3-0.7-0.7c0-2-1.6-3.7-3.7-3.7c-0.4,0-0.7-0.3-0.7-0.7C10.7,6.3,11,6,11.4,6
		c2.8,0,5.1,2.3,5.1,5.1C16.5,11.5,16.2,11.9,15.8,11.9L15.8,11.9z"/>
	<path class="st0" d="M20,21c-0.2,0-0.4-0.1-0.5-0.2l-2.2-2.1c-0.3-0.3-0.3-0.7,0-1c0,0,0,0,0,0c0.3-0.3,0.7-0.3,1,0c0,0,0,0,0,0
		l2.2,2.1c0.3,0.3,0.3,0.7,0,1C20.4,20.9,20.2,21,20,21z"/>
</g>
</svg>
