<?xml version="1.0" encoding="utf-8"?>
<!-- Generator: Adobe Illustrator 28.0.0, SVG Export Plug-In . SVG Version: 6.00 Build 0)  -->
<svg version="1.1" id="Layer_1" xmlns="http://www.w3.org/2000/svg" xmlns:xlink="http://www.w3.org/1999/xlink" x="0px" y="0px"
	 viewBox="0 0 24 24" style="enable-background:new 0 0 24 24;" xml:space="preserve">
<style type="text/css">
	.st0{fill:#888888;}
</style>
<path class="st0" d="M18.9,13.2V19c0,0.2-0.1,0.4-0.2,0.5c-0.2,0.2-0.3,0.2-0.5,0.2h-4.6v-4.6h-3.1v4.6H5.9c-0.2,0-0.4-0.1-0.5-0.2
	c-0.2-0.2-0.2-0.3-0.2-0.5v-5.8l0,0l0,0L12,7.4L18.9,13.2C18.9,13.1,18.9,13.1,18.9,13.2L18.9,13.2z M21.6,12.3l-0.7,0.9
	c-0.1,0.1-0.1,0.1-0.3,0.1l0,0c-0.1,0-0.2,0-0.3-0.1L12,6.4l-8.3,6.9c-0.1,0.1-0.2,0.1-0.3,0.1s-0.2-0.1-0.3-0.1l-0.7-0.9
	c-0.1-0.1-0.1-0.2-0.1-0.3s0.1-0.2,0.1-0.3L11,4.6c0.3-0.2,0.6-0.3,0.9-0.3c0.4,0,0.7,0.1,0.9,0.3L15.7,7V4.7c0-0.1,0-0.2,0.1-0.3
	c0.1-0.1,0.2-0.1,0.3-0.1h2.3c0.1,0,0.2,0,0.3,0.1c0.1,0.1,0.1,0.2,0.1,0.3v4.9l2.6,2.2c0.1,0.1,0.1,0.1,0.1,0.3
	C21.7,12.2,21.6,12.3,21.6,12.3z"/>
</svg>
