<?xml version="1.0" encoding="utf-8"?>
<!-- Generator: Adobe Illustrator 28.0.0, SVG Export Plug-In . SVG Version: 6.00 Build 0)  -->
<svg version="1.1" id="Layer_1" xmlns="http://www.w3.org/2000/svg" xmlns:xlink="http://www.w3.org/1999/xlink" x="0px" y="0px"
	 viewBox="0 0 24 24" style="enable-background:new 0 0 24 24;" xml:space="preserve">
<style type="text/css">
	.st0{fill:#888888;}
</style>
<path class="st0" d="M15.7,9.5l3.1-3.1l-1.1-1.1l-3.1,3.1L15.7,9.5z M20.4,6.4c0,0.2-0.1,0.4-0.2,0.5L6.6,20.5
	c-0.1,0.1-0.3,0.2-0.5,0.2c-0.2,0-0.4-0.1-0.5-0.2l-2.1-2.1c-0.1-0.1-0.2-0.3-0.2-0.5c0-0.2,0.1-0.4,0.2-0.5L17.2,3.8
	c0.1-0.1,0.3-0.2,0.5-0.2s0.4,0.1,0.5,0.2l2.1,2.1C20.3,6,20.4,6.2,20.4,6.4L20.4,6.4z M6.1,4.4l1,0.3L6.1,5L5.7,6L5.4,5l-1-0.3
	l1-0.3l0.3-1L6.1,4.4z M9.8,6.1l2.1,0.6L9.8,7.3L9.1,9.4L8.5,7.3L6.4,6.7l2.1-0.6L9.1,4L9.8,6.1z M19.6,11.1l1,0.3l-1,0.3l-0.3,1
	l-0.3-1l-1-0.3l1-0.3l0.3-1L19.6,11.1z M12.9,4.4l1,0.3l-1,0.3l-0.3,1l-0.3-1l-1-0.3l1-0.3l0.3-1L12.9,4.4z"/>
</svg>
