<?xml version="1.0" encoding="utf-8"?>
<!-- Generator: Adobe Illustrator 24.2.0, SVG Export Plug-In . SVG Version: 6.00 Build 0)  -->
<svg version="1.1" id="图层_1" xmlns="http://www.w3.org/2000/svg" xmlns:xlink="http://www.w3.org/1999/xlink" x="0px" y="0px"
	 viewBox="0 0 24 24" style="enable-background:new 0 0 24 24;" xml:space="preserve">
<style type="text/css">
	.st0{fill:#888888;}
</style>
<path class="st0" d="M20.4,19.7H17c2.5-1.6,4.2-4.5,4.2-7.7c0-5.1-4.1-9.2-9.2-9.2S2.8,6.9,2.8,12s4.1,9.2,9.2,9.2h8.4
	c0.4,0,0.7-0.3,0.7-0.7C21.2,20,20.8,19.7,20.4,19.7z M15.4,6.9c1,0,1.8,0.8,1.8,1.8s-0.8,1.8-1.8,1.8s-1.8-0.8-1.8-1.8
	S14.4,6.9,15.4,6.9z M8.6,17.1c-1,0-1.8-0.8-1.8-1.8s0.8-1.8,1.8-1.8s1.8,0.8,1.8,1.8S9.6,17.1,8.6,17.1z M8.6,10.4
	c-1,0-1.8-0.8-1.8-1.8s0.8-1.8,1.8-1.8s1.8,0.8,1.8,1.8S9.6,10.4,8.6,10.4z M12,13.4c-0.8,0-1.4-0.6-1.4-1.4s0.6-1.4,1.4-1.4
	s1.4,0.6,1.4,1.4S12.8,13.4,12,13.4z M15.4,17.1c-1,0-1.8-0.8-1.8-1.8s0.8-1.8,1.8-1.8s1.8,0.8,1.8,1.8S16.3,17.1,15.4,17.1z"/>
</svg>
