<?xml version="1.0" encoding="utf-8"?>
<!-- Generator: Adobe Illustrator 24.2.0, SVG Export Plug-In . SVG Version: 6.00 Build 0)  -->
<svg version="1.1" id="图层_1" xmlns="http://www.w3.org/2000/svg" xmlns:xlink="http://www.w3.org/1999/xlink" x="0px" y="0px"
	 viewBox="0 0 24 24" style="enable-background:new 0 0 24 24;" xml:space="preserve">
<style type="text/css">
	.st0{fill:#888888;}
</style>
<path class="st0" d="M15.8,4.3l-1.5,0.3L14,3.1c-0.1-0.3-0.3-0.5-0.6-0.4L9.5,3.3C9.3,3.4,9.1,3.6,9.1,3.9l0.3,1.5l-5.4,1l0.4,2.1
	l15.7-2.8l-0.4-2.1L15.8,4.3z M12.8,4.8l-1.9,0.3l-0.1-0.7l1.9-0.3L12.8,4.8z M5.1,8.4l1.1,10.9c0,1.1,1,2.1,2.3,2.1h7
	c1.3,0,2.3-0.9,2.3-2.1l1.1-10.9C18.9,8.4,5.1,8.4,5.1,8.4z M16.7,15.6c0,0.2-0.2,0.4-0.4,0.4c-0.1,0-0.2,0-0.3-0.1L15.3,15
	c-2.1,2.1-4.9,2.3-6.9,0.7c-0.5-0.5-0.9-0.9-1.5-1.7c3.4,2.4,6.3-0.2,6.7-0.7l-0.8-0.8h0c-0.1-0.1-0.1-0.2-0.1-0.3c0,0,0,0,0,0
	c0-0.2,0.2-0.3,0.4-0.3l3.8-0.4c0.1,0,0.2,0,0.3,0.1c0.1,0.1,0.1,0.2,0.1,0.3L16.7,15.6L16.7,15.6z"/>
</svg>
