<?xml version="1.0" encoding="utf-8"?>
<!-- Generator: Adobe Illustrator 28.0.0, SVG Export Plug-In . SVG Version: 6.00 Build 0)  -->
<svg version="1.1" id="Layer_1" xmlns="http://www.w3.org/2000/svg" xmlns:xlink="http://www.w3.org/1999/xlink" x="0px" y="0px"
	 viewBox="0 0 24 24" style="enable-background:new 0 0 24 24;" xml:space="preserve">
<style type="text/css">
	.st0{fill:#F2C97D;}
</style>
<path class="st0" d="M12,2.4c-5.3,0-9.6,4.3-9.6,9.6s4.3,9.6,9.6,9.6s9.6-4.3,9.6-9.6S17.3,2.4,12,2.4z M12,17.8c-0.5,0-1-0.4-1-1
	c0-0.5,0.4-1,1-1s1,0.4,1,1C13,17.3,12.5,17.8,12,17.8z M12.6,13.8c0,0.4-0.2,0.6-0.6,0.6s-0.6-0.2-0.6-0.6V7.2
	c0-0.4,0.2-0.6,0.6-0.6s0.6,0.2,0.6,0.6V13.8z"/>
</svg>
