<?xml version="1.0" encoding="utf-8"?>
<!-- Generator: Adobe Illustrator 28.0.0, SVG Export Plug-In . SVG Version: 6.00 Build 0)  -->
<svg version="1.1" id="Layer_1" xmlns="http://www.w3.org/2000/svg" xmlns:xlink="http://www.w3.org/1999/xlink" x="0px" y="0px"
	 viewBox="0 0 24 24" style="enable-background:new 0 0 24 24;" xml:space="preserve">
<style type="text/css">
	.st0{fill:#888888;}
</style>
<path class="st0" d="M7.3,19.5l1.1-1.1l-2.8-2.8l-1.1,1.1v1.3h1.5v1.5L7.3,19.5L7.3,19.5z M13.5,8.5c0-0.2-0.1-0.3-0.3-0.3
	c-0.1,0-0.1,0-0.2,0.1l-6.4,6.4c-0.1,0.1-0.1,0.1-0.1,0.2c0,0.2,0.1,0.3,0.3,0.3c0.1,0,0.1,0,0.2-0.1l6.4-6.4
	C13.5,8.6,13.5,8.5,13.5,8.5z M12.9,6.2l4.9,4.9L8,21H3V16L12.9,6.2z M21,7.3c0,0.4-0.1,0.8-0.4,1.1l-2,2l-4.9-4.9l2-2
	C15.9,3.2,16.2,3,16.7,3c0.4,0,0.8,0.2,1.1,0.5l2.8,2.8C20.8,6.6,21,6.9,21,7.3L21,7.3z"/>
</svg>
