<?xml version="1.0" encoding="utf-8"?>
<!-- Generator: Adobe Illustrator 28.0.0, SVG Export Plug-In . SVG Version: 6.00 Build 0)  -->
<svg version="1.1" id="图层_1" xmlns="http://www.w3.org/2000/svg" xmlns:xlink="http://www.w3.org/1999/xlink" x="0px" y="0px"
	 viewBox="0 0 24 24" style="enable-background:new 0 0 24 24;" xml:space="preserve">
<style type="text/css">
	.st0{fill:#888888;}
</style>
<path class="st0" d="M15,21c5.1-1.7,8-7.8,5.3-13.1C17,1.6,8,1.2,4.2,7.2C0.8,12.5,3.5,19.3,9.1,21c0.5,0.1,0.6-0.2,0.6-0.4
	c0-0.2,0-1,0-1.7c-2.6,0.6-3.1-1.1-3.1-1.1c-0.4-1.1-1-1.4-1-1.4c-0.8-0.6,0.1-0.6,0.1-0.6c0.9,0.1,1.4,1,1.4,1
	c0.8,1.4,2.2,1,2.7,0.8c0.1-0.6,0.3-1,0.6-1.2c-2.1-0.2-4.2-1-4.2-4.6c0-1,0.4-1.8,1-2.5C6.9,9,6.6,8,7.1,6.8c0,0,0.8-0.2,2.6,1
	c1.5-0.4,3.1-0.4,4.7,0c1.8-1.2,2.6-1,2.6-1C17.4,8,17.1,9,17,9.2c0.6,0.7,1,1.5,1,2.5c0,3.6-2.2,4.4-4.2,4.6
	c0.3,0.3,0.6,0.9,0.6,1.7c0,1.2,0,2.2,0,2.6C14.3,20.8,14.5,21.1,15,21z"/>
</svg>
