<?xml version="1.0" encoding="utf-8"?>
<!-- Generator: Adobe Illustrator 28.0.0, SVG Export Plug-In . SVG Version: 6.00 Build 0)  -->
<svg version="1.1" id="Layer_1" xmlns="http://www.w3.org/2000/svg" xmlns:xlink="http://www.w3.org/1999/xlink" x="0px" y="0px"
	 viewBox="0 0 24 24" style="enable-background:new 0 0 24 24;" xml:space="preserve">
<style type="text/css">
	.st0{fill:#888888;}
	.st1{fill:#888888;enable-background:new    ;}
</style>
<g>
	<path class="st0" d="M17.2,4.5l-0.1,3.7c0,0.5,0.3,1.2,0.7,1.5l2.4,1.8c1.5,1.2,1.3,2.6-0.6,3.2l-3.1,1c-0.5,0.2-1.1,0.7-1.2,1.3
		l-0.7,2.8c-0.6,2.2-2.1,2.5-3.3,0.5l-1.7-2.8c-0.3-0.5-1-0.9-1.6-0.9l-3.2,0.2c-2.3,0.1-3-1.2-1.5-3l1.9-2.2
		c0.4-0.4,0.5-1.2,0.4-1.7l-1-3.1C4.1,4.9,5.1,3.9,6.9,4.5l2.9,0.9c0.5,0.2,1.2,0,1.6-0.3l3-2.1C16,1.9,17.3,2.5,17.2,4.5z"/>
	<path class="st1" d="M21.2,20.3l-2.9-2.9c-0.3-0.3-0.7-0.3-1,0c-0.3,0.3-0.3,0.7,0,1l2.9,2.9c0.1,0.1,0.3,0.2,0.5,0.2
		s0.4-0.1,0.5-0.2C21.5,21,21.5,20.6,21.2,20.3L21.2,20.3z"/>
</g>
</svg>
