<?xml version="1.0" encoding="utf-8"?>
<!-- Generator: Adobe Illustrator 28.0.0, SVG Export Plug-In . SVG Version: 6.00 Build 0)  -->
<svg version="1.1" id="Layer_1" xmlns="http://www.w3.org/2000/svg" xmlns:xlink="http://www.w3.org/1999/xlink" x="0px" y="0px"
	 viewBox="0 0 24 24" style="enable-background:new 0 0 24 24;" xml:space="preserve">
<style type="text/css">
	.st0{fill:#90A4AE;}
</style>
<path class="st0" d="M21.3,6.1l-0.9,8.7L12,21.5l-8.4-6.6L2.7,6.2L12,11L21.3,6.1z M9.7,5.2c0-0.8-2.2-1.3-4-0.9S4,5.7,5.8,6.1
	C7.5,6.5,9.7,6,9.7,5.2z M19.5,5.3c0-0.9-2.2-1.4-4-1c-1.8,0.4-1.8,1.5,0,2C17.3,6.7,19.5,6.1,19.5,5.3z M15,7.7
	c0-1-2.5-1.6-4.4-1.1s-2,1.8,0,2.3C12.5,9.3,15,8.7,15,7.7z M14.5,3.5c0-0.8-2-1.3-3.7-0.9s-1.6,1.3,0,1.7S14.5,4.3,14.5,3.5z"/>
</svg>
