<?xml version="1.0" encoding="utf-8"?>
<!-- Generator: Adobe Illustrator 16.0.0, SVG Export Plug-In . SVG Version: 6.00 Build 0)  -->
<!DOCTYPE svg PUBLIC "-//W3C//DTD SVG 1.1//EN" "http://www.w3.org/Graphics/SVG/1.1/DTD/svg11.dtd">
<svg version="1.1" id="图层_1" xmlns="http://www.w3.org/2000/svg" xmlns:xlink="http://www.w3.org/1999/xlink" x="0px" y="0px"
	 width="24px" height="24px" viewBox="-309.5 392.5 24 24" enable-background="new -309.5 392.5 24 24" xml:space="preserve">
<path fill="#CD6799" d="M-289.646,397.521c-0.563-2.173-4.252-2.888-7.74-1.677c-2.177,0.714-4.194,1.846-5.938,3.333
	c-1.92,1.757-2.228,3.286-2.102,3.926c0.447,2.256,3.606,3.729,4.908,4.824c-0.383,0.184-3.186,1.57-3.843,2.99
	c-0.583,0.883-0.34,2.071,0.542,2.653c0.033,0.022,0.065,0.042,0.099,0.063c1.627,0.386,3.324-0.286,4.243-1.684
	c0.736-1.109,0.893-2.505,0.424-3.749c0.625-0.155,1.275-0.19,1.915-0.106c2.195,0.251,2.626,1.586,2.544,2.152
	c-0.082,0.407-0.336,0.759-0.697,0.961c-0.154,0.097-0.201,0.127-0.188,0.195c0.019,0.101,0.09,0.097,0.222,0.077
	c0.666-0.205,1.139-0.799,1.189-1.493c0.053-1.316-1.235-2.786-3.518-2.749c-0.662-0.019-1.324,0.071-1.958,0.266l-0.097-0.106
	c-1.406-1.469-4.015-2.512-3.904-4.489c0.04-0.72,0.296-2.615,5.009-4.911c3.861-1.883,6.953-1.364,7.486-0.217
	c0.764,1.641-1.652,4.688-5.662,5.128c-0.896,0.179-1.825-0.051-2.532-0.63c-0.21-0.227-0.242-0.236-0.322-0.192
	c-0.132,0.068-0.045,0.264,0,0.39c0.315,0.553,0.84,0.952,1.454,1.115c1.576,0.334,3.218,0.176,4.701-0.456
	C-290.986,402.218-289.089,399.66-289.646,397.521 M-299.982,408.601c0.177,0.6,0.168,1.237-0.027,1.829
	c-0.021,0.063-0.044,0.124-0.068,0.186c-0.025,0.06-0.051,0.12-0.08,0.178c-0.151,0.302-0.346,0.579-0.578,0.824
	c-0.51,0.669-1.355,0.988-2.18,0.824c-0.471-0.265-0.235-1.362,0.608-2.233c0.65-0.627,1.397-1.148,2.211-1.541L-299.982,408.601z"
	/>
</svg>
