<?xml version="1.0" encoding="utf-8"?>
<!-- Generator: Adobe Illustrator 16.0.0, SVG Export Plug-In . SVG Version: 6.00 Build 0)  -->
<!DOCTYPE svg PUBLIC "-//W3C//DTD SVG 1.1//EN" "http://www.w3.org/Graphics/SVG/1.1/DTD/svg11.dtd">
<svg version="1.1" id="图层_1" xmlns="http://www.w3.org/2000/svg" xmlns:xlink="http://www.w3.org/1999/xlink" x="0px" y="0px"
	 width="24px" height="24px" viewBox="-305.5 396.5 24 24" enable-background="new -305.5 396.5 24 24" xml:space="preserve">
<path fill="#8069F3" d="M-285.099,408.525l-3.984,3.822l3.984,3.817 M-285.502,408.141h-7.968l3.984,3.82 M-285.502,407.594
	l-3.984-3.818l-3.982,3.818 M-290.174,403.664h-7.965l3.982,3.818 M-285.099,399.572l-3.984,3.818l3.984,3.819 M-290.174,403.119
	l-3.983-3.818l-3.982,3.818 M-294.846,399.188h-7.966l3.984,3.818 M-301.899,408.475l3.983-3.826l-3.983-3.813 M-297.512,405.041
	l-3.982,3.816h7.965 M-301.495,409.402l3.981,3.82l3.987-3.82 M-301.899,409.789v7.637l3.983-3.818l-1.167-1.116 M-288.859,413.336
	l-3.981-3.818l-3.982,3.818 M-296.823,413.881l3.981,3.818l3.982-3.818 M-288.171,413.992l-3.981,3.82h7.964"/>
</svg>
