<?xml version="1.0" encoding="utf-8"?>
<!-- Generator: Adobe Illustrator 16.0.0, SVG Export Plug-In . SVG Version: 6.00 Build 0)  -->
<!DOCTYPE svg PUBLIC "-//W3C//DTD SVG 1.1//EN" "http://www.w3.org/Graphics/SVG/1.1/DTD/svg11.dtd">
<svg version="1.1" id="图层_1" xmlns="http://www.w3.org/2000/svg" xmlns:xlink="http://www.w3.org/1999/xlink" x="0px" y="0px"
	 width="24px" height="24px" viewBox="-305.5 396.5 24 24" enable-background="new -305.5 396.5 24 24" xml:space="preserve">
<g>
	<path fill="#FAF5FF" stroke="#834DF0" d="M-299.833,399.791h12.667c1.311,0,2.375,1.064,2.375,2.375v12.668
		c0,1.311-1.064,2.375-2.375,2.375h-12.667c-1.312,0-2.375-1.064-2.375-2.375v-12.668
		C-302.208,400.855-301.146,399.791-299.833,399.791z"/>
	<path fill="#834DF0" d="M-297.229,413.25h-1.739v-9.975h2.258l3.057,7.203l0.17,0.557l0.164-0.557l2.993-7.203h2.285v9.975h-1.742
		v-7.098l0.021-0.377l-3.101,7.475h-1.303l-3.085-7.424l0.022,0.326V413.25L-297.229,413.25z"/>
</g>
</svg>
