<?xml version="1.0" encoding="utf-8"?>
<!-- Generator: Adobe Illustrator 16.0.0, SVG Export Plug-In . SVG Version: 6.00 Build 0)  -->
<!DOCTYPE svg PUBLIC "-//W3C//DTD SVG 1.1//EN" "http://www.w3.org/Graphics/SVG/1.1/DTD/svg11.dtd">
<svg version="1.1" id="图层_1" xmlns="http://www.w3.org/2000/svg" xmlns:xlink="http://www.w3.org/1999/xlink" x="0px" y="0px"
	 width="24px" height="24px" viewBox="294 384 24 24" enable-background="new 294 384 24 24" xml:space="preserve">
<path fill="#FFCA28" d="M306,386.292c-4.768,0-8.629,1.931-8.629,4.314c0,2.385,3.862,4.314,8.629,4.314s8.629-1.93,8.629-4.314
	C314.629,388.223,310.768,386.292,306,386.292 M297.371,392.765v3.234c0,2.385,3.862,4.316,8.629,4.316s8.629-1.932,8.629-4.316
	v-3.234c0,2.384-3.861,4.314-8.629,4.314S297.371,395.148,297.371,392.765 M297.371,398.157v3.238c0,2.381,3.862,4.313,8.629,4.313
	s8.629-1.932,8.629-4.313v-3.238c0,2.385-3.861,4.315-8.629,4.315S297.371,400.542,297.371,398.157z"/>
</svg>
