<?xml version="1.0" encoding="utf-8"?>
<!-- Generator: Adobe Illustrator 16.0.0, SVG Export Plug-In . SVG Version: 6.00 Build 0)  -->
<!DOCTYPE svg PUBLIC "-//W3C//DTD SVG 1.1//EN" "http://www.w3.org/Graphics/SVG/1.1/DTD/svg11.dtd">
<svg version="1.1" id="图层_1" xmlns="http://www.w3.org/2000/svg" xmlns:xlink="http://www.w3.org/1999/xlink" x="0px" y="0px"
	 width="24px" height="24px" viewBox="-309.5 392.5 24 24" enable-background="new -309.5 392.5 24 24" xml:space="preserve">
<g>
	<path fill="#EEE0FF" d="M-293.074,397.546c0-0.089,0.006-0.176,0.017-0.261l-3.82-2.184c-0.778-0.444-1.732-0.444-2.509,0
		l-6.323,3.612c-0.788,0.451-1.274,1.289-1.274,2.196v7.18c0,0.908,0.486,1.745,1.274,2.196l6.323,3.612
		c0.777,0.444,1.731,0.444,2.509,0l3.82-2.184c-0.012-0.086-0.017-0.174-0.017-0.261v-0.632h-0.632c-1.047,0-1.896-0.85-1.896-1.897
		c0-1.046,0.85-1.896,1.896-1.896h0.632v-5.059h-0.632c-1.047,0-1.896-0.85-1.896-1.896c0-1.048,0.85-1.897,1.896-1.897h0.632
		V397.546z"/>
	<path fill="#955AE0" d="M-290.545,397.546c0-0.35-0.283-0.634-0.632-0.634c-0.35,0-0.633,0.284-0.633,0.634v1.896h-1.896
		c-0.35,0-0.633,0.282-0.633,0.633c0,0.35,0.283,0.632,0.633,0.632h1.896v1.896c0,0.349,0.283,0.633,0.633,0.633
		c0.349,0,0.632-0.284,0.632-0.633v-1.896h1.896c0.35,0,0.632-0.282,0.632-0.632c0-0.351-0.282-0.633-0.632-0.633h-1.896V397.546z
		 M-290.545,406.396c0-0.348-0.283-0.632-0.632-0.632c-0.35,0-0.633,0.284-0.633,0.632v1.896h-1.896
		c-0.35,0-0.633,0.282-0.633,0.632c0,0.351,0.283,0.633,0.633,0.633h1.896v1.896c0,0.35,0.283,0.634,0.633,0.634
		c0.349,0,0.632-0.284,0.632-0.634v-1.896h1.896c0.35,0,0.632-0.282,0.632-0.633c0-0.35-0.282-0.632-0.632-0.632h-1.896V406.396z"/>
	<path fill="#955AE0" d="M-306.983,400.909c0-0.908,0.486-1.745,1.274-2.195l6.323-3.612c0.777-0.444,1.731-0.444,2.509,0
		l3.82,2.184c-0.012,0.085-0.017,0.172-0.017,0.261v0.632h-0.632c-0.101,0-0.2,0.008-0.296,0.022l-3.502-2
		c-0.389-0.223-0.866-0.223-1.255,0l-6.321,3.612c-0.396,0.226-0.638,0.644-0.638,1.098v7.18c0,0.454,0.242,0.873,0.638,1.098
		l6.321,3.612c0.389,0.223,0.866,0.223,1.255,0l3.502-2c0.096,0.015,0.195,0.022,0.296,0.022h0.632v0.632
		c0,0.089,0.006,0.177,0.017,0.261l-3.82,2.184c-0.778,0.444-1.732,0.444-2.509,0l-6.323-3.612
		c-0.788-0.451-1.274-1.288-1.274-2.196V400.909z"/>
	<path fill="#955AE0" d="M-297.965,408.925c1.885,0,3.498-1.138,3.894-2.749h-1.282c-0.399,0.922-1.384,1.583-2.612,1.583
		c-1.693,0-2.915-1.357-2.915-3.259s1.222-3.259,2.915-3.259c1.228,0,2.213,0.661,2.612,1.583h1.282
		c-0.396-1.611-2.009-2.749-3.894-2.749c-2.426,0-4.229,1.889-4.229,4.425S-300.392,408.925-297.965,408.925"/>
</g>
</svg>
