<?xml version="1.0" encoding="utf-8"?>
<!-- Generator: Adobe Illustrator 28.0.0, SVG Export Plug-In . SVG Version: 6.00 Build 0)  -->
<svg version="1.1" id="Layer_1" xmlns="http://www.w3.org/2000/svg" xmlns:xlink="http://www.w3.org/1999/xlink" x="0px" y="0px"
	 viewBox="0 0 24 24" style="enable-background:new 0 0 24 24;" xml:space="preserve">
<style type="text/css">
	.st0{fill:#497CE3;}
</style>
<path class="st0" d="M21.5,6l-0.9,8.8L12,21.7l-8.6-6.7L2.5,6.1L12,11L21.5,6z M9.7,5.1c0-0.8-2.2-1.3-4-0.9C3.9,4.6,3.9,5.6,5.7,6
	S9.7,5.9,9.7,5.1z M19.6,5.2c0-0.9-2.2-1.5-4-1s-1.8,1.6,0,2S19.6,6,19.6,5.2z M15,7.6c0-1-2.5-1.7-4.5-1.1s-2,1.8,0,2.3
	C12.5,9.3,15,8.7,15,7.6z M14.5,3.4c0-0.8-2.1-1.3-3.7-0.9s-1.7,1.4,0,1.8S14.5,4.1,14.5,3.4z"/>
</svg>
