<?xml version="1.0" encoding="utf-8"?>
<!-- Generator: Adobe Illustrator 16.0.0, SVG Export Plug-In . SVG Version: 6.00 Build 0)  -->
<!DOCTYPE svg PUBLIC "-//W3C//DTD SVG 1.1//EN" "http://www.w3.org/Graphics/SVG/1.1/DTD/svg11.dtd">
<svg version="1.1" id="图层_1" xmlns="http://www.w3.org/2000/svg" xmlns:xlink="http://www.w3.org/1999/xlink" x="0px" y="0px"
	 width="24px" height="24px" viewBox="-309.5 392.5 24 24" enable-background="new -309.5 392.5 24 24" xml:space="preserve">
<path fill="#376EC6" d="M-289.207,396.413h-16.587c-0.753-0.009-1.371,0.593-1.382,1.346v13.482c0.01,0.753,0.628,1.355,1.382,1.347
	l0,0h16.587c0.753,0.01,1.373-0.592,1.383-1.347l0,0V397.76c-0.009-0.754-0.628-1.357-1.382-1.349h-0.001V396.413z M-304.412,405.85
	l2.766-2.696l-2.766-2.698l1.383-1.35l4.147,4.045l-4.147,4.045L-304.412,405.85z M-293.353,407.195h-5.529v-1.346h5.529V407.195z"
	/>
</svg>
