<?xml version="1.0" encoding="utf-8"?>
<!-- Generator: Adobe Illustrator 28.0.0, SVG Export Plug-In . SVG Version: 6.00 Build 0)  -->
<svg version="1.1" id="Layer_1" xmlns="http://www.w3.org/2000/svg" xmlns:xlink="http://www.w3.org/1999/xlink" x="0px" y="0px"
	 viewBox="0 0 24 24" style="enable-background:new 0 0 24 24;" xml:space="preserve">
<style type="text/css">
	.st0{fill:#FFC107;}
	.st1{fill:#0F9D58;}
	.st2{fill:#DB4437;}
	.st3{fill:#4285F4;}
</style>
<g>
	<g transform="matrix(0.20299377110908937,0,0,0.20299377110908937,0.643549342643837,245.0408342001066)">
		<polygon class="st0" points="83.9,-1114.3 92.3,-1128.9 81.3,-1148 61.8,-1114.3 		"/>
		<path class="st1" d="M101.5-1144.9c1.1-2,1.1-4.4,0-6.3l-17.6-30.6H61.8l30.5,52.9C92.3-1128.9,101.5-1144.9,101.5-1144.9z"/>
	</g>
	<polygon class="st2" points="6.3,5.1 4.6,8.1 6.9,12 10.8,5.1 	"/>
	<g transform="matrix(0.20299377110908937,0,0,0.20299377110908937,0.643549342643837,245.0408342001066)">
		<path class="st3" d="M10.4-1151.2c-1.1,2-1.1,4.4,0,6.3l17.6,30.6h22.1l-30.5-52.9C19.6-1167.2,10.4-1151.2,10.4-1151.2z"/>
	</g>
</g>
</svg>
