<?xml version="1.0" encoding="utf-8"?>
<!-- Generator: Adobe Illustrator 16.0.0, SVG Export Plug-In . SVG Version: 6.00 Build 0)  -->
<!DOCTYPE svg PUBLIC "-//W3C//DTD SVG 1.1//EN" "http://www.w3.org/Graphics/SVG/1.1/DTD/svg11.dtd">
<svg version="1.1"
	 id="svg16" xmlns:inkscape="http://www.inkscape.org/namespaces/inkscape" xmlns:sodipodi="http://sodipodi.sourceforge.net/DTD/sodipodi-0.dtd" xmlns:svg="http://www.w3.org/2000/svg" inkscape:version="1.2.2 (732a01da63, 2022-12-09)" sodipodi:docname="msexcel-2019.svg"
	 xmlns="http://www.w3.org/2000/svg" xmlns:xlink="http://www.w3.org/1999/xlink" x="0px" y="0px" width="24px" height="24px"
	 viewBox="0 0 24 24" enable-background="new 0 0 24 24" xml:space="preserve">
<sodipodi:namedview  id="namedview18" bordercolor="#000000" inkscape:cy="8.7343467" pagecolor="#ffffff" inkscape:cx="7.9700914" inkscape:zoom="18.318485" showgrid="false" borderopacity="0.25" inkscape:current-layer="svg16" inkscape:window-y="-8" inkscape:window-x="-8" inkscape:window-height="1009" inkscape:window-width="1920" inkscape:deskcolor="#d1d1d1" inkscape:pageopacity="0.0" inkscape:showpageshadow="2" inkscape:window-maximized="1" inkscape:pagecheckerboard="0">
	</sodipodi:namedview>
<g id="g310" transform="matrix(1.3223684,0,0,1.3223684,1.4210528,1.4210528)">
	<path id="path2" fill="#21A366" d="M9.824,0.704H4.352c-0.504,0-0.912,0.408-0.912,0.912l0,0v2.736L9.824,8l2.735,1.795L15.296,8
		V4.352L9.824,0.704z"/>
	<path id="path4" fill="#107C41" d="M3.44,8v3.648l6.384,1.277l5.472-1.277V8H3.44z"/>
	<path id="path6" fill="#185C37" d="M3.44,11.648v2.735c0,0.504,0.408,0.913,0.912,0.913h10.032c0.504,0,0.913-0.409,0.913-0.913
		v-2.735H3.44z"/>
	<path id="path8" opacity="0.5" enable-background="new    " d="M9.824,4.352H3.44v9.12h5.472c1.007,0,1.824-0.817,1.824-1.824l0,0
		V5.264C10.736,4.76,10.328,4.352,9.824,4.352L9.824,4.352z"/>
	<path id="rect10" fill="#107C41" d="M1.616,3.44h7.296c0.504,0,0.912,0.408,0.912,0.912v7.296c0,0.504-0.408,0.912-0.912,0.912
		H1.616c-0.504,0-0.912-0.408-0.912-0.912V4.352C0.704,3.848,1.112,3.44,1.616,3.44z"/>
	<path id="path12" fill="#FFFFFF" d="M2.794,10.736l1.771-2.744L2.943,5.264h1.305l0.885,1.743c0.082,0.166,0.139,0.29,0.168,0.37
		h0.011c0.061-0.131,0.121-0.259,0.182-0.385l0.947-1.728H7.64L5.977,7.977l1.705,2.759H6.406L5.385,8.821
		C5.337,8.739,5.296,8.653,5.264,8.564H5.249c-0.031,0.087-0.071,0.17-0.12,0.248l-1.05,1.924H2.794z"/>
	<path id="path14" fill="#33C481" d="M15.296,1.616v2.736H9.824V0.704h4.559C14.887,0.704,15.296,1.112,15.296,1.616z"/>
</g>
</svg>
