<?xml version="1.0" encoding="utf-8"?>
<!-- Generator: Adobe Illustrator 16.0.0, SVG Export Plug-In . SVG Version: 6.00 Build 0)  -->
<!DOCTYPE svg PUBLIC "-//W3C//DTD SVG 1.1//EN" "http://www.w3.org/Graphics/SVG/1.1/DTD/svg11.dtd">
<svg version="1.1" id="图层_1" xmlns="http://www.w3.org/2000/svg" xmlns:xlink="http://www.w3.org/1999/xlink" x="0px" y="0px"
	 width="24px" height="24px" viewBox="-309.5 392.5 24 24" enable-background="new -309.5 392.5 24 24" xml:space="preserve">
<path fill="#EB1C24" d="M-295.36,410.007c0.049,0.05,0.136,0.214,0.03,0.422c-0.058,0.111-0.123,0.188-0.235,0.279
	c-0.137,0.109-0.404,0.236-0.77,0.004c-0.199-0.126-0.211-0.169-0.482-0.131c-0.194,0.023-0.272-0.175-0.202-0.336
	s0.355-0.295,0.713-0.084c0.162,0.094,0.411,0.294,0.629,0.115c0.093-0.07,0.147-0.12,0.273-0.268
	C-295.394,409.999-295.377,409.997-295.36,410.007z M-296.381,399.337c0.164,0.046,0.352,0.076,0.553,0.081
	c0.625,0.014,1.14-0.211,1.141-0.502c0.003-0.31-0.518-0.53-1.076-0.552c-0.438-0.018-1.021,0.089-1.333,0.261
	c-0.032,0.017-0.017,0.056,0.014,0.056c0.065-0.007,0.108-0.017,0.197-0.024c0.603-0.061,1.109,0.038,1.135,0.223
	c0.02,0.14-0.243,0.286-0.631,0.376C-296.425,399.262-296.425,399.326-296.381,399.337z M-298.503,399.908
	c-0.475,0-0.813,0.062-1.108,0.068c-0.296,0.007-0.522-0.209-0.628-0.342c-0.087-0.106-0.366-0.211-0.518,0.138
	c-0.152,0.351,0.131,0.729,0.365,0.779c0,0,0.392,0.724,0.687,0.409c0.211-0.224,0.328-0.345,1.449-0.425
	c0.534-0.041,0.588-0.163,0.572-0.294C-297.702,400.087-298.022,399.908-298.503,399.908z M-304.408,408.336
	c0.367-0.188,0.869-0.12,1.11,0.285c0.142,0.242,0.271,0.387,0.431,0.488c0.139,0.089,0.328,0.162,0.599,0.149
	c0.128-0.006,0.321-0.036,0.371-0.171c0.055-0.15-0.013-0.268-0.201-0.344c-0.263-0.108-0.333-0.271-0.473-0.519
	c-0.14-0.247-0.443-0.378-0.489-0.844c-0.048-0.458,0.312-1.037,1.022-0.853c0.515,0.134,0.845,0.767,0.97,0.984
	c0.487,0.501,0.571-0.396,0.978,0.124c0.119,0.184,0.993,1.351,1.938,1.38c0.96,0.03,1.475-0.219,1.891-0.203
	c0.295,0.012,0.437,0.16,0.605,0.187c0.296,0.047,0.506-0.221,0.831-0.204c0.263,0.014,0.551,0.189,0.847,0.189
	c0.293,0,0.915-0.357,0.906-0.211c-0.015,0.262-0.213,0.719-0.261,0.933c-0.035,0.146-0.005,0.501-0.094,0.786
	c-0.08,0.29-0.35,0.658-0.419,0.765c-0.238,0.354-0.411,0.463-0.606,0.835c-0.215,0.419-0.572,0.808-0.666,0.932
	c-0.119,0.16,0.673-0.006,0.954-0.271c0.239-0.227,0.657-0.909,1.318-1.053c0.85-0.252,0.279-0.431,0.556-0.632
	c0.775-0.313,1.831-0.405,2.946-0.17c0.987-1.521,1.56-3.332,1.56-5.277c0-5.363-4.35-9.711-9.714-9.711
	c-5.367,0-9.716,4.347-9.716,9.711c0,1.083,0.178,2.129,0.507,3.102C-305.792,408.739-305.194,408.73-304.408,408.336z
	 M-292.938,403.986c-0.04,0.07-0.007,0.143,0.083,0.098c0.607-0.311,0.743-0.723,0.84-1.046c1.651,0.373,2.627,1.23,2.416,2.393
	c-0.464,2.556-4.648,3.413-8.717,2.184c-6.419-1.939-9.82-6.202-3.709-5.835c-0.254,0.521-0.236,1.133,0.88,1.816
	c1.364,0.773,3.669,1.437,4.294,1.369c0.232-0.022,0.441-0.139,0.232-0.278c-0.21-0.139-0.396-0.418-0.513-0.905
	c-0.065-0.271-0.139-0.649-1.604-0.93c-3.144-0.599-3.022-1.487-2.93-1.999c0,0,0.278-1.255,0.396-1.697
	c0.116-0.441,0.416-1.453,2.44-0.998c1.17,0.265,1.802-0.063,2.124-0.145c0.875-0.227,1.845-0.072,2.379,0.479
	c0.553,0.569,1.316,2.326,1.681,3.64C-292.377,403.057-292.574,403.392-292.938,403.986z"/>
</svg>
