<?xml version="1.0" encoding="utf-8"?>
<!-- Generator: Adobe Illustrator 16.0.0, SVG Export Plug-In . SVG Version: 6.00 Build 0)  -->
<!DOCTYPE svg PUBLIC "-//W3C//DTD SVG 1.1//EN" "http://www.w3.org/Graphics/SVG/1.1/DTD/svg11.dtd">
<svg version="1.1" id="图层_1" xmlns="http://www.w3.org/2000/svg" xmlns:xlink="http://www.w3.org/1999/xlink" x="0px" y="0px"
	 width="24px" height="24px" viewBox="-309.5 392.5 24 24" enable-background="new -309.5 392.5 24 24" xml:space="preserve">
<g>
	<path fill="#D7E6FB" d="M-292.991,398.597c0,0.036,0.005,0.054,0.01,0.034c0.004-0.019,0.004-0.05,0-0.068
		C-292.986,398.543-292.991,398.56-292.991,398.597 M-298.603,405.424c-0.284,0.022-0.702,0.275-0.79,0.475
		c-0.005,0.013-0.035,0.062-0.066,0.109c-0.294,0.453-0.148,1.079,0.306,1.313c0.067,0.034,0.125,0.068,0.13,0.075
		c0.08,0.095,0.776,0.085,0.957-0.015c0.027-0.014,0.07-0.035,0.097-0.048c0.176-0.073,0.471-0.381,0.441-0.459
		c-0.011-0.028-0.02-0.026-0.075,0.017c-0.491,0.368-1.316-0.137-1.118-0.685c0.017-0.047,0.03-0.11,0.03-0.141
		s0.008-0.06,0.018-0.065c0.009-0.006,0.04-0.058,0.068-0.117c0.062-0.126,0.234-0.309,0.326-0.348
		c0.063-0.027,0.13-0.086,0.114-0.101C-298.185,405.42-298.461,405.412-298.603,405.424 M-307.235,405.804
		c0,0.017,0.009,0.03,0.02,0.03c0.011,0,0.02-0.014,0.02-0.03c0-0.015-0.009-0.028-0.02-0.028
		C-307.226,405.775-307.235,405.789-307.235,405.804 M-300.457,407.484c-0.075,0.038-0.145,0.076-0.155,0.086
		c-0.011,0.008-0.053,0.021-0.093,0.028c-0.04,0.008-0.073,0.021-0.073,0.03s-0.02,0.022-0.044,0.027
		c-0.053,0.017-0.221,0.084-0.288,0.119c-0.027,0.014-0.084,0.031-0.127,0.04c-0.043,0.007-0.095,0.024-0.117,0.038
		c-0.021,0.015-0.072,0.03-0.112,0.038c-0.041,0.009-0.078,0.021-0.083,0.031c-0.005,0.009-0.051,0.021-0.102,0.028
		c-0.051,0.008-0.137,0.029-0.19,0.048c-0.132,0.047-0.244,0.075-0.431,0.104c-0.087,0.014-0.167,0.031-0.18,0.039
		c-0.019,0.013-0.217,0.042-0.423,0.063c-0.032,0.003-0.12,0.014-0.195,0.026c-0.143,0.021-1.212,0.028-1.359,0.01
		c-0.217-0.027-0.522-0.072-0.611-0.089l-0.236-0.045c-0.076-0.016-0.155-0.036-0.176-0.047c-0.02-0.01-0.067-0.025-0.104-0.03
		c-0.038-0.008-0.099-0.027-0.137-0.045c-0.143-0.066-0.188-0.084-0.244-0.098c-0.032-0.006-0.072-0.023-0.087-0.037
		c-0.016-0.015-0.054-0.031-0.083-0.039c-0.029-0.006-0.063-0.026-0.076-0.04c-0.012-0.015-0.043-0.027-0.068-0.027
		c-0.054,0-0.044,0.04,0.063,0.265c0.037,0.077,0.066,0.151,0.066,0.164s0.018,0.046,0.039,0.072c0.022,0.029,0.04,0.063,0.04,0.076
		c0,0.017,0.008,0.027,0.019,0.027s0.025,0.024,0.032,0.054c0.007,0.03,0.025,0.069,0.042,0.088
		c0.031,0.036,0.063,0.086,0.105,0.171c0.014,0.027,0.032,0.058,0.04,0.067c0.008,0.013,0.041,0.055,0.073,0.098
		c0.025,0.035,0.051,0.069,0.078,0.103c0.011,0.013,0.02,0.028,0.02,0.036c0,0.036,0.333,0.419,0.524,0.6
		c0.131,0.125,0.162,0.152,0.287,0.258c0.063,0.053,0.118,0.104,0.122,0.112c0.004,0.007,0.017,0.014,0.028,0.014
		c0.012,0,0.04,0.016,0.062,0.037c0.06,0.054,0.395,0.274,0.417,0.274c0.011,0,0.022,0.008,0.026,0.018
		c0.008,0.023,0.616,0.335,0.651,0.335c0.014,0,0.037,0.012,0.051,0.026c0.014,0.014,0.052,0.031,0.084,0.039
		c0.033,0.009,0.113,0.04,0.179,0.071s0.163,0.067,0.214,0.08c0.052,0.012,0.103,0.028,0.114,0.037
		c0.011,0.008,0.05,0.02,0.087,0.028c0.038,0.007,0.086,0.025,0.108,0.039c0.022,0.014,0.088,0.031,0.146,0.039
		c0.059,0.007,0.118,0.023,0.131,0.033c0.014,0.012,0.084,0.031,0.156,0.045c0.073,0.014,0.176,0.035,0.229,0.049l0.215,0.049
		c0.064,0.015,0.2,0.038,0.301,0.05c0.102,0.012,0.198,0.03,0.214,0.04c0.017,0.009,0.149,0.024,0.294,0.036
		c0.144,0.009,0.311,0.026,0.37,0.036c0.184,0.033,1.384,0.028,1.599-0.007c0.101-0.017,0.294-0.036,0.43-0.047
		c0.136-0.009,0.264-0.025,0.286-0.036c0.021-0.012,0.115-0.027,0.208-0.034c0.202-0.017,0.201-0.044-0.003-0.107
		c-0.072-0.021-0.16-0.051-0.198-0.066c-0.038-0.015-0.151-0.061-0.252-0.101c-0.194-0.077-0.202-0.081-0.479-0.262
		c-0.443-0.288-0.813-0.773-0.992-1.307c-0.028-0.08-0.063-0.179-0.08-0.219c-0.017-0.04-0.03-0.097-0.03-0.125
		c0-0.027-0.013-0.079-0.028-0.111c-0.071-0.155-0.163-1.006-0.142-1.31c0.007-0.091,0.006-0.167-0.002-0.167
		C-300.313,407.413-300.381,407.445-300.457,407.484"/>
	<path fill="#70AEFB" d="M-291.948,397.558c-0.209,0.221-0.481,0.643-0.481,0.747c0,0.02-0.013,0.044-0.029,0.058
		c-0.014,0.012-0.033,0.06-0.041,0.104c-0.008,0.044-0.028,0.107-0.045,0.139c-0.027,0.049-0.033,0.123-0.031,0.421
		c0,0.374,0.01,0.427,0.116,0.671c0.055,0.128,0.073,0.163,0.146,0.294c0.042,0.076,0.086,0.154,0.095,0.178
		c0.009,0.022,0.041,0.073,0.069,0.114c0.043,0.065,0.138,0.25,0.175,0.343c0.006,0.015,0.019,0.041,0.029,0.058
		c0.092,0.154,0.143,0.844,0.067,0.938c-0.012,0.017-0.027,0.054-0.034,0.085c-0.008,0.033-0.04,0.09-0.068,0.128
		c-0.031,0.038-0.066,0.091-0.081,0.117c-0.013,0.027-0.036,0.057-0.05,0.065c-0.016,0.008-0.028,0.024-0.028,0.036
		c0,0.026-0.216,0.249-0.242,0.251c-0.009,0-0.041,0.026-0.069,0.056c-0.053,0.061-0.186,0.158-0.214,0.158
		c-0.007,0-0.036,0.018-0.06,0.039c-0.025,0.021-0.057,0.039-0.074,0.039c-0.014,0-0.05,0.017-0.077,0.039
		c-0.028,0.021-0.066,0.038-0.083,0.038c-0.019,0-0.044,0.013-0.057,0.029c-0.013,0.015-0.049,0.033-0.08,0.04
		c-0.032,0.006-0.057,0.02-0.057,0.027s-0.064,0.039-0.143,0.068c-0.078,0.029-0.166,0.065-0.195,0.082
		c-0.031,0.015-0.066,0.025-0.079,0.025c-0.013,0.002-0.05,0.016-0.081,0.033c-0.055,0.029-0.098,0.041-0.343,0.105
		c-0.048,0.013-0.114,0.035-0.15,0.05c-0.033,0.015-0.108,0.031-0.165,0.038c-0.057,0.008-0.131,0.023-0.162,0.038
		c-0.034,0.015-0.134,0.031-0.226,0.038c-0.091,0.009-0.176,0.023-0.189,0.033c-0.019,0.016-0.183,0.036-0.416,0.053
		c-0.016,0.003-0.082,0.012-0.146,0.023c-0.064,0.012-0.231,0.028-0.37,0.036c-0.139,0.01-0.324,0.024-0.41,0.03
		c-0.28,0.026-2.145,0.022-2.371-0.004c-0.112-0.014-0.327-0.028-0.478-0.033c-0.15-0.005-0.37-0.018-0.488-0.029
		c-0.117-0.012-0.35-0.029-0.517-0.04c-0.166-0.012-0.355-0.029-0.419-0.041c-0.111-0.021-0.599-0.059-0.719-0.057
		c-0.03,0-0.066-0.007-0.078-0.018s-0.132-0.022-0.266-0.029c-0.133-0.006-0.332-0.02-0.438-0.031
		c-0.442-0.049-0.524-0.056-0.535-0.05c-0.006,0.004-0.139-0.008-0.294-0.027c-0.155-0.021-0.458-0.043-0.673-0.05
		c-0.47-0.017-0.514-0.021-0.53-0.035c-0.017-0.019-1.654-0.017-1.672,0.001c-0.007,0.009-0.094,0.018-0.193,0.021
		c-0.098,0.005-0.227,0.01-0.286,0.012s-0.201,0.006-0.315,0.008l-0.208,0.004l-0.014,0.132c-0.008,0.073-0.021,0.141-0.03,0.153
		c-0.009,0.01-0.025,0.099-0.036,0.193c-0.012,0.096-0.029,0.247-0.039,0.336c-0.026,0.22-0.03,1.493-0.006,1.538
		c0.011,0.021,0.026,0.144,0.033,0.271c0.008,0.129,0.022,0.274,0.033,0.321c0.01,0.048,0.026,0.167,0.037,0.265
		c0.009,0.096,0.031,0.204,0.047,0.243c0.016,0.037,0.038,0.126,0.048,0.194c0.022,0.147,0.083,0.384,0.115,0.443
		c0.013,0.024,0.023,0.062,0.023,0.088c0,0.11,0.355,0.367,0.506,0.367c0.014,0,0.041,0.01,0.058,0.023
		c0.017,0.015,0.092,0.045,0.167,0.069c0.075,0.023,0.192,0.06,0.258,0.082c0.067,0.021,0.151,0.039,0.186,0.039
		c0.034,0,0.087,0.014,0.117,0.028c0.03,0.017,0.123,0.034,0.205,0.041c0.083,0.007,0.199,0.026,0.258,0.043
		c0.143,0.04,1.589,0.046,1.805,0.008c0.076-0.016,0.215-0.036,0.312-0.051s0.197-0.034,0.224-0.046
		c0.027-0.009,0.1-0.024,0.161-0.032c0.062-0.008,0.117-0.021,0.123-0.03c0.006-0.009,0.061-0.022,0.122-0.03
		s0.135-0.025,0.164-0.04c0.028-0.015,0.089-0.032,0.137-0.039c0.046-0.007,0.103-0.025,0.123-0.039
		c0.021-0.015,0.057-0.026,0.078-0.027c0.022,0,0.075-0.018,0.118-0.039c0.042-0.02,0.095-0.039,0.116-0.039
		s0.074-0.019,0.117-0.038c0.043-0.021,0.088-0.038,0.1-0.039c0.025-0.001,0.19-0.067,0.264-0.108
		c0.028-0.017,0.063-0.028,0.079-0.028c0.014,0,0.059-0.018,0.099-0.039s0.089-0.04,0.11-0.04c0.02,0,0.048-0.013,0.061-0.027
		c0.035-0.044,0.064-0.038,0.123,0.024c0.069,0.072,0.069,0.144-0.001,0.197c-0.029,0.022-0.039,0.034-0.02,0.03
		c0.03-0.013,0.032,0.003,0.021,0.156c-0.021,0.304,0.071,1.154,0.142,1.311c0.015,0.032,0.028,0.084,0.028,0.111
		c0,0.028,0.013,0.085,0.03,0.125c0.017,0.04,0.052,0.139,0.08,0.219c0.179,0.533,0.549,1.019,0.992,1.307
		c0.277,0.181,0.285,0.185,0.479,0.262c0.101,0.04,0.215,0.086,0.252,0.101c0.038,0.016,0.126,0.045,0.198,0.066
		c0.071,0.022,0.14,0.052,0.153,0.069c0.02,0.023,0.029,0.023,0.065,0.003c0.023-0.016,0.102-0.033,0.175-0.039
		c0.125-0.012,0.267-0.045,0.423-0.102c0.038-0.013,0.12-0.031,0.181-0.038c0.062-0.008,0.116-0.022,0.122-0.03
		c0.005-0.009,0.059-0.025,0.117-0.039c0.058-0.011,0.132-0.033,0.161-0.05c0.029-0.015,0.074-0.027,0.098-0.027
		c0.025,0,0.077-0.017,0.116-0.036c0.086-0.044,0.179-0.077,0.287-0.103c0.042-0.01,0.105-0.03,0.137-0.044
		c0.07-0.033,0.212-0.09,0.371-0.149c0.064-0.023,0.214-0.09,0.333-0.148c0.119-0.057,0.23-0.105,0.244-0.105
		c0.017,0,0.047-0.011,0.069-0.027c0.022-0.017,0.119-0.07,0.214-0.12c0.095-0.05,0.208-0.11,0.251-0.135
		c0.043-0.026,0.1-0.058,0.127-0.072c0.026-0.014,0.085-0.05,0.131-0.078c0.045-0.029,0.09-0.055,0.1-0.055
		c0.008,0,0.032-0.018,0.051-0.038c0.02-0.021,0.046-0.039,0.061-0.039c0.015,0,0.041-0.018,0.061-0.037
		c0.019-0.02,0.056-0.043,0.083-0.052c0.027-0.008,0.058-0.026,0.067-0.04c0.012-0.014,0.062-0.046,0.112-0.072
		c0.051-0.027,0.105-0.062,0.121-0.075c0.016-0.015,0.051-0.045,0.082-0.066c0.066-0.047,0.2-0.162,0.24-0.209
		c0.017-0.02,0.038-0.033,0.048-0.033c0.028,0,0.045-0.018,0.429-0.402c0.412-0.414,0.423-0.427,0.423-0.45
		c0-0.011,0.031-0.048,0.067-0.081c0.038-0.036,0.069-0.07,0.069-0.078c0-0.01,0.015-0.036,0.033-0.059
		c0.02-0.022,0.053-0.065,0.074-0.092c0.024-0.031,0.048-0.061,0.074-0.091c0.018-0.023,0.034-0.053,0.034-0.066
		c0-0.015,0.029-0.067,0.063-0.118c0.07-0.104,0.101-0.156,0.189-0.329c0.033-0.063,0.069-0.129,0.079-0.146
		c0.056-0.098,0.179-0.376,0.188-0.432c0.007-0.036,0.026-0.082,0.041-0.104c0.015-0.021,0.026-0.057,0.026-0.079
		c0-0.021,0.012-0.056,0.026-0.077c0.014-0.022,0.033-0.091,0.04-0.156c0.008-0.064,0.023-0.127,0.034-0.14
		c0.02-0.025,0.057-0.206,0.057-0.273c0-0.024,0.009-0.069,0.022-0.098c0.012-0.031,0.028-0.155,0.036-0.278
		c0.009-0.124,0.028-0.321,0.045-0.44c0.017-0.117,0.031-0.244,0.029-0.282c0-0.063-0.005-1.716-0.006-2.304
		c0-0.206,0.007-0.279,0.032-0.332c0.018-0.035,0.056-0.129,0.084-0.202c0.046-0.121,0.251-0.438,0.282-0.438
		c0.007,0,0.043-0.029,0.08-0.065c0.115-0.108,0.268-0.229,0.289-0.229c0.012,0,0.021-0.009,0.021-0.02
		c0-0.012,0.02-0.029,0.045-0.04c0.024-0.011,0.078-0.041,0.121-0.067c0.043-0.025,0.105-0.062,0.136-0.079
		c0.034-0.019,0.064-0.037,0.069-0.045c0.027-0.033,0.138-0.1,0.168-0.1c0.018,0,0.077-0.029,0.132-0.065
		c0.055-0.037,0.152-0.095,0.217-0.129s0.143-0.08,0.176-0.099c0.085-0.055,0.186-0.111,0.257-0.146
		c0.036-0.017,0.064-0.038,0.064-0.048c0-0.009,0.026-0.023,0.057-0.031c0.031-0.006,0.067-0.024,0.081-0.04
		c0.012-0.014,0.033-0.027,0.045-0.027c0.012,0,0.034-0.018,0.046-0.039c0.014-0.022,0.037-0.04,0.05-0.04
		c0.014,0,0.047-0.022,0.074-0.051s0.079-0.07,0.117-0.095c0.162-0.103,0.396-0.379,0.489-0.575c0.108-0.229,0.185-0.59,0.127-0.61
		c-0.055-0.021-0.938-0.004-0.991,0.019c-0.029,0.013-0.133,0.032-0.231,0.042c-0.1,0.013-0.191,0.031-0.206,0.043
		c-0.015,0.011-0.068,0.028-0.121,0.037c-0.053,0.01-0.155,0.041-0.231,0.069c-0.075,0.028-0.167,0.061-0.205,0.073
		c-0.038,0.009-0.076,0.025-0.088,0.032c-0.01,0.011-0.098,0.058-0.196,0.11c-0.31,0.164-0.671,0.502-0.671,0.627
		c0,0.012-0.013,0.03-0.027,0.043c-0.016,0.014-0.032,0.047-0.038,0.077c-0.018,0.089-0.108,0.187-0.144,0.155
		c-0.026-0.021-0.028-0.096-0.017-0.563c0.012-0.521-0.007-0.971-0.043-1.021c-0.009-0.013-0.029-0.071-0.042-0.134
		c-0.013-0.06-0.037-0.12-0.051-0.134c-0.016-0.013-0.028-0.039-0.028-0.059c0-0.045-0.094-0.223-0.18-0.34
		c-0.13-0.178-0.235-0.291-0.392-0.429C-291.911,397.517-291.908,397.517-291.948,397.558 M-299.3,399.547
		c0.024,0.005,0.059,0.005,0.078-0.002c0.018-0.004-0.001-0.006-0.044-0.006C-299.309,399.539-299.325,399.542-299.3,399.547
		 M-297.398,399.642c0.001,0.052,0.004,0.072,0.009,0.042c0.004-0.029,0.004-0.073,0-0.098
		C-297.395,399.563-297.398,399.586-297.398,399.642 M-300.929,399.933c0,0.044,0.004,0.059,0.009,0.035
		c0.004-0.024,0.004-0.061,0-0.079C-300.926,399.87-300.929,399.89-300.929,399.933 M-297.377,400.127
		c0,0.075,0.003,0.104,0.008,0.064c0.004-0.041,0.004-0.103,0-0.137C-297.375,400.02-297.378,400.053-297.377,400.127
		 M-300.929,400.498c0,0.043,0.004,0.058,0.009,0.034c0.004-0.025,0.004-0.059,0-0.077
		C-300.926,400.436-300.929,400.455-300.929,400.498 M-297.818,400.757c0.035,0.004,0.088,0.003,0.117,0
		c0.029-0.005,0.001-0.009-0.063-0.009S-297.853,400.753-297.818,400.757 M-298.178,400.777c0.029,0.003,0.074,0.003,0.097-0.002
		c0.024-0.005,0-0.009-0.054-0.009S-298.208,400.771-298.178,400.777 M-299.905,400.894c0.024,0.005,0.059,0.003,0.078-0.002
		c0.018-0.005-0.001-0.008-0.044-0.008S-299.929,400.889-299.905,400.894 M-300.403,400.95c0.019,0.005,0.049,0.005,0.069,0
		c0.018-0.005,0.002-0.008-0.035-0.008C-300.406,400.942-300.422,400.945-300.403,400.95 M-300.88,400.972
		c0.045,0.004,0.116,0.004,0.156,0c0.04-0.005,0.002-0.009-0.083-0.009C-300.893,400.963-300.926,400.967-300.88,400.972
		 M-299.188,401.172c-0.026,0.013-0.01,0.015,0.049,0.006c0.049-0.006,0.091-0.015,0.096-0.019
		C-299.027,401.145-299.151,401.155-299.188,401.172 M-299.613,401.225c0.035,0.005,0.096,0.005,0.137,0
		c0.041-0.004,0.012-0.008-0.063-0.008C-299.614,401.217-299.648,401.22-299.613,401.225 M-299.88,401.249
		c-0.041,0.014-0.042,0.017-0.01,0.018c0.021,0,0.052-0.006,0.068-0.018C-299.788,401.227-299.813,401.227-299.88,401.249
		 M-300.666,401.321c0.024,0.005,0.059,0.005,0.078,0c0.018-0.005-0.001-0.009-0.044-0.009S-300.69,401.316-300.666,401.321
		 M-298.801,401.465c0,0.091,0.003,0.129,0.008,0.082c0.004-0.045,0.004-0.12,0-0.165S-298.801,401.373-298.801,401.465
		 M-300.968,401.36c0.019,0.005,0.05,0.005,0.068,0c0.019-0.005,0.003-0.009-0.034-0.009
		C-300.972,401.352-300.987,401.355-300.968,401.36 M-302.323,401.438c0.045,0.005,0.115,0.005,0.155,0
		c0.04-0.003,0.002-0.007-0.083-0.007S-302.37,401.436-302.323,401.438 M-302.879,402.136c0,0.056,0.004,0.074,0.009,0.046
		c0.004-0.03,0.004-0.074,0-0.098C-302.875,402.059-302.88,402.084-302.879,402.136 M-298.784,402.498
		c0,0.048,0.004,0.067,0.009,0.043c0.004-0.028,0.004-0.058,0-0.087C-298.779,402.43-298.784,402.449-298.784,402.498
		 M-302.109,402.707c0.024,0.004,0.06,0.004,0.078,0c0.019-0.005-0.001-0.009-0.044-0.009
		C-302.119,402.698-302.134,402.702-302.109,402.707 M-301.749,402.727c0.03,0.005,0.074,0.005,0.097,0
		c0.025-0.005,0-0.01-0.053-0.01C-301.758,402.719-301.778,402.722-301.749,402.727 M-301.578,402.751
		c0.016,0.011,0.045,0.02,0.066,0.02c0.05,0,0.034-0.01-0.038-0.027C-301.591,402.734-301.6,402.736-301.578,402.751
		 M-301.164,402.785c0.036,0.003,0.071,0.003,0.107,0c0.029-0.005,0.005-0.008-0.054-0.008
		C-301.169,402.777-301.193,402.78-301.164,402.785 M-300.035,402.876c0.005,0.003,0.052,0.012,0.106,0.018
		c0.063,0.007,0.083,0.005,0.058-0.005C-299.909,402.872-300.052,402.86-300.035,402.876 M-298.983,402.954
		c0,0.004,0.034,0.011,0.076,0.016c0.042,0.004,0.072,0,0.067-0.008C-298.85,402.945-298.983,402.939-298.983,402.954
		 M-298.111,405.275c0.04,0.017,0.099,0.034,0.132,0.04c0.254,0.055,0.771,0.479,0.771,0.632c0,0.009,0.018,0.049,0.039,0.092
		c0.021,0.042,0.039,0.09,0.039,0.105c0,0.017,0.013,0.065,0.029,0.109c0.038,0.104,0.038,0.412,0,0.477
		c-0.016,0.028-0.028,0.068-0.029,0.092c0,0.043-0.148,0.344-0.2,0.408c-0.07,0.089-0.266,0.27-0.318,0.294
		c-0.032,0.015-0.076,0.036-0.097,0.051c-0.115,0.069-0.147,0.084-0.264,0.126c-0.069,0.024-0.146,0.044-0.169,0.044
		c-0.023,0-0.096,0.013-0.161,0.03c-0.096,0.024-0.146,0.027-0.26,0.011c-0.278-0.04-0.377-0.059-0.454-0.087
		c-0.042-0.018-0.089-0.031-0.102-0.031c-0.014,0-0.068-0.031-0.122-0.069c-0.053-0.038-0.105-0.068-0.115-0.068
		c-0.018,0-0.188-0.165-0.265-0.256c-0.04-0.048-0.096-0.156-0.159-0.309c-0.053-0.126-0.052-0.578,0-0.703
		c0.067-0.164,0.134-0.293,0.149-0.293c0.008,0,0.02-0.019,0.026-0.043s0.071-0.104,0.144-0.176
		c0.121-0.119,0.169-0.161,0.298-0.249c0.023-0.016,0.07-0.049,0.104-0.072c0.033-0.025,0.071-0.046,0.083-0.046
		c0.013,0,0.034-0.011,0.047-0.025c0.013-0.017,0.058-0.035,0.101-0.042s0.102-0.024,0.13-0.041
		C-298.661,405.238-298.212,405.238-298.111,405.275"/>
	<path fill="#0D1418" d="M-292.137,397.284c0,0.016-0.046,0.076-0.102,0.13c-0.056,0.056-0.112,0.12-0.124,0.14
		c-0.012,0.021-0.041,0.041-0.063,0.044c-0.024,0.005-0.043,0.019-0.043,0.036c0,0.014-0.007,0.043-0.017,0.062
		c-0.012,0.021-0.021,0.045-0.028,0.067c-0.007,0.021-0.031,0.033-0.061,0.033c-0.056,0-0.056,0-0.031,0.066
		c0.013,0.035,0.011,0.055-0.01,0.071c-0.015,0.014-0.028,0.036-0.028,0.051s-0.018,0.037-0.04,0.052
		c-0.024,0.014-0.038,0.045-0.038,0.078c0,0.079-0.033,0.132-0.083,0.132c-0.025,0-0.035,0.006-0.023,0.014
		c0.063,0.043,0.025,0.162-0.051,0.162c-0.045,0-0.051,0.049-0.009,0.063c0.037,0.016,0.038,0.093,0.002,0.209
		c-0.033,0.114-0.083,0.128-0.095,0.025c-0.004-0.04-0.007,0.083-0.007,0.277c-0.001,0.192,0.005,0.316,0.011,0.274
		c0.016-0.103,0.054-0.11,0.079-0.018c0.026,0.093,0.026,0.137,0.001,0.152c-0.046,0.029-0.021,0.124,0.035,0.13
		c0.055,0.007,0.057,0.014,0.032,0.119c-0.01,0.044-0.006,0.054,0.025,0.054c0.046,0,0.084,0.035,0.084,0.082
		c0,0.019,0.009,0.034,0.021,0.034c0.014,0,0.019,0.023,0.012,0.068c-0.011,0.061-0.007,0.066,0.041,0.072
		c0.043,0.005,0.053,0.016,0.053,0.06c-0.001,0.029,0.009,0.054,0.021,0.054c0.038,0,0.13,0.136,0.119,0.176
		c-0.007,0.028,0,0.038,0.026,0.038c0.021,0,0.047,0.021,0.06,0.044c0.013,0.025,0.036,0.052,0.05,0.061
		c0.031,0.018,0.036,0.109,0.005,0.109c-0.055,0,0,0.07,0.07,0.09c0.08,0.022,0.13,0.123,0.065,0.129
		c-0.015,0.001,0,0.008,0.032,0.014c0.065,0.014,0.089,0.081,0.047,0.13c-0.019,0.024-0.015,0.029,0.026,0.029
		c0.065,0,0.108,0.132,0.054,0.166c-0.012,0.006-0.021,0.099-0.021,0.205c0,0.107,0.009,0.198,0.021,0.204
		c0.055,0.035,0.006,0.166-0.063,0.166c-0.048,0-0.047,0.098,0.001,0.156l0.036,0.045l0.048-0.086
		c0.162-0.282,0.106-1.062-0.086-1.204c-0.019-0.014-0.034-0.041-0.034-0.06c0-0.039-0.052-0.152-0.078-0.168
		c-0.01-0.006-0.044-0.066-0.079-0.132c-0.034-0.066-0.083-0.158-0.108-0.2c-0.025-0.044-0.056-0.1-0.065-0.126
		c-0.015-0.035-0.032-0.069-0.05-0.101c-0.016-0.028-0.028-0.069-0.028-0.091s-0.013-0.05-0.028-0.062
		c-0.017-0.014-0.035-0.064-0.041-0.114c-0.007-0.05-0.026-0.136-0.041-0.188c-0.038-0.134-0.038-0.534,0.002-0.608
		c0.016-0.031,0.029-0.076,0.029-0.102c0-0.023,0.013-0.076,0.029-0.115c0.016-0.037,0.029-0.085,0.029-0.104
		s0.017-0.055,0.037-0.079c0.019-0.026,0.043-0.075,0.05-0.109c0.007-0.033,0.026-0.072,0.041-0.086
		c0.017-0.012,0.029-0.034,0.029-0.047s0.018-0.039,0.04-0.06c0.021-0.019,0.039-0.045,0.039-0.058c0-0.014,0.031-0.064,0.068-0.113
		c0.037-0.049,0.068-0.094,0.068-0.102c0-0.052,0.212-0.242,0.269-0.242c0.065-0.001,0.356,0.263,0.419,0.38
		c0.013,0.024,0.062,0.1,0.109,0.165c0.046,0.066,0.096,0.152,0.109,0.192c0.015,0.038,0.049,0.123,0.078,0.188
		c0.03,0.064,0.061,0.16,0.07,0.215c0.01,0.053,0.029,0.14,0.04,0.195c0.018,0.078,0.025,0.816,0.011,1.168
		c-0.004,0.117,0.032,0.104,0.095-0.04c0.031-0.069,0.067-0.133,0.079-0.141c0.012-0.007,0.05-0.06,0.086-0.116
		c0.036-0.056,0.073-0.103,0.083-0.103c0.008,0,0.049-0.028,0.088-0.063c0.041-0.034,0.126-0.099,0.191-0.141
		c0.167-0.11,0.189-0.124,0.244-0.149c0.027-0.012,0.089-0.039,0.137-0.061s0.092-0.043,0.139-0.066
		c0.029-0.015,0.065-0.026,0.083-0.026c0.017,0,0.063-0.018,0.104-0.038c0.041-0.021,0.088-0.039,0.107-0.039
		c0.02,0,0.085-0.019,0.146-0.04s0.151-0.038,0.201-0.038c0.049,0,0.099-0.011,0.111-0.022c0.027-0.027,0.258-0.056,0.527-0.065
		c0.109-0.005,0.206-0.012,0.214-0.017c0.009-0.005,0.046-0.002,0.083,0.005c0.038,0.008,0.088,0.005,0.112-0.005
		c0.031-0.015,0.052-0.014,0.068,0.004c0.013,0.013,0.076,0.022,0.142,0.022c0.168,0,0.206,0.062,0.138,0.224
		c-0.016,0.036-0.035,0.109-0.043,0.16c-0.012,0.087-0.046,0.183-0.122,0.337c-0.063,0.134-0.323,0.443-0.44,0.523
		c-0.051,0.035-0.1,0.075-0.147,0.115c-0.038,0.036-0.08,0.064-0.09,0.064s-0.042,0.024-0.068,0.052
		c-0.026,0.027-0.074,0.063-0.107,0.077c-0.033,0.014-0.107,0.054-0.163,0.093c-0.056,0.036-0.144,0.087-0.194,0.112
		s-0.095,0.051-0.1,0.058c-0.006,0.006-0.033,0.024-0.062,0.04l-0.176,0.092c-0.067,0.036-0.136,0.076-0.153,0.091
		c-0.017,0.013-0.064,0.041-0.107,0.06s-0.136,0.07-0.205,0.114c-0.069,0.045-0.146,0.091-0.167,0.104
		c-0.19,0.114-0.242,0.148-0.295,0.194c-0.036,0.03-0.112,0.094-0.17,0.142c-0.059,0.049-0.112,0.101-0.118,0.117
		c-0.006,0.017-0.043,0.063-0.082,0.105s-0.077,0.095-0.088,0.117c-0.009,0.024-0.021,0.047-0.034,0.069
		c-0.01,0.017-0.037,0.083-0.061,0.146c-0.022,0.063-0.047,0.128-0.072,0.189c-0.027,0.064-0.029,0.141-0.014,0.586
		c0.008,0.282,0.018,0.729,0.02,0.994c0.001,0.265,0.007,0.494,0.014,0.509c0.005,0.017,0,0.078-0.014,0.138
		c-0.017,0.071-0.019,0.114-0.006,0.128c0.011,0.011,0.013,0.041,0.002,0.074c-0.008,0.03-0.018,0.112-0.02,0.182
		c-0.009,0.305-0.103,1.087-0.141,1.176c-0.012,0.031-0.022,0.077-0.022,0.104s-0.012,0.076-0.026,0.111
		c-0.016,0.036-0.033,0.107-0.042,0.161c-0.007,0.053-0.03,0.131-0.049,0.175c-0.019,0.042-0.041,0.112-0.049,0.154
		c-0.012,0.067-0.038,0.129-0.105,0.245c-0.009,0.017-0.056,0.108-0.102,0.205c-0.078,0.16-0.209,0.397-0.295,0.533
		c-0.021,0.035-0.043,0.072-0.061,0.11c-0.015,0.032-0.056,0.087-0.089,0.123c-0.033,0.035-0.059,0.076-0.059,0.089
		c0,0.022-0.093,0.135-0.224,0.269c-0.027,0.027-0.05,0.059-0.05,0.069c0,0.03-0.56,0.587-0.717,0.714
		c-0.103,0.08-0.204,0.164-0.305,0.248c-0.147,0.121-0.186,0.149-0.286,0.199c-0.078,0.04-0.385,0.245-0.398,0.267
		c-0.007,0.01-0.038,0.024-0.069,0.031s-0.061,0.023-0.066,0.038c-0.005,0.014-0.034,0.03-0.064,0.039
		c-0.03,0.009-0.06,0.021-0.064,0.03c-0.012,0.016-0.209,0.128-0.372,0.21c-0.06,0.028-0.128,0.068-0.154,0.087
		c-0.025,0.02-0.061,0.035-0.078,0.035c-0.032,0-0.313,0.135-0.358,0.171c-0.013,0.012-0.061,0.03-0.106,0.042
		c-0.044,0.012-0.087,0.029-0.092,0.038c-0.007,0.01-0.04,0.022-0.076,0.03c-0.036,0.006-0.098,0.029-0.14,0.051
		c-0.042,0.021-0.088,0.038-0.103,0.038s-0.045,0.012-0.069,0.027c-0.023,0.016-0.074,0.032-0.114,0.04
		c-0.038,0.006-0.081,0.026-0.095,0.041c-0.012,0.015-0.046,0.028-0.074,0.028s-0.113,0.025-0.188,0.057
		c-0.076,0.03-0.186,0.066-0.244,0.08c-0.059,0.014-0.115,0.031-0.127,0.04c-0.01,0.009-0.071,0.024-0.134,0.036
		c-0.063,0.013-0.125,0.03-0.138,0.041c-0.013,0.01-0.07,0.023-0.127,0.03c-0.056,0.005-0.121,0.02-0.144,0.031
		c-0.023,0.014-0.103,0.035-0.178,0.049s-0.172,0.032-0.215,0.043c-0.042,0.011-0.135,0.029-0.205,0.039
		c-0.07,0.013-0.175,0.029-0.234,0.04c-0.059,0.01-0.177,0.028-0.264,0.04c-0.085,0.014-0.211,0.031-0.28,0.041
		c-0.068,0.01-0.252,0.022-0.41,0.026c-0.157,0.005-0.313,0.019-0.348,0.027c-0.034,0.012-0.066,0.015-0.072,0.009
		c-0.005-0.005-0.148-0.013-0.318-0.017c-0.17-0.005-0.396-0.014-0.504-0.02c-0.107-0.004-0.296-0.014-0.419-0.019
		c-0.123-0.008-0.272-0.021-0.332-0.031c-0.059-0.009-0.169-0.027-0.244-0.038c-0.075-0.01-0.154-0.027-0.176-0.038
		c-0.021-0.01-0.115-0.027-0.209-0.035c-0.094-0.01-0.182-0.026-0.196-0.039c-0.013-0.01-0.067-0.025-0.121-0.031
		c-0.102-0.014-0.231-0.047-0.429-0.109c-0.064-0.021-0.133-0.039-0.151-0.039c-0.02,0-0.067-0.018-0.107-0.039
		c-0.04-0.021-0.1-0.038-0.132-0.038c-0.033,0-0.077-0.012-0.098-0.025c-0.021-0.016-0.071-0.033-0.11-0.041
		c-0.039-0.008-0.082-0.026-0.094-0.041c-0.013-0.017-0.038-0.029-0.053-0.029s-0.052-0.014-0.081-0.027
		c-0.038-0.019-0.076-0.036-0.115-0.051c-0.035-0.014-0.064-0.03-0.064-0.039c0-0.008-0.03-0.021-0.066-0.026
		c-0.037-0.007-0.078-0.026-0.09-0.042c-0.013-0.016-0.032-0.029-0.042-0.029c-0.027,0-0.228-0.097-0.239-0.116
		c-0.005-0.008-0.033-0.021-0.061-0.028c-0.027-0.006-0.093-0.043-0.146-0.08s-0.1-0.067-0.105-0.067
		c-0.004,0-0.042-0.022-0.083-0.049c-0.037-0.025-0.074-0.05-0.111-0.073c-0.021-0.014-0.08-0.058-0.132-0.098
		c-0.052-0.04-0.102-0.073-0.113-0.073s-0.026-0.013-0.035-0.028c-0.009-0.016-0.06-0.063-0.113-0.103
		c-0.141-0.108-0.242-0.199-0.331-0.297c-0.043-0.048-0.104-0.109-0.134-0.137s-0.095-0.103-0.144-0.167
		c-0.049-0.063-0.099-0.126-0.111-0.136c-0.038-0.034-0.128-0.163-0.128-0.182c0-0.01-0.03-0.049-0.067-0.087
		c-0.037-0.039-0.073-0.092-0.081-0.12c-0.007-0.029-0.019-0.05-0.028-0.05c-0.009,0-0.022-0.02-0.028-0.04
		c-0.007-0.022-0.028-0.056-0.046-0.075c-0.018-0.018-0.055-0.08-0.081-0.14c-0.026-0.059-0.054-0.112-0.062-0.116
		c-0.007-0.007-0.037-0.064-0.065-0.128c-0.028-0.063-0.068-0.149-0.088-0.188c-0.021-0.038-0.038-0.09-0.038-0.113
		c0-0.025-0.013-0.055-0.03-0.067c-0.017-0.012-0.035-0.054-0.042-0.093c-0.016-0.104,0.054-0.118,0.188-0.038
		c0.016,0.01,0.051,0.027,0.078,0.039c0.027,0.011,0.062,0.03,0.078,0.04c0.058,0.038,0.213,0.099,0.25,0.099
		c0.021,0,0.048,0.013,0.061,0.026c0.012,0.016,0.063,0.034,0.113,0.041c0.051,0.008,0.109,0.026,0.131,0.042
		c0.022,0.015,0.054,0.027,0.074,0.027c0.018,0,0.076,0.014,0.126,0.032c0.052,0.018,0.142,0.039,0.201,0.048
		c0.06,0.009,0.156,0.024,0.215,0.035c0.378,0.068,1.078,0.096,1.521,0.06c0.134-0.011,0.328-0.025,0.429-0.032
		c0.102-0.006,0.195-0.02,0.207-0.029c0.011-0.009,0.107-0.024,0.212-0.035c0.105-0.012,0.202-0.028,0.215-0.041
		c0.013-0.009,0.079-0.023,0.148-0.03s0.151-0.023,0.184-0.037c0.119-0.051,0.256-0.09,0.369-0.108
		c0.063-0.009,0.129-0.03,0.146-0.045c0.017-0.014,0.062-0.034,0.099-0.04c0.037-0.009,0.092-0.026,0.121-0.043
		c0.029-0.015,0.069-0.027,0.09-0.027c0.02,0,0.047-0.011,0.061-0.026c0.013-0.016,0.056-0.033,0.099-0.041
		c0.042-0.007,0.086-0.024,0.098-0.04c0.013-0.016,0.036-0.027,0.051-0.027c0.029,0,0.19-0.067,0.241-0.099
		c0.016-0.011,0.051-0.03,0.078-0.042c0.027-0.015,0.07-0.04,0.095-0.06c0.026-0.02,0.063-0.034,0.083-0.034
		c0.031,0,0.033-0.007,0.014-0.049c-0.032-0.071-0.083-0.076-0.2-0.021c-0.059,0.028-0.115,0.05-0.127,0.05
		c-0.011,0-0.036,0.01-0.055,0.019c-0.097,0.053-0.26,0.119-0.293,0.119c-0.021,0-0.048,0.013-0.061,0.027
		c-0.013,0.017-0.06,0.037-0.105,0.047c-0.044,0.01-0.152,0.046-0.239,0.077c-0.086,0.032-0.194,0.064-0.239,0.072
		c-0.044,0.008-0.085,0.021-0.092,0.03c-0.005,0.008-0.051,0.023-0.102,0.029c-0.051,0.009-0.118,0.025-0.151,0.039
		c-0.032,0.014-0.106,0.031-0.164,0.037c-0.058,0.009-0.134,0.026-0.17,0.043c-0.036,0.015-0.098,0.027-0.139,0.027
		s-0.123,0.014-0.181,0.028c-0.059,0.017-0.208,0.039-0.332,0.049s-0.281,0.025-0.351,0.034c-0.344,0.04-1.404-0.012-1.707-0.083
		c-0.064-0.015-0.161-0.032-0.214-0.04c-0.054-0.007-0.106-0.02-0.117-0.027c-0.011-0.009-0.062-0.021-0.114-0.027
		c-0.051-0.007-0.113-0.024-0.136-0.041c-0.023-0.018-0.064-0.03-0.092-0.03c-0.027,0-0.084-0.018-0.126-0.04
		c-0.042-0.021-0.083-0.037-0.093-0.037c-0.021,0-0.155-0.06-0.357-0.159c-0.168-0.082-0.25-0.153-0.268-0.231
		c-0.005-0.026-0.025-0.093-0.043-0.146l-0.052-0.156c-0.012-0.031-0.032-0.12-0.046-0.195c-0.025-0.133-0.063-0.289-0.103-0.413
		c-0.011-0.034-0.016-0.065-0.012-0.068c0.007-0.008-0.028-0.292-0.071-0.562c-0.06-0.384-0.045-2.139,0.018-2.259
		c0.011-0.02,0.027-0.109,0.038-0.203c0.011-0.093,0.036-0.202,0.056-0.242l0.036-0.075l0.166-0.005
		c0.091-0.003,0.315-0.012,0.497-0.021c0.399-0.018,1.905-0.018,2.273,0.003c0.144,0.006,0.289,0.013,0.32,0.011
		c0.031,0,0.189,0.013,0.352,0.029c0.162,0.017,0.397,0.033,0.524,0.04c0.126,0.005,0.263,0.018,0.302,0.026
		c0.04,0.011,0.164,0.024,0.273,0.032c0.111,0.007,0.228,0.02,0.259,0.03c0.038,0.011,0.076,0.01,0.104-0.003
		c0.033-0.015,0.063-0.013,0.118,0.01c0.041,0.017,0.081,0.026,0.091,0.021c0.02-0.013,0.46,0.024,0.574,0.05
		c0.042,0.009,0.188,0.022,0.321,0.028c0.135,0.008,0.316,0.021,0.403,0.032c0.088,0.01,0.167,0.017,0.176,0.015
		c0.009-0.003,0.047,0.002,0.085,0.01c0.037,0.006,0.178,0.018,0.312,0.024c0.134,0.006,0.292,0.016,0.352,0.021
		s0.153,0.007,0.21,0.007c0.056,0,0.157,0.007,0.224,0.02c0.092,0.014,0.794,0.04,1.146,0.044c0.765,0.006,1.936-0.033,2.025-0.065
		c0.025-0.01,0.143-0.022,0.264-0.028c0.119-0.007,0.255-0.024,0.3-0.04c0.046-0.016,0.116-0.027,0.157-0.027
		c0.04,0,0.107-0.01,0.15-0.021c0.043-0.011,0.145-0.031,0.224-0.048c0.081-0.014,0.231-0.05,0.332-0.077s0.226-0.059,0.273-0.069
		c0.049-0.011,0.105-0.025,0.127-0.037c0.196-0.09,0.265-0.118,0.296-0.118c0.021,0,0.055-0.012,0.075-0.029
		c0.02-0.014,0.051-0.028,0.067-0.028c0.034,0,0.661-0.312,0.697-0.345c0.013-0.014,0.039-0.029,0.059-0.034
		c0.059-0.019,0.088-0.082,0.059-0.134c-0.023-0.042-0.025-0.042-0.031,0.021c-0.005,0.057-0.012,0.063-0.071,0.063
		c-0.047,0-0.066,0.011-0.074,0.04c-0.012,0.043-0.131,0.056-0.133,0.014c-0.001-0.013-0.008-0.003-0.015,0.023
		c-0.016,0.057-0.094,0.079-0.111,0.033c-0.018-0.046-0.083-0.015-0.09,0.043c-0.007,0.058-0.093,0.084-0.141,0.044
		c-0.03-0.025-0.052-0.009-0.038,0.026c0.004,0.016-0.016,0.034-0.054,0.047c-0.077,0.027-0.194,0.028-0.194,0.003
		c0-0.01-0.012-0.021-0.028-0.021s-0.028,0.018-0.028,0.04c0,0.054-0.079,0.089-0.134,0.061c-0.057-0.03-0.102-0.027-0.144,0.011
		c-0.068,0.062-0.104-0.004-0.073-0.14c0.024-0.107,0.082-0.176,0.103-0.122c0.005,0.014,0.011-0.156,0.012-0.378
		c0.001-0.336-0.003-0.407-0.028-0.427c-0.033-0.027-0.041-0.454-0.013-0.63c0.022-0.126,0.008-0.188-0.048-0.21
		c-0.028-0.01-0.046-0.033-0.046-0.058c0-0.058-0.271-0.06-0.286-0.002c-0.017,0.063-0.631,0.116-0.734,0.064
		c-0.023-0.013-0.116-0.023-0.204-0.028c-0.202-0.01-0.184,0.023-0.19-0.35c-0.005-0.174-0.015-0.499-0.022-0.719
		c-0.011-0.356-0.009-0.403,0.019-0.427c0.026-0.021,0.031-0.063,0.03-0.234c-0.001-0.113-0.006-0.19-0.011-0.172
		c-0.012,0.046-0.057,0.042-0.071-0.005c-0.014-0.061-1.532-0.062-1.548-0.002c-0.011,0.043-0.041,0.052-0.222,0.07
		c-0.104,0.012-0.134,0.006-0.16-0.018c-0.05-0.051-0.178-0.035-0.157,0.019c0.021,0.053-0.264,0.1-0.296,0.048
		c-0.028-0.046-0.186-0.022-0.186,0.027c0,0.03-0.014,0.05-0.044,0.057c-0.069,0.02-0.187,0.015-0.2-0.007
		c-0.024-0.038-0.205-0.023-0.205,0.017c0,0.028-0.024,0.042-0.114,0.062c-0.113,0.024-0.198,0.015-0.198-0.021
		c0-0.009-0.053-0.017-0.117-0.017c-0.111,0-0.117,0.001-0.117,0.048c0,0.052-0.013,0.058-0.186,0.077
		c-0.071,0.009-0.11,0.004-0.137-0.018c-0.059-0.045-0.145-0.038-0.145,0.009c0,0.066-0.266,0.117-0.302,0.059
		c-0.028-0.044-0.186-0.022-0.205,0.029c-0.02,0.054-0.108,0.086-0.142,0.051c-0.045-0.045-0.245-0.026-0.252,0.022
		c-0.009,0.063-0.136,0.094-0.188,0.047c-0.056-0.051-0.121-0.043-0.121,0.017c0,0.063-0.104,0.098-0.169,0.056
		c-0.063-0.039-0.099-0.031-0.106,0.019c-0.005,0.037-0.018,0.042-0.089,0.041c-0.067-0.001-0.083,0.005-0.083,0.034
		c0,0.019-0.012,0.041-0.026,0.05c-0.032,0.018-0.057,0.132-0.06,0.269c-0.001,0.087-0.007,0.099-0.047,0.104
		c-0.054,0.009-0.057,0.131-0.004,0.131c0.016,0,0.032,0.021,0.036,0.045c0.005,0.035-0.001,0.043-0.029,0.039
		c-0.03-0.005-0.036,0.009-0.042,0.098c-0.005,0.091-0.002,0.103,0.035,0.103c0.026,0,0.04,0.011,0.04,0.035
		c0,0.019,0.009,0.147,0.021,0.284c0.022,0.282,0.011,0.329-0.072,0.275c-0.074-0.049-0.222-0.035-0.222,0.019
		c0,0.046-0.44,0.085-0.511,0.047c-0.021-0.011-0.038-0.011-0.045,0.002c-0.016,0.025-0.101,0.025-0.117,0
		c-0.025-0.041-0.38-0.025-0.38,0.019c0,0.058-0.362,0.093-0.513,0.05c-0.045-0.013-0.053-0.01-0.053,0.026
		c0,0.021-0.008,0.045-0.018,0.05c-0.009,0.008-0.018,0.128-0.02,0.269c-0.001,0.144-0.011,0.268-0.021,0.277
		c-0.045,0.045-0.022,0.573,0.025,0.58c0.059,0.01,0.075,0.2,0.023,0.279c-0.041,0.063-0.113,0.061-0.122-0.004
		c-0.008-0.054-0.042-0.059-0.042-0.006c0,0.02-0.011,0.04-0.023,0.044c-0.042,0.014-0.133-0.009-0.133-0.034
		c0-0.054-0.689-0.078-0.707-0.026c-0.01,0.03-0.442,0.023-0.478-0.005c-0.018-0.016-0.025-0.015-0.025,0
		c0,0.028-0.246,0.03-0.264,0.003c-0.025-0.043-1.026-0.025-1.037,0.019c-0.011,0.043-0.042,0.053-0.243,0.068
		c-0.101,0.01-0.153,0.008-0.162-0.007c-0.029-0.048-0.378-0.027-0.385,0.021c-0.004,0.03-0.027,0.049-0.078,0.063
		c-0.065,0.019-0.068,0.022-0.044,0.06c0.029,0.044,0.012,0.086-0.038,0.095c-0.035,0.005-0.038,0.013-0.019,0.063
		c0.017,0.044-0.017,0.094-0.069,0.102c-0.049,0.008-0.054,0.047-0.013,0.108c0.043,0.065,0.005,0.169-0.06,0.169
		c-0.056,0-0.066,0.096-0.021,0.184c0.037,0.069,0.004,0.188-0.051,0.188c-0.04,0-0.041,0.068-0.004,0.335
		c0.015,0.104-0.013,0.171-0.071,0.171c-0.022,0-0.034,0.01-0.028,0.019c0.006,0.012,0.024,0.015,0.041,0.009
		c0.02-0.009,0.028,0.004,0.028,0.039c0,0.038-0.01,0.051-0.039,0.051c-0.043,0-0.061,0.237-0.02,0.264
		c0.012,0.008,0.019,0.207,0.018,0.517c0,0.278,0.005,0.544,0.012,0.593c0.01,0.063,0.004,0.104-0.019,0.153
		c-0.044,0.094-0.036,0.34,0.011,0.333c0.051-0.011,0.087,0.101,0.06,0.179c-0.031,0.083-0.029,0.088,0.015,0.088
		c0.041,0,0.05,0.023,0.066,0.172c0.006,0.056,0,0.092-0.019,0.111c-0.04,0.039-0.036,0.109,0.005,0.095
		c0.063-0.025,0.124,0.162,0.065,0.198c-0.031,0.019-0.022,0.049,0.016,0.049c0.069,0,0.119,0.131,0.063,0.165
		c-0.038,0.023-0.022,0.107,0.021,0.107c0.049,0,0.069,0.048,0.042,0.106c-0.022,0.048-0.013,0.069,0.045,0.101
		c0.046,0.026,0.061,0.097,0.029,0.136c-0.02,0.024-0.016,0.028,0.017,0.028c0.069,0,0.115,0.152,0.057,0.188
		c-0.016,0.01-0.009,0.019,0.024,0.026c0.043,0.011,0.048,0.021,0.045,0.094c-0.003,0.07,0.002,0.082,0.036,0.082
		c0.035,0,0.039,0.009,0.029,0.058c-0.011,0.054-0.006,0.059,0.038,0.059c0.058,0,0.082,0.049,0.05,0.101
		c-0.03,0.049-0.029,0.052,0.021,0.06c0.031,0.005,0.045,0.021,0.05,0.06c0.003,0.031,0.018,0.054,0.033,0.054
		c0.021,0,0.025,0.021,0.016,0.085c-0.011,0.083-0.01,0.085,0.037,0.076c0.041-0.007,0.052,0.002,0.069,0.052
		c0.011,0.033,0.029,0.06,0.039,0.06c0.01,0,0.014,0.022,0.009,0.05c-0.007,0.038-0.001,0.048,0.028,0.048
		c0.047,0,0.084,0.037,0.084,0.084c0,0.019,0.01,0.033,0.022,0.033c0.013,0,0.018,0.021,0.013,0.048
		c-0.007,0.037,0,0.05,0.031,0.054c0.023,0.002,0.052,0.03,0.067,0.06c0.014,0.03,0.034,0.054,0.044,0.054
		c0.01,0,0.018,0.013,0.018,0.03c0,0.015,0.013,0.028,0.03,0.028c0.039,0,0.058,0.053,0.03,0.085
		c-0.035,0.043-0.003,0.089,0.068,0.102c0.071,0.014,0.409,0.329,0.421,0.395c0.004,0.017,0.024,0.036,0.046,0.043
		c0.099,0.026,0.185,0.118,0.185,0.199v0.076l0.075-0.011c0.09-0.017,0.218,0.049,0.218,0.108c0,0.021,0.014,0.038,0.034,0.039
		c0.067,0.002,0.152,0.068,0.146,0.113c-0.004,0.036,0.001,0.041,0.039,0.029c0.024-0.008,0.048-0.013,0.054-0.014
		c0.026-0.004,0.156,0.091,0.156,0.113c0,0.015,0.024,0.028,0.054,0.032c0.045,0.007,0.057,0.02,0.076,0.094
		c0.013,0.053,0.024,0.069,0.024,0.043c0.001-0.033,0.011-0.044,0.036-0.038c0.019,0.003,0.033,0.021,0.031,0.04
		c-0.002,0.028,0.016,0.034,0.122,0.034c0.109,0,0.13,0.005,0.167,0.048c0.024,0.027,0.058,0.048,0.076,0.048
		c0.075,0,0.272,0.119,0.272,0.163c0,0.038,0.002,0.038,0.02,0.008c0.026-0.044,0.079-0.043,0.141,0.006
		c0.027,0.021,0.059,0.04,0.07,0.04c0.05,0,0.12,0.047,0.12,0.082c0,0.031,0.012,0.036,0.102,0.03
		c0.095-0.005,0.103-0.004,0.109,0.04c0.006,0.042,0.009,0.042,0.041,0.014c0.057-0.052,0.236-0.006,0.236,0.059
		c0,0.051,0.018,0.061,0.052,0.027c0.04-0.041,0.171-0.015,0.179,0.034c0.006,0.047,0.031,0.059,0.052,0.024
		c0.033-0.053,0.224-0.004,0.224,0.058c0,0.044,0.103,0.06,0.127,0.021c0.036-0.058,0.302-0.007,0.302,0.059
		c0,0.047,0.031,0.051,0.073,0.009c0.022-0.023,0.048-0.028,0.101-0.017c0.039,0.008,0.092,0.017,0.119,0.018
		c0.027,0.002,0.06,0.006,0.073,0.006c0.013,0.003,0.024,0.025,0.024,0.053c0,0.036,0.01,0.049,0.039,0.049
		c0.026,0,0.039-0.013,0.039-0.039c0-0.037,0.009-0.039,0.132-0.028c0.449,0.036,0.473,0.041,0.473,0.09
		c0,0.042,0.537,0.057,0.579,0.015c0.027-0.026,0.206-0.027,0.257,0c0.06,0.031,0.235,0.026,0.27-0.009
		c0.037-0.036,0.055-0.036,0.092,0c0.052,0.053,0.3,0.043,0.311-0.014l0.009-0.044l0.002,0.045c0.002,0.038,0.012,0.044,0.056,0.039
		c0.039-0.004,0.052-0.015,0.047-0.04c-0.003-0.022,0.007-0.035,0.035-0.035c0.027,0,0.04,0.014,0.04,0.04
		c0,0.054,0.054,0.049,0.062-0.005c0.007-0.049,0.139-0.075,0.179-0.036c0.04,0.041,0.25,0.026,0.261-0.018
		c0.011-0.042,0.028-0.049,0.21-0.076c0.091-0.014,0.126-0.012,0.16,0.01c0.067,0.043,0.138,0.035,0.145-0.016
		c0.008-0.049,0.075-0.07,0.243-0.08c0.062-0.004,0.113-0.019,0.134-0.039c0.036-0.037,0.118-0.044,0.137-0.014
		c0.024,0.039,0.166,0.023,0.166-0.019c0-0.061,0.186-0.104,0.208-0.05c0.018,0.045,0.063,0.037,0.052-0.009
		c-0.014-0.053,0.079-0.091,0.146-0.061c0.08,0.036,0.162,0.026,0.162-0.019c0-0.055,0.086-0.094,0.137-0.063
		c0.056,0.035,0.097,0.029,0.097-0.014c0-0.021,0.014-0.047,0.032-0.056c0.036-0.021,0.104-0.009,0.104,0.018
		c0,0.01,0.021,0.017,0.048,0.017c0.038,0,0.044-0.007,0.036-0.048c-0.01-0.055,0.076-0.093,0.118-0.053
		c0.035,0.036,0.07,0.026,0.076-0.021c0.004-0.028,0.026-0.049,0.066-0.06c0.03-0.012,0.092-0.035,0.137-0.054
		c0.044-0.021,0.087-0.038,0.094-0.038c0.009,0,0.038-0.018,0.065-0.038c0.059-0.045,0.109-0.049,0.149-0.01
		c0.042,0.043,0.071,0.036,0.071-0.02c0-0.047,0.002-0.047,0.117-0.036c0.109,0.013,0.117,0.01,0.117-0.028
		c0-0.029,0.012-0.043,0.039-0.043c0.025,0,0.039-0.013,0.039-0.037c0-0.058,0.063-0.084,0.114-0.048
		c0.038,0.026,0.043,0.026,0.051-0.001l0.021-0.063c0.006-0.021,0.025-0.028,0.057-0.022c0.034,0.008,0.048,0,0.056-0.026
		c0.013-0.048,0.067-0.067,0.113-0.04c0.048,0.03,0.054,0.027,0.043-0.013c-0.014-0.054,0.045-0.095,0.093-0.065
		c0.05,0.031,0.052,0.029,0.06-0.021c0.005-0.029,0.023-0.046,0.055-0.051c0.026-0.002,0.06-0.023,0.074-0.043
		c0.014-0.021,0.047-0.038,0.069-0.038c0.024,0,0.055-0.017,0.068-0.038s0.042-0.039,0.063-0.039c0.02,0,0.045-0.016,0.056-0.033
		c0.016-0.027,0.026-0.03,0.069-0.012c0.049,0.023,0.051,0.022,0.051-0.032c0-0.063,0.008-0.069,0.226-0.177
		c0.045-0.021,0.086-0.051,0.092-0.066c0.006-0.015,0.037-0.033,0.069-0.04c0.033-0.008,0.063-0.025,0.068-0.041
		c0.007-0.016,0.03-0.028,0.051-0.028c0.022,0,0.04-0.009,0.04-0.02s0.021-0.019,0.047-0.019c0.033,0,0.05-0.012,0.054-0.043
		c0.009-0.062,0.12-0.117,0.201-0.103c0.065,0.012,0.065,0.012,0.079-0.076c0.012-0.073,0.026-0.098,0.088-0.141
		c0.04-0.028,0.078-0.064,0.085-0.078c0.005-0.016,0.022-0.028,0.038-0.028c0.014,0,0.038-0.013,0.05-0.027
		c0.016-0.019,0.045-0.024,0.091-0.018c0.058,0.01,0.067,0.006,0.067-0.03c0-0.028,0.012-0.042,0.039-0.042
		c0.022,0,0.04-0.012,0.04-0.029c0-0.016,0.017-0.028,0.038-0.028c0.026,0,0.039-0.014,0.039-0.04c0-0.021,0.013-0.038,0.03-0.038
		c0.017,0,0.028-0.019,0.028-0.039c0-0.026,0.013-0.039,0.04-0.039c0.032,0,0.039-0.014,0.039-0.079
		c0-0.042,0.008-0.077,0.019-0.077s0.019-0.014,0.019-0.03s0.017-0.036,0.036-0.042c0.047-0.018,0.102-0.076,0.102-0.115
		c0-0.055,0.114-0.157,0.176-0.159c0.078-0.002,0.098-0.02,0.083-0.074c-0.01-0.048,0.038-0.184,0.067-0.184
		c0.008,0,0.024-0.021,0.033-0.045c0.012-0.023,0.038-0.047,0.062-0.05c0.029-0.003,0.038-0.017,0.034-0.04
		c-0.017-0.058,0.067-0.178,0.124-0.178c0.044,0,0.045-0.003,0.016-0.032c-0.018-0.017-0.027-0.044-0.021-0.06
		c0.005-0.017,0.011-0.032,0.011-0.037c0-0.004,0.021-0.009,0.049-0.009c0.039,0,0.048-0.009,0.048-0.047
		c0-0.033,0.013-0.049,0.045-0.053c0.038-0.005,0.043-0.017,0.036-0.093c-0.004-0.071,0-0.083,0.024-0.073
		c0.042,0.016,0.056-0.013,0.034-0.069c-0.021-0.055,0.004-0.112,0.049-0.112c0.02,0,0.026-0.011,0.019-0.036
		c-0.014-0.045,0.034-0.09,0.076-0.074c0.017,0.006,0.03,0.001,0.03-0.016c0-0.014-0.013-0.031-0.03-0.037
		c-0.04-0.017-0.036-0.078,0.01-0.12c0.021-0.019,0.04-0.054,0.04-0.076c0-0.088,0.021-0.129,0.07-0.129
		c0.044,0,0.045-0.002,0.018-0.044c-0.037-0.056-0.002-0.138,0.062-0.147c0.051-0.007,0.056-0.027,0.014-0.063
		c-0.034-0.027-0.036-0.061-0.008-0.159c0.021-0.074,0.082-0.103,0.104-0.049c0.005,0.013,0.009-0.012,0.011-0.054
		c0-0.044-0.011-0.096-0.026-0.115c-0.02-0.024-0.022-0.05-0.011-0.088c0.009-0.028,0.017-0.064,0.016-0.081
		c-0.006-0.071,0.006-0.097,0.043-0.097c0.044,0,0.058-0.129,0.018-0.17c-0.05-0.05-0.012-0.366,0.045-0.374
		c0.073-0.007,0.086-0.271,0.014-0.29c-0.06-0.016-0.055-0.154,0.005-0.167l0.045-0.009l-0.042-0.003
		c-0.051-0.002-0.058-0.031-0.076-0.336c-0.007-0.141-0.005-0.212,0.009-0.221c0.041-0.025,0.026-0.187-0.017-0.187
		c-0.045,0-0.053-0.026-0.07-0.216c-0.01-0.122-0.007-0.152,0.018-0.179c0.024-0.023,0.031-0.067,0.031-0.155
		c-0.002-0.068-0.007-0.112-0.012-0.099c-0.015,0.034-0.062,0.029-0.081-0.011c-0.033-0.063-0.042-0.35-0.012-0.389
		c0.048-0.063,0.038-0.532-0.012-0.519c-0.021,0.006-0.038,0-0.038-0.013c0-0.019,0.026-0.028,0.063-0.023
		c0.023,0.005,0.017-0.243-0.008-0.299c-0.026-0.059-0.017-0.073,0.05-0.073c0.026,0,0.054-0.014,0.059-0.029
		c0.005-0.015,0.021-0.022,0.031-0.015c0.016,0.009,0.018-0.013,0.01-0.072c-0.019-0.133,0.16-0.317,0.29-0.298l0.088,0.013
		l0.013-0.081c0.01-0.063,0.025-0.086,0.059-0.1c0.026-0.011,0.047-0.026,0.047-0.04c0-0.016,0.019-0.018,0.057-0.011
		c0.052,0.011,0.06,0.008,0.06-0.038c0-0.028,0.015-0.053,0.033-0.059c0.02-0.008,0.05-0.025,0.067-0.041
		c0.025-0.021,0.042-0.022,0.071-0.007c0.036,0.019,0.041,0.014,0.046-0.032c0.003-0.035,0.019-0.057,0.045-0.062
		c0.021-0.004,0.056-0.021,0.077-0.04c0.057-0.049,0.15-0.086,0.2-0.081c0.033,0.003,0.044-0.006,0.044-0.037
		c0-0.05,0.051-0.072,0.099-0.044c0.03,0.019,0.036,0.016,0.041-0.031c0.006-0.044,0.016-0.052,0.064-0.052
		c0.038,0,0.063-0.012,0.073-0.034c0.007-0.02,0.036-0.042,0.062-0.053c0.026-0.01,0.053-0.027,0.06-0.039
		c0.009-0.015,0.025-0.015,0.054,0c0.043,0.025,0.067,0.009,0.079-0.051c0.008-0.04,0.015-0.041,0.089-0.019
		c0.037,0.011,0.042,0.005,0.042-0.038c0-0.058,0.045-0.085,0.087-0.05c0.023,0.018,0.029,0.014,0.035-0.021
		c0.002-0.024,0.024-0.052,0.045-0.064c0.021-0.012,0.046-0.032,0.055-0.045c0.007-0.015,0.036-0.024,0.062-0.024
		c0.028,0,0.048-0.012,0.048-0.028c0-0.032,0.123-0.129,0.165-0.129c0.017,0,0.03-0.009,0.03-0.019c0-0.011,0.019-0.019,0.041-0.019
		s0.038-0.015,0.038-0.03c0-0.021,0.021-0.03,0.078-0.03c0.064,0,0.078-0.006,0.078-0.038c0-0.026,0.013-0.039,0.04-0.039
		c0.021,0,0.039-0.014,0.039-0.027c0-0.017,0.018-0.035,0.041-0.041c0.035-0.012,0.04-0.022,0.03-0.078
		c-0.01-0.047-0.005-0.066,0.017-0.074c0.017-0.007,0.03-0.03,0.03-0.052s0.008-0.041,0.018-0.041c0.01,0,0.023-0.021,0.029-0.047
		c0.009-0.039,0.025-0.049,0.073-0.049c0.054,0,0.056-0.004,0.028-0.031c-0.054-0.054-0.022-0.125,0.054-0.125
		c0.033,0,0.037-0.009,0.026-0.096c-0.017-0.114-0.002-0.159,0.047-0.159c0.043,0,0.055-0.11,0.017-0.148
		c-0.024-0.024-0.017-0.425,0.008-0.48c0.013-0.026,0.009-0.033-0.023-0.033c-0.022,0-0.045-0.009-0.051-0.021
		c-0.007-0.01-0.043-0.032-0.08-0.047c-0.046-0.02-0.067-0.042-0.067-0.067c0-0.044-0.122-0.062-0.146-0.021
		c-0.017,0.026-0.452,0.026-0.469,0c-0.025-0.041-0.4-0.024-0.4,0.019c0,0.026-0.017,0.043-0.047,0.05l-0.101,0.021
		c-0.029,0.006-0.07-0.002-0.097-0.021c-0.045-0.028-0.155-0.022-0.136,0.008c0.031,0.049-0.09,0.087-0.184,0.059
		c-0.019-0.005-0.031,0.008-0.036,0.035c-0.007,0.049-0.11,0.082-0.146,0.046c-0.042-0.041-0.111-0.024-0.111,0.027
		c0,0.049-0.071,0.088-0.114,0.062c-0.012-0.008-0.025,0.004-0.031,0.026c-0.021,0.062-0.124,0.073-0.131,0.014
		c0-0.013-0.007,0.004-0.015,0.036c-0.013,0.062-0.084,0.091-0.126,0.05c-0.045-0.046-0.087-0.023-0.1,0.057
		c-0.012,0.063-0.031,0.091-0.1,0.141c-0.048,0.033-0.086,0.069-0.086,0.078c0,0.007-0.013,0.016-0.029,0.016
		c-0.017,0-0.03,0.014-0.03,0.03s-0.013,0.035-0.029,0.04c-0.017,0.008-0.029,0.023-0.029,0.038s-0.018,0.035-0.04,0.048
		c-0.021,0.012-0.039,0.029-0.039,0.038c0,0.031-0.105,0.132-0.152,0.146c-0.042,0.013-0.044,0.011-0.025-0.024
		c0.025-0.048,0.025-0.034,0.028-0.544c0.001-0.227,0.008-0.418,0.018-0.428c0.03-0.03,0.014-0.087-0.024-0.087
		c-0.048,0-0.071-0.076-0.042-0.132c0.038-0.072,0.026-0.112-0.032-0.111c-0.06,0.001-0.088-0.071-0.045-0.113
		c0.03-0.03,0.023-0.051-0.015-0.039c-0.052,0.013-0.09-0.039-0.064-0.088c0.022-0.042,0.01-0.061-0.041-0.061
		c-0.02,0-0.036-0.016-0.036-0.03c0-0.016-0.017-0.045-0.034-0.065c-0.054-0.055-0.123-0.154-0.123-0.177
		c0-0.012-0.031-0.033-0.067-0.049c-0.037-0.017-0.076-0.05-0.086-0.075c-0.025-0.062-0.117-0.151-0.185-0.176
		c-0.019-0.008-0.041-0.03-0.045-0.052c-0.008-0.024-0.022-0.032-0.048-0.027c-0.045,0.013-0.095-0.025-0.095-0.074
		c0-0.042-0.058-0.049-0.116-0.013c-0.029,0.018-0.049,0.018-0.087,0C-292.129,397.255-292.137,397.257-292.137,397.284
		 M-295.52,399.086c0.048,0.039,0.032,1.679-0.017,1.729c-0.032,0.032-0.082,0.035-0.653,0.028
		c-0.885-0.007-0.875-0.005-0.882-0.233c-0.012-0.438-0.039-0.865-0.068-1.093c-0.061-0.452-0.032-0.465,1.078-0.459
		C-295.684,399.061-295.541,399.066-295.52,399.086 M-297.373,399.223c0.012,0.021,0.023,0.126,0.036,0.358
		c0.004,0.076,0.018,0.189,0.029,0.255c0.031,0.174,0.03,0.926-0.002,0.955c-0.024,0.023-0.776,0.063-1.478,0.078
		c-0.156,0.003-0.332,0.017-0.391,0.027c-0.059,0.014-0.238,0.028-0.399,0.033c-0.161,0.006-0.323,0.019-0.361,0.028
		c-0.037,0.01-0.143,0.023-0.233,0.028c-0.091,0.006-0.299,0.025-0.461,0.043c-0.421,0.045-0.397,0.077-0.378-0.501
		c0.008-0.231,0.01-0.482,0.005-0.558c-0.013-0.187,0.004-0.216,0.143-0.232c0.061-0.007,0.159-0.03,0.218-0.051
		c0.062-0.021,0.162-0.037,0.229-0.037c0.066,0,0.146-0.012,0.178-0.027s0.126-0.033,0.212-0.04
		c0.086-0.008,0.166-0.021,0.177-0.033c0.013-0.009,0.101-0.022,0.196-0.028c0.095-0.005,0.204-0.019,0.242-0.03
		c0.038-0.013,0.174-0.032,0.302-0.049c0.129-0.014,0.282-0.035,0.341-0.046c0.059-0.01,0.177-0.025,0.263-0.032
		c0.086-0.004,0.165-0.017,0.176-0.025c0.01-0.01,0.094-0.023,0.186-0.03c0.091-0.008,0.2-0.022,0.244-0.032
		C-297.666,399.219-297.393,399.19-297.373,399.223 M-296.486,399.227c0,0.057,0.033,0.076,0.043,0.026
		c0.007-0.036,0.001-0.052-0.017-0.052C-296.475,399.201-296.486,399.212-296.486,399.227 M-298.047,401.02
		c0.157-0.005,0.721,0.022,0.744,0.036c0.03,0.019,0.069,0.567,0.074,1.052c0.002,0.156,0.011,0.428,0.021,0.604
		c0.014,0.243,0.013,0.328-0.005,0.35c-0.036,0.043-1.317,0.007-1.374-0.04c-0.072-0.058-0.093-1.163-0.034-1.808
		c0.02-0.214,0.033-0.223,0.307-0.205C-298.194,401.015-298.074,401.021-298.047,401.02 M-293.974,401.029
		c0.024,0.04,0.009,1.155-0.017,1.391c-0.01,0.091-0.019,0.207-0.019,0.257c0,0.107-0.012,0.119-0.155,0.136
		c-0.06,0.006-0.174,0.021-0.255,0.034l-0.34,0.054c-0.483,0.076-0.603,0.066-0.564-0.037c0.007-0.025,0.017-0.412,0.021-0.862
		c0.002-0.451,0.009-0.838,0.015-0.861c0.014-0.063,0.038-0.065,0.602-0.094c0.288-0.015,0.528-0.031,0.536-0.038
		C-294.124,400.981-293.991,400.997-293.974,401.029 M-296.236,401.064c0.665,0.011,0.695,0.016,0.719,0.103
		c0.012,0.048,0.017,0.564,0.012,1.137c-0.002,0.123-0.002,0.298-0.002,0.39c0.001,0.171-0.037,0.311-0.086,0.313
		c-0.014,0.001-0.209,0.015-0.436,0.031c-1.037,0.076-0.984,0.09-0.985-0.28c0-0.138-0.005-0.568-0.012-0.957
		c-0.013-0.776-0.014-0.773,0.098-0.757C-296.895,401.049-296.583,401.058-296.236,401.064 M-298.753,401.098
		c0.017,0.017,0.023,0.208,0.023,0.736c0,0.392,0.01,0.774,0.02,0.851c0.011,0.073,0.025,0.171,0.031,0.214
		c0.02,0.143-0.167,0.167-0.738,0.098c-0.125-0.017-0.358-0.033-0.517-0.04c-0.159-0.008-0.32-0.021-0.358-0.031
		c-0.037-0.011-0.248-0.026-0.468-0.038c-0.22-0.011-0.422-0.028-0.449-0.038c-0.026-0.011-0.208-0.026-0.404-0.038
		c-0.195-0.013-0.398-0.028-0.452-0.038c-0.053-0.011-0.247-0.025-0.432-0.034c-0.452-0.018-0.425,0.025-0.467-0.737
		c-0.009-0.161-0.022-0.355-0.031-0.434l-0.014-0.141l0.056-0.021c0.031-0.013,0.083-0.017,0.115-0.013
		c0.032,0.007,0.151,0.003,0.264-0.006c0.113-0.012,0.24-0.021,0.283-0.026c0.042-0.004,0.222-0.013,0.399-0.021
		c0.32-0.014,0.639-0.037,0.957-0.073c0.091-0.009,0.221-0.018,0.289-0.018c0.067,0,0.137-0.009,0.156-0.018
		c0.018-0.01,0.155-0.021,0.306-0.028c0.15-0.008,0.349-0.021,0.443-0.034c0.093-0.011,0.188-0.014,0.208-0.008
		c0.021,0.007,0.076-0.001,0.123-0.016c0.045-0.017,0.192-0.034,0.326-0.04c0.133-0.008,0.247-0.018,0.252-0.021
		C-298.813,401.066-298.777,401.074-298.753,401.098 M-296.832,401.571c0,0.053,0.002,0.074,0.007,0.044
		c0.004-0.03,0.004-0.074,0-0.098C-296.829,401.494-296.833,401.518-296.832,401.571 M-296.832,401.776
		c0,0.059,0.002,0.084,0.007,0.053c0.004-0.035,0.004-0.071,0-0.107C-296.829,401.693-296.832,401.718-296.832,401.776
		 M-292.195,401.862c0,0.017-0.013,0.031-0.028,0.031c-0.031,0-0.038,0.038-0.018,0.111c0.016,0.055,0.065,0.059,0.065,0.006
		c0-0.021,0.019-0.048,0.041-0.061c0.055-0.027,0.042-0.103-0.016-0.111C-292.181,401.834-292.195,401.843-292.195,401.862
		 M-294.726,401.942c0,0.054,0.004,0.072,0.008,0.044c0.005-0.031,0.005-0.074,0-0.098
		C-294.722,401.865-294.727,401.889-294.726,401.942 M-296.833,401.961c0,0.043,0.004,0.059,0.009,0.035
		c0.004-0.023,0.004-0.06,0-0.079C-296.829,401.898-296.834,401.919-296.833,401.961 M-294.727,402.107
		c0,0.039,0.005,0.053,0.009,0.035c0.005-0.019,0.005-0.05,0-0.067C-294.722,402.055-294.727,402.07-294.727,402.107
		 M-292.284,402.068c-0.007,0.013-0.004,0.031,0.006,0.043c0.025,0.024,0.045-0.008,0.025-0.04
		C-292.265,402.051-292.271,402.051-292.284,402.068 M-294.727,402.322c0,0.037,0.005,0.054,0.009,0.034
		c0.005-0.02,0.005-0.049,0-0.068C-294.722,402.27-294.727,402.285-294.727,402.322 M-298.278,405.348
		c0.006,0.017,0.052,0.033,0.112,0.04c0.185,0.022,0.191,0.101,0.012,0.16c-0.132,0.044-0.139,0.049-0.259,0.171
		c-0.203,0.209-0.313,0.582-0.247,0.831c0.021,0.079,0.177,0.27,0.241,0.296c0.027,0.013,0.062,0.029,0.078,0.039
		c0.236,0.143,0.607,0.071,0.826-0.16c0.113-0.119,0.148-0.126,0.149-0.031c0.001,0.034-0.07,0.205-0.099,0.241
		c-0.009,0.012-0.058,0.073-0.109,0.139c-0.099,0.125-0.222,0.242-0.255,0.242c-0.011,0-0.023,0.008-0.027,0.017
		c-0.006,0.015-0.126,0.073-0.299,0.149c-0.146,0.063-0.592,0.066-0.771,0.004c-0.306-0.107-0.507-0.254-0.61-0.446
		c-0.024-0.046-0.06-0.105-0.076-0.133c-0.03-0.046-0.073-0.393-0.058-0.468c0.004-0.017,0.014-0.075,0.024-0.129
		c0.03-0.166,0.201-0.488,0.286-0.539c0.015-0.01,0.026-0.026,0.026-0.039c0-0.012,0.016-0.031,0.034-0.045
		c0.019-0.014,0.027-0.032,0.019-0.04c-0.017-0.018-0.288,0.255-0.329,0.33c-0.152,0.282-0.165,0.315-0.197,0.574
		c-0.043,0.341,0.198,0.81,0.493,0.957c0.081,0.041,0.139,0.075,0.161,0.098c0.012,0.013,0.038,0.023,0.057,0.023
		c0.019,0,0.087,0.018,0.151,0.039c0.16,0.056,0.674,0.063,0.789,0.013c0.042-0.018,0.094-0.033,0.118-0.033
		c0.022,0,0.06-0.011,0.083-0.024c0.022-0.014,0.097-0.054,0.166-0.09c0.169-0.089,0.292-0.189,0.372-0.299
		c0.036-0.05,0.071-0.093,0.079-0.093c0.007,0,0.019-0.027,0.025-0.06s0.021-0.063,0.031-0.069c0.136-0.084,0.184-0.701,0.07-0.919
		c-0.018-0.036-0.032-0.073-0.032-0.086c0-0.088-0.313-0.436-0.454-0.504c-0.051-0.024-0.097-0.052-0.103-0.06
		c-0.005-0.01-0.036-0.022-0.068-0.03c-0.039-0.009-0.076-0.022-0.112-0.04C-298.066,405.336-298.288,405.315-298.278,405.348
		 M-298.828,405.365c-0.021,0.014-0.005,0.019,0.059,0.019c0.048,0,0.101-0.008,0.117-0.019c0.021-0.015,0.005-0.019-0.059-0.019
		C-298.759,405.347-298.812,405.355-298.828,405.365 M-298.983,405.43l-0.049,0.021l0.045,0.008c0.026,0.005,0.055,0,0.066-0.01
		C-298.891,405.418-298.93,405.406-298.983,405.43"/>
	<path fill="#0780B6" d="M-296.936,399.122c-0.135,0.041-0.189,0.09-0.177,0.163c0.004,0.023,0.056,0.72,0.082,1.11
		c0.015,0.212,0.033,0.354,0.046,0.364c0.022,0.02,0.874,0.06,1.226,0.06c0.145,0.001,0.171-0.005,0.188-0.035
		c0.036-0.066,0.043-1.655,0.008-1.67C-295.607,399.098-296.878,399.105-296.936,399.122 M-296.232,399.224l0.077,0.043l0.002,0.148
		c0.004,0.34,0.036,1.031,0.047,1.108c0.021,0.139-0.023,0.187-0.169,0.176c-0.154-0.011-0.15,0.001-0.171-0.391
		c-0.009-0.188-0.023-0.354-0.031-0.365c-0.016-0.026-0.05-0.745-0.036-0.768C-296.493,399.146-296.314,399.177-296.232,399.224
		 M-295.739,399.206c0.041,0.03,0.06,0.816,0.02,0.827c-0.029,0.011-0.046-0.154-0.048-0.462c-0.002-0.255-0.012-0.292-0.087-0.292
		c-0.066,0-0.066,0.009-0.06,0.686c0.007,0.69,0.004,0.669,0.123,0.654c0.108-0.012,0.112-0.016,0.088-0.095
		c-0.036-0.114-0.061-0.31-0.045-0.353l0.016-0.041l0.039,0.039c0.062,0.062,0.062,0.489,0,0.513
		c-0.048,0.018-0.263,0.011-0.283-0.008c-0.007-0.008-0.013-0.103-0.014-0.213c0-0.108-0.004-0.431-0.007-0.714l-0.007-0.517
		l0.067-0.023C-295.851,399.177-295.78,399.177-295.739,399.206 M-296.75,399.229l0.098,0.025l0.012,0.516
		c0.006,0.284,0.019,0.528,0.027,0.543c0.027,0.043,0.046,0.339,0.025,0.366c-0.012,0.014-0.069,0.023-0.15,0.023
		c-0.199,0-0.19,0.023-0.208-0.507C-296.983,399.164-296.983,399.167-296.75,399.229 M-297.726,399.289
		c-0.049,0.018-0.063,0.026-0.036,0.027c0.023,0,0.071-0.011,0.107-0.027C-297.574,399.255-297.619,399.255-297.726,399.289
		 M-297.404,399.413l0.01,0.149l0.006-0.135c0.004-0.075-0.001-0.142-0.009-0.151C-297.406,399.27-297.409,399.329-297.404,399.413
		 M-296.413,399.309c-0.019,0.044-0.012,0.163,0.043,0.673c0.01,0.081,0.017,0.255,0.018,0.386c0.001,0.263,0.013,0.286,0.112,0.24
		l0.049-0.021l-0.012-0.308c-0.007-0.169-0.017-0.39-0.021-0.492c-0.013-0.395-0.038-0.489-0.129-0.514
		C-296.38,399.266-296.398,399.276-296.413,399.309 M-296.853,399.324c-0.02,0.023-0.016,0.609,0.006,0.833
		c0.005,0.048,0.014,0.165,0.021,0.26c0.013,0.184,0.036,0.218,0.12,0.195c0.053-0.014,0.055-0.079,0.012-0.259
		c-0.021-0.089-0.033-0.267-0.039-0.577c-0.008-0.402-0.012-0.45-0.042-0.462C-296.824,399.295-296.832,399.295-296.853,399.324
		 M-297.955,399.333c0.029,0.004,0.059,0.004,0.088,0c0.024-0.005,0.004-0.009-0.044-0.009
		C-297.959,399.324-297.979,399.328-297.955,399.333 M-298.152,399.352c-0.007,0.008-0.051,0.019-0.096,0.027
		c-0.081,0.012-0.082,0.012-0.015,0.014c0.038,0.003,0.108-0.009,0.156-0.024c0.081-0.025,0.083-0.027,0.028-0.029
		C-298.111,399.339-298.144,399.343-298.152,399.352 M-298.54,399.41c0.034,0.005,0.096,0.005,0.136,0
		c0.041-0.004,0.012-0.008-0.063-0.008C-298.542,399.402-298.575,399.406-298.54,399.41 M-298.658,399.429
		c-0.006,0.007-0.063,0.02-0.125,0.027l-0.113,0.016l0.124-0.007c0.1-0.005,0.229-0.05,0.147-0.05
		C-298.636,399.415-298.65,399.422-298.658,399.429 M-299.198,399.507l-0.127,0.024l0.108-0.01c0.188-0.017,0.319-0.043,0.224-0.041
		C-299.037,399.48-299.128,399.491-299.198,399.507 M-299.428,399.545c0.02,0.007,0.05,0.007,0.069,0
		c0.019-0.004,0.003-0.008-0.034-0.008C-299.431,399.537-299.446,399.541-299.428,399.545 M-299.616,399.567
		c-0.007,0.007-0.059,0.019-0.116,0.026l-0.101,0.014l0.098-0.007c0.137-0.008,0.279-0.043,0.193-0.046
		C-299.574,399.553-299.608,399.559-299.616,399.567 M-299.964,399.624c0.029,0.005,0.06,0.005,0.088,0
		c0.024-0.005,0.004-0.007-0.044-0.007C-299.968,399.617-299.988,399.619-299.964,399.624 M-300.193,399.662l-0.087,0.026
		l0.094-0.01c0.096-0.01,0.202-0.05,0.12-0.045C-300.088,399.635-300.145,399.647-300.193,399.662 M-300.451,399.702
		c0.035,0.006,0.087,0.006,0.117,0c0.029-0.005,0-0.007-0.064-0.007C-300.462,399.695-300.486,399.697-300.451,399.702
		 M-300.571,399.722c-0.007,0.007-0.05,0.021-0.096,0.028l-0.083,0.015l0.095-0.006c0.079-0.006,0.183-0.05,0.117-0.05
		C-300.548,399.709-300.563,399.715-300.571,399.722 M-297.37,400.069c0.005,0.193,0.018,0.364,0.028,0.382
		c0.018,0.028,0.005-0.298-0.024-0.581C-297.375,399.775-297.376,399.85-297.37,400.069 M-300.869,399.786
		c-0.068,0.028-0.075,0.058-0.076,0.313c0,0.134-0.007,0.345-0.015,0.469c-0.009,0.162-0.007,0.204,0.006,0.156
		c0.011-0.039,0.023-0.252,0.026-0.474c0.004-0.224,0.01-0.409,0.014-0.414c0.004-0.004,0.039-0.02,0.076-0.036
		C-300.766,399.77-300.795,399.758-300.869,399.786 M-297.319,400.614c0,0.066,0.003,0.09,0.008,0.056
		c0.004-0.036,0.004-0.089,0-0.118S-297.319,400.551-297.319,400.614 M-297.574,400.758c0.052,0.002,0.13,0.002,0.175-0.001
		c0.045-0.004,0.004-0.008-0.093-0.008S-297.625,400.753-297.574,400.758 M-298.242,400.791c-0.275,0.032-0.116,0.033,0.214,0.001
		c0.197-0.018,0.229-0.025,0.127-0.025C-297.976,400.767-298.13,400.778-298.242,400.791 M-298.803,400.814
		c0.036,0.005,0.071,0.005,0.107,0c0.03-0.005,0.006-0.008-0.053-0.008S-298.833,400.81-298.803,400.814 M-299.334,400.835
		c-0.038,0.003-0.077,0.017-0.087,0.027c-0.014,0.015-0.006,0.017,0.026,0.007c0.026-0.007,0.144-0.021,0.264-0.028l0.217-0.014
		h-0.176C-299.188,400.827-299.297,400.83-299.334,400.835 M-300.99,400.882c-0.004,0.099,0.012,0.113,0.122,0.111l0.101-0.004
		l-0.098-0.01c-0.094-0.013-0.099-0.017-0.11-0.081C-300.985,400.841-300.988,400.838-300.99,400.882 M-299.719,400.894
		c0.051,0.005,0.13,0.005,0.175,0c0.046-0.005,0.003-0.008-0.093-0.008C-299.734,400.886-299.771,400.889-299.719,400.894
		 M-300.21,400.919c-0.229,0.046-0.094,0.044,0.193-0.002l0.088-0.014h-0.098C-300.081,400.903-300.164,400.91-300.21,400.919
		 M-300.617,400.971c0.035,0.005,0.071,0.005,0.106,0c0.029-0.004,0.006-0.009-0.053-0.009S-300.647,400.967-300.617,400.971
		 M-294.089,401.043c-0.005,0.005-0.167,0.02-0.36,0.03c-0.516,0.029-0.771,0.054-0.789,0.072c-0.01,0.009-0.02,0.411-0.021,0.895
		l-0.004,0.877l0.096-0.004c0.064-0.005,0.128-0.013,0.193-0.024c0.119-0.021,0.502-0.077,0.74-0.105l0.176-0.021l0.012-0.205
		c0.007-0.113,0.02-0.368,0.025-0.565c0.006-0.198,0.015-0.486,0.021-0.639c0.009-0.261,0.008-0.278-0.027-0.297
		C-294.069,401.033-294.077,401.031-294.089,401.043 M-298.553,401.072c-0.052,0.033-0.077,1.063-0.042,1.719l0.011,0.205
		l0.137,0.002c0.075,0,0.259,0.008,0.409,0.015c0.661,0.03,0.743,0.031,0.774,0.007c0.032-0.026,0.024-0.4-0.021-1.088
		c-0.011-0.155-0.02-0.407-0.02-0.56c-0.001-0.198-0.009-0.281-0.025-0.292C-297.365,401.058-298.52,401.051-298.553,401.072
		 M-296.988,401.107c-0.006,0.015-0.004,0.353,0.003,0.751c0.008,0.4,0.012,0.804,0.011,0.899c-0.002,0.133,0.004,0.183,0.029,0.222
		l0.033,0.051l0.413-0.014c0.589-0.02,0.871-0.045,0.908-0.08c0.035-0.034,0.056-1.731,0.023-1.781
		c-0.014-0.021-0.117-0.028-0.474-0.036c-0.25-0.004-0.495-0.012-0.543-0.019C-296.752,401.078-296.979,401.082-296.988,401.107
		 M-298.979,401.146c0.04,0.004,0.105,0.004,0.146,0c0.04-0.005,0.008-0.008-0.073-0.008S-299.019,401.142-298.979,401.146
		 M-297.429,401.148c0.056,0.036,0.065,0.133,0.06,0.626c-0.005,0.429,0,0.507,0.026,0.557c0.035,0.066,0.067,0.457,0.045,0.546
		c-0.012,0.05-0.016,0.053-0.152,0.046l-0.139-0.006l-0.014-0.116c-0.008-0.074-0.005-0.139,0.008-0.173
		c0.017-0.044,0.016-0.065-0.01-0.108c-0.026-0.045-0.028-0.066-0.009-0.127c0.018-0.057,0.018-0.083-0.001-0.111
		c-0.039-0.062-0.057-1.073-0.021-1.103C-297.587,401.139-297.47,401.122-297.429,401.148 M-294.16,401.167
		c0.033,0.036,0.062,1.427,0.029,1.459c-0.008,0.007-0.053,0.018-0.101,0.022c-0.107,0.013-0.135-0.026-0.138-0.199
		c-0.002-0.064-0.01-0.368-0.019-0.675c-0.017-0.557-0.017-0.558,0.025-0.601C-294.312,401.122-294.204,401.118-294.16,401.167
		 M-299.334,401.182c-0.075,0.021-0.08,0.026-0.029,0.026c0.032,0,0.093-0.013,0.136-0.026
		C-299.122,401.146-299.213,401.148-299.334,401.182 M-298.157,401.208c0.027,0.03,0.029,0.046,0.011,0.093
		c-0.016,0.038-0.022,0.3-0.021,0.829c0,0.581-0.005,0.779-0.022,0.793c-0.038,0.03-0.246,0.04-0.268,0.014
		c-0.058-0.069-0.066-1.137-0.013-1.56l0.023-0.177l0.106-0.011c0.06-0.005,0.118-0.013,0.129-0.016
		C-298.2,401.173-298.175,401.189-298.157,401.208 M-294.625,401.203c0.044,0.017,0.038,0.037-0.018,0.063l-0.048,0.022l0.007,0.644
		c0.009,0.723,0.004,0.686,0.104,0.663c0.107-0.025,0.122,0.011,0.025,0.06c-0.205,0.104-0.212,0.077-0.216-0.739
		C-294.777,401.148-294.777,401.146-294.625,401.203 M-299.788,401.225c0.029,0.005,0.059,0.005,0.088,0
		c0.024-0.005,0.004-0.009-0.044-0.009C-299.792,401.216-299.813,401.22-299.788,401.225 M-297.746,401.254
		c0.022,0.089,0.001,1.632-0.021,1.654c-0.033,0.032-0.26,0.045-0.264,0.014c-0.009-0.077-0.01-0.143-0.018-1.077
		c0-0.075-0.003-0.149-0.004-0.166c-0.006-0.055,0.027-0.402,0.041-0.424C-297.971,401.193-297.76,401.191-297.746,401.254
		 M-295.715,401.234c0.009,0.011,0.018,0.242,0.021,0.512c0.003,0.269,0.014,0.51,0.024,0.537c0.01,0.026,0.024,0.151,0.03,0.276
		l0.01,0.23l-0.078,0.041c-0.117,0.058-0.215,0.046-0.236-0.03c-0.064-0.237-0.074-1.481-0.013-1.546
		C-295.91,401.205-295.741,401.19-295.715,401.234 M-294.903,401.266c0.03,0.074,0.038,0.184,0.045,0.539
		c0.014,0.927,0.015,0.907-0.031,0.907c-0.01,0-0.019-0.066-0.017-0.151c0-0.082-0.009-0.181-0.021-0.22
		c-0.012-0.036-0.026-0.266-0.031-0.517c-0.011-0.455-0.03-0.584-0.075-0.498c-0.013,0.024-0.019,0.16-0.015,0.366
		c0.006,0.396,0.006,0.953,0,0.987c-0.002,0.013,0.02,0.026,0.053,0.029c0.137,0.016,0.101,0.081-0.044,0.081l-0.083,0.001v-0.553
		c0-0.302-0.002-0.646-0.002-0.768c-0.002-0.258,0-0.261,0.112-0.261C-294.936,401.21-294.921,401.217-294.903,401.266
		 M-294.489,401.24c0.014,0.039,0.013,1.019-0.001,1.079c-0.031,0.125-0.048-0.055-0.048-0.533
		c-0.001-0.291-0.009-0.521-0.019-0.528c-0.009-0.006-0.013-0.019-0.007-0.028C-294.547,401.2-294.502,401.208-294.489,401.24
		 M-299.988,401.248c-0.021,0.01-0.14,0.018-0.261,0.019c-0.123,0.001-0.228,0.006-0.233,0.013
		c-0.021,0.021,0.461,0.005,0.553-0.019c0.077-0.021,0.085-0.026,0.039-0.026C-299.923,401.234-299.967,401.24-299.988,401.248
		 M-298.78,401.824c0,0.333,0.003,0.472,0.006,0.31c0.003-0.163,0.003-0.437,0-0.604
		C-298.777,401.359-298.78,401.492-298.78,401.824 M-297.547,401.266c-0.039,0.042-0.045,0.3-0.01,0.423
		c0.013,0.048,0.022,0.287,0.024,0.608c0.002,0.56,0.006,0.581,0.092,0.567c0.058-0.006,0.071-0.064,0.052-0.219
		c-0.009-0.064-0.024-0.18-0.033-0.255c-0.009-0.076-0.019-0.359-0.02-0.632c-0.001-0.272-0.007-0.502-0.013-0.512
		C-297.471,401.22-297.513,401.228-297.547,401.266 M-296.567,401.275c0.014,0.025,0.024,0.059,0.021,0.072
		c-0.002,0.017,0.001,0.043,0.008,0.059c0.038,0.085,0.005,0.595-0.038,0.6c-0.053,0.008-0.069-0.107-0.042-0.317
		c0.033-0.271-0.017-0.435-0.114-0.372l-0.052,0.035l0.013,0.382l0.025,0.75l0.012,0.366l0.056,0.014
		c0.069,0.019,0.072,0.05,0.006,0.071c-0.061,0.02-0.137,0.002-0.151-0.036c-0.051-0.132-0.054-1.605-0.005-1.641
		C-296.764,401.21-296.596,401.222-296.567,401.275 M-298.341,401.275l-0.047,0.023v0.768c0,0.813,0,0.812,0.092,0.798
		c0.045-0.005,0.045-0.006,0.045-0.328c0-0.177,0.004-0.531,0.009-0.786C-298.234,401.242-298.238,401.225-298.341,401.275
		 M-294.314,401.279c-0.007,0.017,0,0.203,0.013,0.414c0.013,0.212,0.028,0.491,0.032,0.623c0.007,0.187,0.015,0.239,0.038,0.248
		c0.058,0.021,0.064-0.103,0.038-0.76c-0.007-0.182-0.013-0.374-0.014-0.428c0-0.054-0.009-0.104-0.022-0.111
		C-294.267,401.24-294.303,401.247-294.314,401.279 M-297.938,401.298c-0.008,0.022-0.021,1.395-0.013,1.548
		c0.001,0.018,0.024,0.023,0.074,0.019l0.073-0.005l-0.003-0.254c-0.002-0.14-0.005-0.488-0.006-0.776
		c-0.002-0.486-0.006-0.522-0.039-0.54C-297.902,401.263-297.924,401.266-297.938,401.298 M-296.144,401.293
		c0.026,0.039,0.021,1.248-0.005,1.258c-0.042,0.014-0.05-0.067-0.059-0.627c-0.01-0.626-0.005-0.586-0.075-0.568l-0.051,0.013
		l0.015,0.463c0.019,0.531,0.018,0.563-0.015,0.602c-0.017,0.021-0.017,0.033,0,0.051c0.012,0.013,0.022,0.079,0.022,0.152
		c0,0.151,0.024,0.185,0.116,0.165c0.054-0.013,0.06-0.021,0.058-0.085c-0.003-0.133,0.034-0.187,0.052-0.072
		c0.022,0.144-0.009,0.19-0.167,0.243c-0.081,0.026-0.152-0.031-0.118-0.094c0.012-0.021,0.008-0.041-0.009-0.062
		c-0.05-0.056-0.05-1.397-0.001-1.435C-296.334,401.263-296.166,401.261-296.144,401.293 M-295.883,401.306l-0.044,0.034
		l0.032,0.534c0.018,0.296,0.032,0.604,0.032,0.686c0,0.172,0.009,0.211,0.057,0.211c0.1,0,0.126-0.17,0.069-0.438
		c-0.018-0.086-0.032-0.301-0.038-0.582C-295.786,401.229-295.787,401.227-295.883,401.306 M-300.846,401.319l-0.137,0.026
		l0.137-0.012c0.075-0.006,0.185-0.018,0.244-0.025l0.107-0.015l-0.107-0.001C-300.662,401.293-300.771,401.306-300.846,401.319
		 M-301.329,401.361c0.068,0.004,0.173,0.004,0.234,0c0.061-0.004,0.006-0.006-0.123-0.006
		C-301.346,401.355-301.396,401.357-301.329,401.361 M-301.773,401.387c-0.038,0.009-0.151,0.016-0.252,0.018
		c-0.101,0-0.188,0.006-0.195,0.014c-0.02,0.021,0.511-0.005,0.564-0.027l0.049-0.021h-0.049
		C-301.683,401.369-301.736,401.378-301.773,401.387 M-302.607,401.438c0.041,0.005,0.106,0.005,0.146,0
		c0.041-0.003,0.008-0.007-0.073-0.007S-302.647,401.436-302.607,401.438 M-302.938,401.718c0,0.049,0.003,0.068,0.008,0.044
		c0.005-0.029,0.005-0.059,0-0.088C-302.935,401.649-302.938,401.67-302.938,401.718 M-302.919,401.902
		c0,0.054,0.006,0.12,0.015,0.147c0.023,0.068,0.023-0.033,0.001-0.156l-0.015-0.089L-302.919,401.902z M-296.52,402.131
		c0.007,0.067,0.004,0.57-0.005,0.696c-0.005,0.083-0.05-0.007-0.052-0.106c-0.002-0.13-0.024-0.58-0.029-0.605
		c-0.007-0.044,0.005-0.065,0.038-0.065C-296.539,402.05-296.528,402.067-296.52,402.131 M-302.89,402.353
		c0.005,0.128,0.011,0.242,0.015,0.253c0.013,0.038,0.005-0.372-0.009-0.429C-302.891,402.144-302.894,402.224-302.89,402.353
		 M-298.762,402.791c0,0.112,0.003,0.158,0.007,0.103c0.004-0.069,0.004-0.137,0-0.205
		C-298.759,402.632-298.762,402.679-298.762,402.791 M-302.837,402.659c0.02,0.011,0.099,0.024,0.175,0.026
		c0.178,0.011,0.113-0.022-0.075-0.037C-302.837,402.641-302.864,402.644-302.837,402.659 M-302.432,402.707
		c0.02,0.004,0.049,0.004,0.069,0c0.018-0.005,0.003-0.009-0.035-0.009C-302.435,402.698-302.45,402.702-302.432,402.707
		 M-302.275,402.708c0.03,0.003,0.073,0.003,0.098-0.001c0.024-0.005,0-0.009-0.054-0.009S-302.305,402.703-302.275,402.708
		 M-301.88,402.731c0.085,0.01,0.195,0.021,0.243,0.029c0.057,0.005,0.077,0.003,0.059-0.008c-0.016-0.01-0.125-0.022-0.244-0.028
		C-302.021,402.715-302.025,402.716-301.88,402.731 M-301.408,402.785c0.035,0.003,0.096,0.003,0.137,0
		c0.04-0.003,0.012-0.008-0.063-0.008S-301.442,402.782-301.408,402.785 M-301.07,402.811c0.069,0.008,0.197,0.019,0.282,0.026
		l0.156,0.012l-0.146-0.028c-0.081-0.015-0.208-0.027-0.283-0.025l-0.136,0.001L-301.07,402.811z M-300.33,402.869
		c0.221,0.026,0.462,0.039,0.352,0.02c-0.049-0.01-0.181-0.021-0.293-0.025C-300.458,402.854-300.463,402.854-300.33,402.869
		 M-299.847,402.922c0.024,0.005,0.059,0.004,0.078-0.001c0.019-0.005-0.001-0.008-0.044-0.008
		C-299.855,402.913-299.871,402.917-299.847,402.922 M-299.403,402.948c0.221,0.025,0.591,0.04,0.478,0.019
		c-0.048-0.009-0.21-0.021-0.36-0.026C-299.513,402.935-299.533,402.935-299.403,402.948"/>
	<path fill="#0A4C74" d="M-291.707,397.631c0.036,0.038,0.07,0.069,0.076,0.069c0.005,0-0.021-0.031-0.057-0.069
		c-0.036-0.038-0.07-0.068-0.076-0.068C-291.769,397.563-291.744,397.593-291.707,397.631 M-291.455,397.947
		c0.026,0.036,0.05,0.065,0.055,0.065c0.014,0-0.035-0.074-0.067-0.101C-291.488,397.895-291.483,397.908-291.455,397.947
		 M-291.259,398.308c0,0.017,0.014,0.043,0.033,0.057c0.028,0.025,0.03,0.024,0.007-0.021
		C-291.254,398.277-291.259,398.273-291.259,398.308 M-291.179,398.46c0,0.006,0.012,0.055,0.026,0.107
		c0.017,0.06,0.027,0.078,0.028,0.05C-291.124,398.577-291.176,398.427-291.179,398.46 M-292.641,398.715
		c-0.012,0.021-0.023,0.048-0.023,0.062c0,0.015,0.013,0,0.03-0.03C-292.601,398.68-292.605,398.657-292.641,398.715
		 M-291.103,398.803c0,0.03,0.009,0.07,0.019,0.087c0.012,0.02,0.015,0.004,0.007-0.049
		C-291.092,398.744-291.103,398.729-291.103,398.803 M-288.509,398.832l-0.087,0.013l0.091,0.003
		c0.05,0.002,0.097-0.007,0.104-0.016c0.006-0.013,0.005-0.021-0.004-0.018C-288.414,398.815-288.46,398.823-288.509,398.832
		 M-288.785,398.845c0.023,0.005,0.058,0.005,0.077,0c0.018-0.005,0-0.009-0.043-0.009
		C-288.795,398.836-288.811,398.84-288.785,398.845 M-287.928,398.87c0.033,0.013,0.045,0.035,0.047,0.092l0.002,0.073l0.008-0.063
		c0.009-0.071-0.02-0.121-0.07-0.12C-287.961,398.853-287.958,398.858-287.928,398.87 M-289.147,398.89
		c-0.024,0.011-0.044,0.022-0.044,0.029s0.008,0.007,0.02,0c0.01-0.007,0.056-0.02,0.103-0.028c0.067-0.014,0.071-0.017,0.024-0.018
		C-289.077,398.873-289.124,398.881-289.147,398.89 M-289.765,399.058c-0.021,0.014-0.056,0.026-0.08,0.026
		c-0.021,0-0.057,0.014-0.079,0.027c-0.042,0.034-0.026,0.042,0.026,0.013c0.018-0.01,0.055-0.022,0.082-0.028
		c0.057-0.012,0.111-0.044,0.096-0.058C-289.724,399.034-289.745,399.041-289.765,399.058 M-296.772,399.068
		c-0.378,0.024-0.417,0.073-0.368,0.448c0.029,0.228,0.056,0.654,0.068,1.093c0.006,0.229-0.003,0.227,0.882,0.233
		c0.571,0.007,0.621,0.004,0.653-0.028c0.049-0.05,0.064-1.689,0.017-1.729C-295.553,399.058-296.43,399.046-296.772,399.068
		 M-295.563,399.114c0.035,0.015,0.027,1.604-0.008,1.67c-0.017,0.03-0.043,0.036-0.188,0.035c-0.353,0-1.204-0.04-1.226-0.06
		c-0.013-0.011-0.031-0.152-0.046-0.364c-0.026-0.391-0.077-1.087-0.082-1.11c-0.012-0.073,0.042-0.122,0.177-0.163
		C-296.878,399.105-295.607,399.098-295.563,399.114 M-296.513,399.176c-0.014,0.022,0.02,0.741,0.036,0.768
		c0.008,0.012,0.022,0.177,0.031,0.365c0.021,0.392,0.017,0.38,0.171,0.391c0.146,0.011,0.19-0.037,0.169-0.176
		c-0.012-0.077-0.043-0.769-0.047-1.108l-0.002-0.148l-0.077-0.043C-296.314,399.177-296.493,399.146-296.513,399.176
		 M-295.938,399.208l-0.067,0.023l0.007,0.517c0.003,0.283,0.007,0.605,0.007,0.714c0.001,0.11,0.007,0.205,0.014,0.213
		c0.02,0.019,0.235,0.025,0.283,0.008c0.062-0.023,0.062-0.451,0-0.513l-0.039-0.039l-0.016,0.041
		c-0.016,0.043,0.009,0.238,0.045,0.353c0.024,0.079,0.021,0.083-0.088,0.095c-0.119,0.015-0.116,0.036-0.123-0.654
		c-0.006-0.677-0.006-0.686,0.06-0.686c0.075,0,0.084,0.037,0.087,0.292c0.002,0.308,0.019,0.473,0.048,0.462
		c0.04-0.011,0.021-0.797-0.02-0.827C-295.78,399.177-295.851,399.177-295.938,399.208 M-297.686,399.234
		c-0.075,0.013-0.172,0.03-0.215,0.042c-0.043,0.01-0.153,0.024-0.244,0.032c-0.091,0.007-0.175,0.021-0.186,0.03
		c-0.012,0.009-0.09,0.021-0.176,0.025c-0.085,0.007-0.204,0.022-0.263,0.032c-0.059,0.011-0.212,0.032-0.341,0.046
		c-0.128,0.017-0.265,0.036-0.302,0.049c-0.038,0.012-0.147,0.025-0.242,0.03c-0.096,0.006-0.184,0.02-0.196,0.028
		c-0.012,0.012-0.091,0.025-0.177,0.034c-0.085,0.007-0.182,0.023-0.214,0.037c-0.032,0.016-0.089,0.03-0.127,0.034
		c-0.065,0.007-0.064,0.009,0.014,0.012c0.045,0.002,0.106-0.007,0.136-0.019c0.03-0.01,0.146-0.032,0.259-0.048
		c0.113-0.015,0.254-0.035,0.313-0.047c0.06-0.011,0.235-0.037,0.391-0.059c0.155-0.021,0.349-0.049,0.429-0.06
		c0.08-0.012,0.223-0.03,0.317-0.04c0.094-0.012,0.212-0.029,0.264-0.039c0.051-0.011,0.164-0.027,0.25-0.038
		c0.087-0.011,0.209-0.032,0.273-0.048c0.164-0.043,0.34-0.041,0.342,0.004c0,0.019,0.009,0.141,0.017,0.269
		c0.036,0.517,0.064,1.178,0.053,1.208c-0.009,0.023-0.042,0.031-0.144,0.031c-0.073,0-0.316,0.014-0.542,0.029
		c-0.226,0.018-0.515,0.03-0.644,0.029c-0.128,0-0.326,0.009-0.438,0.02c-0.112,0.009-0.378,0.03-0.591,0.048
		c-0.212,0.015-0.393,0.032-0.401,0.037c-0.026,0.017-0.862,0.074-0.894,0.063c-0.026-0.011-0.028-0.06-0.013-0.398
		c0.009-0.211,0.015-0.474,0.011-0.582c-0.007-0.241-0.002-0.246,0.208-0.279c0.145-0.022,0.279-0.076,0.195-0.079
		c-0.018,0-0.067,0.013-0.11,0.027c-0.043,0.017-0.127,0.035-0.188,0.042c-0.142,0.018-0.148,0.031-0.141,0.314
		c0.004,0.126,0,0.381-0.008,0.562c-0.021,0.479-0.039,0.46,0.378,0.415c0.162-0.018,0.37-0.037,0.461-0.043
		c0.091-0.005,0.196-0.019,0.233-0.028c0.038-0.01,0.201-0.022,0.361-0.028c0.161-0.005,0.341-0.02,0.399-0.033
		c0.06-0.011,0.235-0.024,0.391-0.027c0.702-0.016,1.454-0.055,1.478-0.078c0.032-0.029,0.034-0.781,0.002-0.955
		c-0.012-0.065-0.025-0.179-0.029-0.255C-297.361,399.155-297.341,399.177-297.686,399.234 M-296.918,399.238
		c-0.054,0.045-0.056,0.144-0.029,0.958c0.019,0.53,0.01,0.507,0.208,0.507c0.081,0,0.138-0.01,0.15-0.023
		c0.021-0.027,0.002-0.323-0.025-0.366c-0.008-0.015-0.021-0.259-0.027-0.543l-0.012-0.516l-0.098-0.025
		C-296.875,399.195-296.865,399.195-296.918,399.238 M-296.443,399.253c-0.007,0.035-0.014,0.042-0.026,0.023
		c-0.025-0.039-0.021-0.075,0.009-0.075C-296.442,399.201-296.437,399.217-296.443,399.253 M-296.286,399.314
		c0.032,0.037,0.054,0.199,0.063,0.472c0.003,0.103,0.013,0.323,0.021,0.492l0.012,0.308l-0.049,0.021
		c-0.099,0.046-0.111,0.022-0.112-0.24c0-0.131-0.008-0.305-0.018-0.386c-0.055-0.51-0.062-0.629-0.043-0.673
		C-296.389,399.258-296.334,399.26-296.286,399.314 M-296.774,399.314c0.031,0.012,0.035,0.06,0.042,0.462
		c0.005,0.311,0.017,0.488,0.039,0.577c0.043,0.18,0.041,0.245-0.012,0.259c-0.084,0.022-0.107-0.012-0.12-0.195
		c-0.006-0.087-0.013-0.174-0.021-0.26c-0.004-0.049-0.013-0.25-0.018-0.447C-296.875,399.308-296.87,399.277-296.774,399.314
		 M-290.626,399.517c-0.058,0.063-0.058,0.063-0.005,0.024c0.029-0.021,0.057-0.048,0.063-0.063
		C-290.552,399.441-290.564,399.449-290.626,399.517 M-292.517,399.723c0.056,0.112,0.068,0.129,0.068,0.1
		c0-0.018-0.018-0.053-0.041-0.077C-292.512,399.72-292.524,399.71-292.517,399.723 M-291.092,399.905
		c-0.007,0.109-0.01,0.202-0.003,0.207c0.015,0.015,0.091-0.033,0.089-0.059c0-0.015-0.006-0.015-0.018,0.004
		c-0.041,0.064-0.06-0.003-0.046-0.174c0.006-0.097,0.008-0.175,0.002-0.175S-291.083,399.798-291.092,399.905 M-288.295,399.879
		l-0.067,0.073l0.073-0.067c0.068-0.063,0.082-0.078,0.068-0.078C-288.226,399.807-288.258,399.839-288.295,399.879
		 M-288.831,400.337l-0.058,0.063l0.063-0.057c0.036-0.031,0.064-0.061,0.064-0.063
		C-288.762,400.265-288.778,400.278-288.831,400.337 M-289.288,400.605c-0.038,0.021-0.062,0.038-0.054,0.038
		c0.021,0.002,0.131-0.056,0.131-0.066C-289.21,400.563-289.212,400.563-289.288,400.605 M-292.019,400.655
		c0,0.009,0.013,0.04,0.028,0.068c0.016,0.027,0.029,0.038,0.029,0.029c0-0.012-0.013-0.043-0.029-0.069
		C-292.006,400.657-292.019,400.644-292.019,400.655 M-289.533,400.742c-0.031,0.021-0.048,0.04-0.036,0.04
		c0.022,0,0.125-0.076,0.105-0.078C-289.469,400.704-289.5,400.722-289.533,400.742 M-291.921,400.988
		c0,0.02,0.009,0.05,0.019,0.067c0.015,0.021,0.017,0.011,0.007-0.03C-291.912,400.953-291.921,400.938-291.921,400.988
		 M-298.571,401.031c-0.104,0.105-0.119,1.907-0.017,1.989c0.057,0.047,1.338,0.083,1.374,0.04c0.018-0.021,0.019-0.106,0.005-0.35
		c-0.01-0.176-0.019-0.447-0.021-0.604c-0.005-0.484-0.044-1.033-0.074-1.052c-0.023-0.014-0.587-0.041-0.744-0.036
		c-0.027,0.001-0.146-0.005-0.267-0.012C-298.515,400.995-298.536,400.997-298.571,401.031 M-294.15,401.008
		c-0.007,0.007-0.248,0.023-0.536,0.038c-0.564,0.028-0.587,0.031-0.602,0.094c-0.006,0.023-0.013,0.41-0.015,0.861
		c-0.005,0.45-0.014,0.837-0.021,0.862c-0.038,0.104,0.081,0.113,0.564,0.037l0.34-0.054c0.081-0.013,0.195-0.028,0.255-0.034
		c0.143-0.017,0.155-0.028,0.155-0.136c0-0.05,0.009-0.166,0.019-0.257c0.026-0.235,0.041-1.351,0.017-1.391
		C-293.991,400.997-294.124,400.981-294.15,401.008 M-297.013,401.063c-0.02,0.023-0.022,0.182-0.013,0.736
		c0.006,0.389,0.012,0.819,0.012,0.957c0.001,0.37-0.052,0.356,0.985,0.28c0.226-0.017,0.421-0.03,0.436-0.031
		c0.049-0.002,0.087-0.142,0.086-0.313c0-0.092,0-0.267,0.002-0.39c0.004-0.572,0-1.089-0.012-1.137
		c-0.024-0.087-0.055-0.092-0.719-0.103c-0.346-0.007-0.658-0.016-0.691-0.021C-296.968,401.037-296.997,401.044-297.013,401.063
		 M-294.026,401.056c0.036,0.019,0.037,0.036,0.027,0.297c-0.006,0.152-0.016,0.44-0.021,0.639
		c-0.006,0.197-0.018,0.452-0.025,0.565l-0.012,0.205l-0.176,0.021c-0.238,0.028-0.622,0.084-0.74,0.105
		c-0.055,0.011-0.141,0.021-0.193,0.024l-0.096,0.004l0.004-0.877c0.001-0.483,0.011-0.886,0.021-0.895
		c0.018-0.019,0.273-0.043,0.789-0.072c0.193-0.011,0.354-0.025,0.36-0.03C-294.077,401.031-294.069,401.033-294.026,401.056
		 M-297.33,401.08c0.017,0.011,0.024,0.094,0.025,0.292c0,0.152,0.009,0.404,0.02,0.56c0.045,0.688,0.053,1.062,0.021,1.088
		c-0.031,0.024-0.113,0.023-0.774-0.007c-0.15-0.007-0.334-0.015-0.409-0.015l-0.137-0.002l-0.011-0.205
		c-0.035-0.655-0.01-1.686,0.042-1.719C-298.52,401.051-297.365,401.058-297.33,401.08 M-298.83,401.084
		c-0.005,0.004-0.119,0.014-0.252,0.021c-0.134,0.006-0.281,0.023-0.326,0.04c-0.047,0.015-0.102,0.022-0.123,0.016
		c-0.021-0.006-0.115-0.003-0.208,0.008c-0.094,0.013-0.293,0.026-0.443,0.034c-0.151,0.007-0.289,0.019-0.306,0.028
		c-0.019,0.009-0.089,0.018-0.156,0.018c-0.068,0-0.198,0.009-0.289,0.018c-0.318,0.036-0.637,0.06-0.957,0.073
		c-0.177,0.008-0.356,0.017-0.399,0.021c-0.043,0.005-0.17,0.015-0.283,0.026c-0.113,0.009-0.231,0.013-0.264,0.006
		c-0.032-0.004-0.083,0-0.115,0.013l-0.056,0.021l0.014,0.141c0.009,0.078,0.022,0.272,0.031,0.434
		c0.042,0.763,0.016,0.72,0.467,0.737c0.185,0.009,0.378,0.023,0.432,0.034c0.054,0.01,0.257,0.025,0.452,0.038
		c0.195,0.012,0.377,0.027,0.404,0.038c0.026,0.01,0.229,0.027,0.449,0.038c0.22,0.012,0.431,0.027,0.468,0.038
		c0.038,0.01,0.199,0.023,0.358,0.031c0.159,0.007,0.392,0.023,0.517,0.04c0.572,0.069,0.758,0.045,0.738-0.098
		c-0.006-0.043-0.02-0.141-0.031-0.214c-0.01-0.076-0.02-0.459-0.02-0.851c0-0.719-0.005-0.76-0.07-0.76
		C-298.811,401.074-298.825,401.078-298.83,401.084 M-296.584,401.101c0.048,0.007,0.293,0.015,0.543,0.019
		c0.357,0.008,0.46,0.015,0.474,0.036c0.033,0.05,0.012,1.747-0.023,1.781c-0.037,0.035-0.319,0.061-0.908,0.08l-0.413,0.014
		l-0.033-0.051c-0.025-0.039-0.032-0.089-0.029-0.222c0.001-0.096-0.003-0.499-0.011-0.899c-0.007-0.398-0.009-0.736-0.003-0.751
		C-296.979,401.082-296.752,401.078-296.584,401.101 M-290.176,401.114c-0.032,0.021-0.049,0.037-0.036,0.037
		c0.012,0,0.043-0.016,0.067-0.038C-290.086,401.064-290.1,401.065-290.176,401.114 M-298.749,402.031
		c0.007,0.5,0.018,0.918,0.025,0.932c0.034,0.053-0.181,0.052-0.826-0.002c-0.199-0.018-0.434-0.036-0.523-0.041
		c-0.088-0.007-0.17-0.016-0.18-0.021c-0.01-0.008-0.157-0.021-0.326-0.031c-0.169-0.011-0.452-0.033-0.629-0.05
		c-0.502-0.048-0.717-0.064-1.187-0.093c-0.319-0.019-0.442-0.034-0.461-0.053c-0.031-0.033-0.129-1.137-0.106-1.2
		c0.014-0.039,0.033-0.043,0.323-0.057c0.17-0.007,0.353-0.018,0.406-0.021s0.198-0.012,0.321-0.018
		c0.124-0.008,0.229-0.017,0.234-0.02c0.006-0.005,0.147-0.014,0.313-0.02s0.398-0.025,0.517-0.04
		c0.203-0.026,0.369-0.039,0.682-0.058c0.076-0.004,0.199-0.018,0.273-0.027c0.075-0.013,0.207-0.021,0.293-0.022
		c0.085,0,0.187-0.009,0.224-0.021c0.089-0.026,0.306-0.047,0.478-0.047h0.137L-298.749,402.031z M-297.569,401.146
		c-0.095,0.023-0.094,0.021-0.082,0.576c0.008,0.359,0.019,0.533,0.037,0.56c0.019,0.028,0.019,0.055,0.001,0.111
		c-0.019,0.061-0.017,0.082,0.009,0.127c0.025,0.043,0.027,0.064,0.01,0.108c-0.013,0.034-0.016,0.099-0.008,0.173l0.014,0.116
		l0.139,0.006c0.136,0.007,0.14,0.004,0.152-0.046c0.022-0.089-0.01-0.479-0.045-0.546c-0.027-0.05-0.031-0.128-0.026-0.557
		C-297.362,401.137-297.375,401.098-297.569,401.146 M-294.363,401.174c-0.042,0.043-0.042,0.044-0.025,0.601
		c0.008,0.307,0.016,0.61,0.019,0.675c0.003,0.173,0.031,0.212,0.138,0.199c0.048-0.005,0.093-0.016,0.101-0.022
		c0.033-0.032,0.004-1.423-0.029-1.459C-294.204,401.118-294.312,401.122-294.363,401.174 M-290.328,401.203
		c-0.041,0.026-0.072,0.051-0.072,0.056c0,0.013,0.133-0.068,0.147-0.09C-290.238,401.146-290.245,401.148-290.328,401.203
		 M-298.34,401.189l-0.106,0.011l-0.023,0.177c-0.054,0.423-0.045,1.49,0.013,1.56c0.022,0.026,0.23,0.017,0.268-0.014
		c0.017-0.014,0.023-0.212,0.022-0.793c-0.001-0.529,0.005-0.791,0.021-0.829c0.022-0.061-0.016-0.134-0.065-0.127
		C-298.223,401.177-298.281,401.185-298.34,401.189 M-294.748,401.209c-0.033,0.021-0.033,1.367-0.001,1.428
		c0.031,0.058,0.102,0.064,0.194,0.018c0.097-0.049,0.082-0.085-0.025-0.06c-0.099,0.022-0.094,0.06-0.104-0.663l-0.007-0.644
		l0.048-0.022c0.056-0.025,0.062-0.046,0.018-0.063C-294.669,401.187-294.717,401.189-294.748,401.209 M-297.969,401.225
		c-0.016,0.007-0.035,0.021-0.042,0.03c-0.014,0.021-0.047,0.369-0.041,0.424c0.001,0.017,0.004,0.091,0.004,0.166
		c0.008,0.935,0.009,1,0.018,1.077c0.003,0.031,0.231,0.019,0.264-0.014c0.022-0.022,0.043-1.565,0.021-1.654
		C-297.755,401.21-297.886,401.193-297.969,401.225 M-295.957,401.255c-0.061,0.064-0.051,1.309,0.013,1.546
		c0.021,0.076,0.119,0.088,0.236,0.03l0.078-0.041l-0.01-0.23c-0.006-0.125-0.02-0.25-0.03-0.276
		c-0.01-0.027-0.021-0.269-0.024-0.537c-0.003-0.27-0.012-0.501-0.021-0.512C-295.741,401.19-295.91,401.205-295.957,401.255
		 M-295.112,401.231c-0.007,0.012-0.012,0.119-0.012,0.239c0,0.121,0.002,0.466,0.002,0.768v0.553l0.083-0.001
		c0.145,0,0.181-0.065,0.044-0.081c-0.033-0.003-0.056-0.017-0.053-0.029c0.006-0.034,0.006-0.592,0-0.987
		c-0.004-0.206,0.002-0.342,0.015-0.366c0.045-0.086,0.064,0.043,0.075,0.498c0.005,0.251,0.019,0.48,0.031,0.517
		c0.012,0.039,0.021,0.138,0.021,0.22c-0.002,0.141,0.014,0.186,0.048,0.132c0.007-0.011,0.011-0.144,0.008-0.297
		c-0.017-1.209-0.013-1.186-0.163-1.186C-295.06,401.21-295.105,401.22-295.112,401.231 M-294.565,401.229
		c-0.005,0.01-0.002,0.022,0.007,0.028c0.01,0.008,0.018,0.237,0.019,0.528c0,0.479,0.017,0.658,0.048,0.533
		c0.014-0.061,0.015-1.04,0.001-1.079C-294.502,401.208-294.547,401.2-294.565,401.229 M-297.455,401.247
		c0.006,0.01,0.012,0.239,0.013,0.512c0.001,0.272,0.011,0.556,0.02,0.632c0.009,0.075,0.024,0.19,0.033,0.255
		c0.02,0.154,0.006,0.213-0.052,0.219c-0.086,0.014-0.09-0.008-0.092-0.567c-0.002-0.321-0.012-0.561-0.024-0.608
		C-297.621,401.458-297.54,401.107-297.455,401.247 M-296.829,401.258c-0.049,0.035-0.046,1.509,0.005,1.641
		c0.014,0.038,0.09,0.056,0.151,0.036c0.065-0.021,0.063-0.053-0.006-0.071l-0.056-0.014l-0.012-0.366l-0.025-0.75l-0.013-0.382
		l0.052-0.035c0.097-0.063,0.146,0.102,0.114,0.372c-0.026,0.21-0.01,0.325,0.042,0.317c0.043-0.005,0.076-0.515,0.038-0.6
		c-0.007-0.016-0.011-0.042-0.008-0.059C-296.529,401.245-296.724,401.182-296.829,401.258 M-298.243,401.75
		c-0.005,0.255-0.009,0.609-0.009,0.786c0,0.322,0,0.323-0.045,0.328c-0.092,0.014-0.092,0.015-0.092-0.798v-0.768l0.047-0.023
		C-298.238,401.225-298.234,401.242-298.243,401.75 M-294.23,401.266c0.013,0.007,0.022,0.058,0.022,0.111s0.007,0.246,0.014,0.428
		c0.026,0.657,0.02,0.781-0.038,0.76c-0.023-0.009-0.031-0.062-0.038-0.248c-0.003-0.132-0.019-0.411-0.032-0.623
		C-294.33,401.25-294.322,401.207-294.23,401.266 M-297.853,401.289c0.033,0.018,0.037,0.054,0.039,0.54
		c0.001,0.288,0.004,0.637,0.006,0.776l0.003,0.254l-0.073,0.005c-0.05,0.005-0.073-0.001-0.074-0.019
		c-0.007-0.153,0.005-1.525,0.013-1.548C-297.924,401.266-297.902,401.263-297.853,401.289 M-296.381,401.297
		c-0.049,0.037-0.049,1.379,0.001,1.435c0.017,0.021,0.021,0.041,0.009,0.062c-0.035,0.063,0.037,0.12,0.118,0.094
		c0.157-0.053,0.188-0.1,0.167-0.243c-0.018-0.114-0.055-0.061-0.052,0.072c0.002,0.064-0.004,0.072-0.058,0.085
		c-0.092,0.02-0.116-0.014-0.116-0.165c0-0.073-0.01-0.14-0.022-0.152c-0.017-0.018-0.017-0.03,0-0.051
		c0.032-0.038,0.033-0.07,0.015-0.602l-0.015-0.463l0.051-0.013c0.07-0.018,0.065-0.058,0.075,0.568
		c0.009,0.56,0.017,0.641,0.059,0.627c0.026-0.01,0.031-1.219,0.005-1.258C-296.166,401.261-296.334,401.263-296.381,401.297
		 M-295.795,401.286c0.005,0.01,0.014,0.218,0.021,0.464c0.006,0.281,0.02,0.496,0.038,0.582c0.057,0.269,0.031,0.438-0.069,0.438
		c-0.048,0-0.057-0.039-0.057-0.211c0-0.082-0.014-0.39-0.032-0.686l-0.032-0.534l0.044-0.034
		C-295.833,401.266-295.813,401.261-295.795,401.286 M-291.907,401.436c-0.009,0.054-0.019,0.123-0.023,0.156
		c-0.006,0.031,0.002,0.014,0.019-0.04s0.026-0.124,0.024-0.156C-291.892,401.351-291.896,401.36-291.907,401.436 M-296.824,401.615
		c-0.005,0.03-0.007,0.009-0.007-0.044c-0.001-0.054,0.002-0.077,0.007-0.054C-296.82,401.541-296.82,401.585-296.824,401.615
		 M-290.854,401.637c-0.017,0.028-0.047,0.073-0.064,0.101l-0.034,0.049l0.043-0.049c0.063-0.072,0.105-0.137,0.096-0.146
		C-290.816,401.588-290.836,401.607-290.854,401.637 M-296.824,401.829c-0.005,0.031-0.007,0.006-0.007-0.053
		s0.002-0.083,0.007-0.055C-296.82,401.758-296.82,401.794-296.824,401.829 M-291.988,401.742l-0.034,0.063l0.041-0.045
		c0.034-0.04,0.053-0.081,0.034-0.081C-291.95,401.679-291.969,401.708-291.988,401.742 M-291.013,401.856
		c-0.022,0.045-0.024,0.055-0.003,0.038c0.024-0.021,0.056-0.099,0.04-0.099C-290.981,401.796-290.997,401.823-291.013,401.856
		 M-294.717,401.986c-0.004,0.028-0.008,0.01-0.008-0.044c-0.001-0.054,0.004-0.077,0.008-0.054
		C-294.712,401.912-294.712,401.955-294.717,401.986 M-296.824,401.996c-0.005,0.023-0.009,0.008-0.009-0.035
		c-0.001-0.042,0.004-0.063,0.009-0.044C-296.82,401.937-296.82,401.973-296.824,401.996 M-291.088,402.026
		c-0.042,0.117-0.028,0.13,0.016,0.015c0.018-0.05,0.03-0.094,0.025-0.098C-291.053,401.938-291.069,401.976-291.088,402.026
		 M-296.605,402.075c-0.002,0.013-0.002,0.025,0,0.04c0.005,0.025,0.026,0.476,0.029,0.605c0.002,0.1,0.047,0.189,0.052,0.106
		c0.009-0.126,0.012-0.629,0.005-0.696C-296.529,402.053-296.599,402.005-296.605,402.075 M-294.717,402.143
		c-0.004,0.018-0.009,0.004-0.009-0.035c0-0.037,0.005-0.053,0.009-0.032C-294.712,402.093-294.712,402.124-294.717,402.143
		 M-294.717,402.356c-0.004,0.02-0.009,0.003-0.009-0.034s0.005-0.053,0.009-0.034
		C-294.712,402.308-294.712,402.337-294.717,402.356 M-291.193,402.565c0,0.15,0.002,0.209,0.007,0.132
		c0.003-0.079,0.003-0.201,0-0.272C-291.19,402.353-291.193,402.416-291.193,402.565 M-305.152,402.922
		c0.045,0.004,0.12,0.004,0.166,0c0.045-0.005,0.008-0.008-0.083-0.008S-305.199,402.917-305.152,402.922 M-306.736,402.989
		c-0.017,0.025-0.031,0.053-0.03,0.063c0,0.013,0.014-0.005,0.03-0.034c0.03-0.056,0.03-0.056,0.203-0.049
		c0.095,0.002,0.179,0,0.185-0.007c0.007-0.006-0.071-0.014-0.173-0.015C-306.691,402.945-306.708,402.948-306.736,402.989
		 M-303.519,402.963c0.004,0.004,0.067,0.009,0.137,0.012c0.086,0.002,0.114-0.003,0.084-0.013
		C-303.342,402.944-303.536,402.945-303.519,402.963 M-294.039,403.035c-0.079,0.035-0.032,0.035,0.051,0
		c0.037-0.016,0.053-0.027,0.037-0.027C-293.967,403.008-294.006,403.02-294.039,403.035 M-302.397,403.043
		c0.027,0.01,0.075,0.018,0.108,0.018c0.056,0,0.057-0.001,0.009-0.018c-0.027-0.006-0.075-0.014-0.107-0.014
		C-302.445,403.029-302.445,403.029-302.397,403.043 M-302.119,403.077c0.03,0.005,0.074,0.005,0.098,0
		c0.023-0.005-0.001-0.008-0.055-0.008C-302.129,403.069-302.148,403.073-302.119,403.077 M-291.166,403.522
		c0.006,0.235,0.013,0.433,0.017,0.437c0.013,0.015,0.004-0.528-0.011-0.7C-291.169,403.162-291.171,403.271-291.166,403.522
		 M-301.407,403.137c0.024,0.005,0.06,0.005,0.078,0c0.019-0.006-0.001-0.01-0.043-0.01
		C-301.416,403.127-301.432,403.132-301.407,403.137 M-301.222,403.155c0.018,0.005,0.049,0.005,0.067,0
		c0.02-0.005,0.004-0.01-0.034-0.01C-301.225,403.146-301.241,403.15-301.222,403.155 M-301.05,403.168
		c0.005,0.004,0.061,0.013,0.125,0.019c0.078,0.007,0.097,0.006,0.059-0.005C-300.926,403.165-301.064,403.155-301.05,403.168
		 M-294.672,403.181c-0.017,0.011-0.052,0.02-0.079,0.022c-0.041,0.002-0.042,0.004-0.009,0.01c0.021,0.005,0.07-0.005,0.107-0.021
		c0.038-0.016,0.055-0.028,0.038-0.028C-294.63,403.163-294.656,403.169-294.672,403.181 M-300.383,403.234
		c0.036,0.005,0.072,0.005,0.107,0c0.03-0.005,0.005-0.009-0.054-0.009C-300.388,403.226-300.413,403.229-300.383,403.234
		 M-300.191,403.245c0.004,0.006,0.057,0.013,0.115,0.021c0.069,0.006,0.09,0.004,0.059-0.007
		C-300.066,403.243-300.207,403.233-300.191,403.245 M-299.808,403.292c0.024,0.004,0.06,0.004,0.078,0
		c0.019-0.005-0.001-0.009-0.044-0.009C-299.816,403.284-299.832,403.288-299.808,403.292 M-299.344,403.317
		c0.021,0.01,0.052,0.017,0.068,0.017c0.019,0,0.015-0.006-0.009-0.017c-0.021-0.01-0.053-0.017-0.069-0.017
		C-299.373,403.301-299.37,403.307-299.344,403.317 M-299.179,403.304c0,0.006,0.029,0.02,0.063,0.031s0.054,0.015,0.044,0.004
		C-299.094,403.319-299.179,403.292-299.179,403.304 M-295.597,403.312c-0.007,0.008-0.081,0.019-0.163,0.026l-0.151,0.013
		l0.127,0.002c0.1,0.002,0.305-0.047,0.221-0.054C-295.574,403.298-295.589,403.303-295.597,403.312 M-298.647,403.37
		c0.019,0.004,0.049,0.004,0.068,0c0.019-0.005,0.003-0.01-0.035-0.01C-298.65,403.36-298.666,403.365-298.647,403.37
		 M-297.818,403.391c0.035,0.003,0.088,0.003,0.117,0c0.029-0.005,0.001-0.009-0.063-0.009S-297.853,403.386-297.818,403.391
		 M-297.111,403.389c0,0.017,0.323,0.021,0.339,0.005c0.006-0.005-0.069-0.012-0.164-0.015
		C-297.033,403.377-297.111,403.381-297.111,403.389 M-291.155,404.098c0,0.059,0.002,0.083,0.007,0.054
		c0.004-0.036,0.004-0.071,0-0.107C-291.152,404.015-291.155,404.039-291.155,404.098 M-306.896,404.292
		c0,0.123,0.004,0.174,0.008,0.114c0.003-0.076,0.003-0.15,0-0.226C-306.893,404.119-306.896,404.17-306.896,404.292
		 M-291.171,404.478c-0.009,0.038-0.01,0.076-0.005,0.081c0.006,0.004,0.017-0.022,0.024-0.063c0.007-0.038,0.008-0.075,0.002-0.081
		C-291.155,404.41-291.165,404.438-291.171,404.478 M-306.899,404.644c0,0.038,0.004,0.053,0.009,0.033
		c0.004-0.018,0.004-0.049,0-0.066C-306.895,404.591-306.899,404.605-306.899,404.644 M-291.175,404.658
		c-0.001,0.048,0.004,0.062,0.016,0.043c0.021-0.035,0.023-0.091,0.002-0.104C-291.167,404.591-291.174,404.62-291.175,404.658
		 M-306.899,404.917c0,0.037,0.004,0.053,0.009,0.034c0.004-0.02,0.004-0.051,0-0.069
		C-306.895,404.864-306.899,404.88-306.899,404.917 M-306.898,405.093c0,0.049,0.003,0.067,0.008,0.044
		c0.004-0.03,0.004-0.06,0-0.089C-306.895,405.024-306.898,405.043-306.898,405.093 M-291.214,405.248
		c0,0.049,0.004,0.068,0.008,0.045c0.003-0.03,0.003-0.059,0-0.089C-291.21,405.181-291.214,405.2-291.214,405.248
		 M-306.922,405.249c0,0.026,0.009,0.062,0.02,0.078c0.013,0.021,0.016,0.009,0.006-0.04
		C-306.912,405.203-306.923,405.187-306.922,405.249 M-298.511,405.301c0.036,0.005,0.072,0.005,0.107,0
		c0.029-0.004,0.006-0.007-0.054-0.007C-298.516,405.294-298.54,405.297-298.511,405.301 M-298.14,405.341
		c0.019,0.005,0.05,0.005,0.068,0c0.019-0.007,0.004-0.011-0.034-0.011C-298.144,405.33-298.158,405.334-298.14,405.341
		 M-291.236,405.444c-0.002,0.059-0.009,0.128-0.014,0.156l-0.009,0.048l0.02-0.048c0.012-0.025,0.018-0.098,0.014-0.156
		l-0.007-0.107L-291.236,405.444z M-291.274,405.728c0,0.043,0.004,0.057,0.01,0.033c0.005-0.024,0.005-0.06,0-0.079
		C-291.27,405.663-291.274,405.683-291.274,405.728 M-299.463,405.779c-0.054,0.058-0.11,0.121-0.125,0.142
		c-0.015,0.021,0.006,0.004,0.046-0.039s0.101-0.105,0.134-0.141c0.034-0.036,0.057-0.064,0.051-0.064
		C-299.361,405.677-299.409,405.724-299.463,405.779 M-297.393,405.779c0.041,0.051,0.078,0.094,0.082,0.094
		c0.017,0-0.039-0.075-0.095-0.127C-297.464,405.691-297.462,405.695-297.393,405.779 M-306.864,405.786
		c0,0.031,0.009,0.069,0.019,0.087c0.013,0.02,0.015,0.005,0.007-0.049C-306.853,405.728-306.864,405.71-306.864,405.786
		 M-291.313,405.99c-0.013,0.02-0.024,0.049-0.024,0.063c0,0.013,0.013-0.001,0.029-0.033
		C-291.274,405.956-291.279,405.934-291.313,405.99 M-299.652,406.021c-0.043,0.057-0.081,0.152-0.053,0.136
		c0.011-0.008,0.019-0.023,0.019-0.039c0-0.014,0.019-0.049,0.042-0.077c0.022-0.03,0.038-0.056,0.034-0.059
		C-299.614,405.978-299.633,405.994-299.652,406.021 M-297.212,406.097c0.01,0.021,0.022,0.052,0.029,0.068
		c0.009,0.025,0.01,0.025,0.012-0.001c0-0.017-0.012-0.048-0.029-0.067C-297.229,406.058-297.229,406.058-297.212,406.097
		 M-299.817,406.487c0,0.042,0.004,0.058,0.009,0.034c0.005-0.025,0.005-0.06,0-0.079
		C-299.813,406.425-299.817,406.443-299.817,406.487 M-297.145,406.56v0.142l0.015-0.126c0.008-0.069,0.009-0.134,0-0.143
		C-297.138,406.424-297.145,406.481-297.145,406.56 M-291.453,406.528c-0.012,0.029-0.018,0.057-0.012,0.062
		c0.004,0.005,0.019-0.015,0.03-0.044c0.011-0.031,0.018-0.058,0.013-0.062C-291.425,406.479-291.438,406.501-291.453,406.528
		 M-306.694,406.692c0.006,0.049,0.014,0.091,0.018,0.096c0.016,0.018,0.005-0.127-0.011-0.153
		C-306.699,406.615-306.702,406.637-306.694,406.692 M-299.686,407.149c0,0.023,0.157,0.214,0.192,0.232
		c0.018,0.01,0-0.017-0.038-0.058c-0.039-0.042-0.089-0.102-0.112-0.133C-299.667,407.16-299.686,407.142-299.686,407.149
		 M-297.438,407.258c-0.062,0.076-0.056,0.093,0.007,0.02c0.028-0.033,0.047-0.063,0.044-0.066
		C-297.391,407.207-297.414,407.229-297.438,407.258 M-291.86,407.446c-0.036,0.06-0.061,0.111-0.057,0.115
		c0.002,0.004,0.036-0.041,0.07-0.101c0.036-0.061,0.061-0.111,0.056-0.117C-291.794,407.341-291.827,407.386-291.86,407.446
		 M-301.529,407.639c-0.049,0.023-0.051,0.026-0.01,0.016c0.055-0.013,0.117-0.045,0.088-0.044
		C-301.461,407.61-301.497,407.623-301.529,407.639 M-298.967,407.678c0.036,0.017,0.076,0.027,0.088,0.027
		c0.012,0-0.008-0.014-0.044-0.028c-0.036-0.017-0.076-0.027-0.088-0.027S-299.002,407.662-298.967,407.678 M-298.154,407.678
		c-0.033,0.014-0.046,0.027-0.03,0.027s0.051-0.014,0.078-0.027C-298.044,407.642-298.077,407.642-298.154,407.678
		 M-302.036,407.775c-0.032,0.014-0.046,0.027-0.029,0.027c0.016,0,0.056-0.014,0.087-0.027c0.033-0.015,0.045-0.026,0.029-0.026
		S-302.004,407.761-302.036,407.775 M-292.152,407.928c-0.035,0.034-0.062,0.068-0.062,0.077c0,0.013,0.036-0.021,0.105-0.1
		C-292.053,407.839-292.083,407.855-292.152,407.928 M-304.982,407.92c0.033,0.01,0.081,0.016,0.107,0.016
		c0.043,0,0.042-0.002-0.009-0.016c-0.033-0.007-0.081-0.014-0.108-0.014C-305.036,407.906-305.034,407.908-304.982,407.92
		 M-302.758,407.92l-0.039,0.017h0.039c0.021,0,0.062-0.007,0.088-0.017l0.048-0.014l-0.048-0.001
		C-302.697,407.904-302.737,407.911-302.758,407.92 M-302.978,407.954c0.035,0.005,0.071,0.005,0.107,0
		c0.029-0.004,0.005-0.008-0.054-0.008C-302.982,407.946-303.007,407.95-302.978,407.954 M-303.363,407.98l-0.078,0.014l0.072,0.002
		c0.04,0.002,0.078-0.007,0.084-0.016c0.007-0.013,0.009-0.021,0.006-0.018C-303.282,407.964-303.32,407.972-303.363,407.98
		 M-304.236,407.992c0.024,0.006,0.06,0.006,0.079,0c0.019-0.005-0.001-0.008-0.044-0.008S-304.26,407.989-304.236,407.992
		 M-304.021,408.013c0.056,0.005,0.148,0.005,0.205,0c0.056-0.004,0.01-0.007-0.102-0.007
		C-304.032,408.006-304.077,408.009-304.021,408.013 M-303.651,408.013c0.036,0.005,0.097,0.005,0.137,0
		c0.041-0.004,0.013-0.007-0.063-0.007C-303.652,408.006-303.686,408.009-303.651,408.013 M-292.343,408.17
		c-0.01,0.008-0.039,0.049-0.063,0.093c-0.025,0.043-0.027,0.058-0.008,0.031c0.024-0.031,0.05-0.063,0.076-0.093
		C-292.296,408.157-292.299,408.139-292.343,408.17 M-292.674,408.568l-0.057,0.063l0.062-0.057c0.035-0.031,0.064-0.06,0.064-0.063
		C-292.605,408.496-292.622,408.511-292.674,408.568 M-293.068,408.957c-0.144,0.129-0.21,0.195-0.123,0.125
		c0.107-0.085,0.26-0.225,0.247-0.225C-292.95,408.857-293.006,408.902-293.068,408.957 M-293.785,409.521
		c-0.033,0.021-0.049,0.036-0.037,0.036c0.012,0.002,0.042-0.016,0.069-0.037C-293.695,409.473-293.71,409.473-293.785,409.521
		 M-294.76,410.106c-0.034,0.021-0.049,0.037-0.037,0.037c0.013,0,0.043-0.016,0.068-0.037
		C-294.67,410.059-294.684,410.059-294.76,410.106 M-294.914,410.184c-0.042,0.021-0.084,0.047-0.097,0.057
		c-0.013,0.009-0.04,0.021-0.062,0.026c-0.038,0.01-0.038,0.01,0.003,0.012c0.021,0.002,0.062-0.015,0.09-0.037
		c0.026-0.021,0.058-0.037,0.067-0.037s0.034-0.015,0.055-0.029C-294.805,410.137-294.824,410.139-294.914,410.184
		 M-295.188,410.312c-0.021,0.016-0.028,0.028-0.019,0.028c0.012,0,0.038-0.013,0.059-0.028c0.02-0.017,0.029-0.029,0.018-0.029
		C-295.141,410.282-295.167,410.295-295.188,410.312 M-296.039,410.673c-0.036,0.021-0.055,0.038-0.038,0.038
		s0.048-0.014,0.069-0.027c0.021-0.016,0.055-0.032,0.076-0.037l0.041-0.009l-0.041-0.003
		C-295.953,410.635-296,410.651-296.039,410.673 M-296.448,410.818c-0.026,0.014-0.039,0.027-0.029,0.027
		c0.011,0,0.041-0.014,0.068-0.027c0.027-0.018,0.039-0.028,0.03-0.028C-296.391,410.79-296.421,410.801-296.448,410.818
		 M-296.66,410.89c-0.036,0.01-0.062,0.021-0.057,0.026c0.01,0.009,0.152-0.029,0.152-0.041S-296.581,410.866-296.66,410.89"/>
	<path fill="#4CD4FC" d="M-297.616,399.288c-0.036,0.018-0.142,0.038-0.234,0.049c-0.092,0.009-0.203,0.027-0.246,0.037
		c-0.043,0.013-0.162,0.026-0.264,0.033c-0.102,0.008-0.221,0.024-0.263,0.038c-0.043,0.015-0.152,0.032-0.242,0.04
		c-0.09,0.006-0.188,0.02-0.215,0.031c-0.028,0.011-0.134,0.027-0.236,0.038c-0.226,0.021-0.26,0.026-0.284,0.041
		c-0.011,0.006-0.098,0.017-0.194,0.023c-0.096,0.009-0.21,0.026-0.254,0.041c-0.043,0.014-0.153,0.032-0.244,0.04
		s-0.187,0.022-0.214,0.033s-0.097,0.026-0.156,0.035c-0.059,0.008-0.141,0.027-0.18,0.046l-0.074,0.031l-0.001,0.335
		c0,0.313-0.013,0.483-0.049,0.696l-0.014,0.085l0.329-0.01c0.182-0.007,0.36-0.021,0.396-0.031s0.211-0.026,0.39-0.032
		c0.178-0.007,0.369-0.025,0.422-0.041c0.065-0.016,0.263-0.029,0.594-0.036c0.274-0.005,0.541-0.019,0.595-0.029
		c0.054-0.013,0.283-0.028,0.509-0.036l0.41-0.013l0.006-0.114c0.003-0.063-0.003-0.126-0.016-0.14
		c-0.013-0.016-0.03-0.248-0.043-0.608c-0.012-0.321-0.023-0.585-0.026-0.587C-297.431,399.262-297.561,399.265-297.616,399.288
		 M-299.15,401.182c-0.064,0.015-0.235,0.033-0.38,0.04c-0.144,0.008-0.28,0.021-0.3,0.032c-0.02,0.012-0.187,0.027-0.37,0.037
		c-0.184,0.008-0.422,0.028-0.529,0.046c-0.107,0.015-0.309,0.029-0.449,0.03c-0.14,0.002-0.306,0.011-0.371,0.021
		c-0.19,0.03-0.658,0.056-1.029,0.059c-0.337,0.004-0.346,0.004-0.349,0.045c-0.005,0.089,0.007,0.245,0.033,0.426
		c0.016,0.105,0.028,0.306,0.028,0.442c0,0.155,0.008,0.258,0.021,0.266c0.037,0.023,0.313,0.048,0.75,0.068
		c0.245,0.013,0.475,0.033,0.538,0.049c0.06,0.016,0.196,0.03,0.302,0.03c0.107,0,0.29,0.013,0.409,0.029
		c0.118,0.017,0.267,0.034,0.332,0.036c0.511,0.028,0.604,0.035,0.642,0.05c0.024,0.008,0.257,0.025,0.52,0.039
		c0.263,0.012,0.497,0.032,0.521,0.044c0.067,0.032,0.066,0.054,0.046-0.806c-0.01-0.445-0.013-0.854-0.008-0.911l0.011-0.103
		l-0.124,0.002C-298.977,401.155-299.085,401.167-299.15,401.182"/>
</g>
</svg>
