<?xml version="1.0" encoding="utf-8"?>
<!-- Generator: Adobe Illustrator 28.0.0, SVG Export Plug-In . SVG Version: 6.00 Build 0)  -->
<svg version="1.1" id="Layer_1" xmlns="http://www.w3.org/2000/svg" xmlns:xlink="http://www.w3.org/1999/xlink" x="0px" y="0px"
	 viewBox="0 0 24 24" style="enable-background:new 0 0 24 24;" xml:space="preserve">
<style type="text/css">
	.st0{fill-rule:evenodd;clip-rule:evenodd;fill:#41CD52;}
</style>
<path class="st0" d="M5.1,5h16.5v11.4L18.9,19H2.4V7.6L5.1,5z M7.5,7.9c0.6-0.4,1.4-0.5,2.1-0.5c0.7,0,1.4,0.1,2,0.5
	c0.4,0.3,0.7,0.8,0.9,1.2c0.3,0.8,0.4,1.6,0.4,2.4c0,0.8,0,1.7-0.3,2.5c-0.2,0.5-0.5,1-1,1.4c0.3,0.5,0.7,1.1,1,1.6
	c-0.4,0.2-0.8,0.4-1.3,0.6c-0.4-0.6-0.7-1.2-1.1-1.8c-0.5,0.1-1,0.1-1.5,0c-0.6-0.1-1.2-0.2-1.6-0.6c-0.3-0.3-0.6-0.7-0.7-1.1
	c-0.2-0.7-0.3-1.5-0.3-2.2c0-0.8,0-1.6,0.3-2.4C6.7,8.9,7,8.3,7.5,7.9z M14.6,13.6v-2.8h-0.9V9.7h0.9V7.9h1.3v1.7h1.7l0,1.1h-1.7
	v2.9c0,1.3,0.5,1,1.6,1l0.1,1C15.7,15.9,14.6,16.1,14.6,13.6z M7.7,13.1c-0.2-1-0.2-2,0-3c0.2-2.1,4-2.2,3.8,0.9
	c0,0.7,0,1.4-0.1,2.1C11.4,15.4,7.7,15.4,7.7,13.1z"/>
</svg>
