<?xml version="1.0" encoding="utf-8"?>
<!-- Generator: Adobe Illustrator 16.0.0, SVG Export Plug-In . SVG Version: 6.00 Build 0)  -->
<!DOCTYPE svg PUBLIC "-//W3C//DTD SVG 1.1//EN" "http://www.w3.org/Graphics/SVG/1.1/DTD/svg11.dtd">
<svg version="1.1" id="图层_1" xmlns="http://www.w3.org/2000/svg" xmlns:xlink="http://www.w3.org/1999/xlink" x="0px" y="0px"
	 width="24px" height="24px" viewBox="-309.5 392.5 24 24" enable-background="new -309.5 392.5 24 24" xml:space="preserve">
<g>
	<path fill="#3178C6" d="M-304.835,395.404h14.67c0.983,0,1.78,0.797,1.78,1.78v14.631c0,0.983-0.797,1.78-1.78,1.78h-14.67
		c-0.983,0-1.78-0.797-1.78-1.78v-14.631C-306.615,396.201-305.818,395.404-304.835,395.404z"/>
	<path fill="#3178C6" d="M-304.835,395.404h14.67c0.983,0,1.78,0.797,1.78,1.78v14.631c0,0.983-0.797,1.78-1.78,1.78h-14.67
		c-0.983,0-1.78-0.797-1.78-1.78v-14.631C-306.615,396.201-305.818,395.404-304.835,395.404z"/>
	<path fill="#FFFFFF" d="M-295.33,409.881v1.778c0.29,0.149,0.633,0.259,1.028,0.334c0.396,0.074,0.813,0.109,1.252,0.109
		c0.427,0,0.833-0.039,1.217-0.121c0.385-0.081,0.723-0.216,1.013-0.404c0.289-0.186,0.518-0.43,0.688-0.732
		c0.167-0.302,0.252-0.676,0.252-1.121c0-0.32-0.047-0.604-0.146-0.846c-0.095-0.242-0.237-0.462-0.417-0.648
		c-0.184-0.189-0.4-0.357-0.654-0.508c-0.255-0.15-0.542-0.293-0.862-0.426c-0.233-0.096-0.443-0.19-0.628-0.28
		c-0.187-0.091-0.345-0.184-0.475-0.278c-0.13-0.094-0.231-0.194-0.302-0.3c-0.07-0.106-0.105-0.226-0.105-0.359
		c0-0.122,0.032-0.232,0.096-0.331c0.063-0.098,0.151-0.181,0.267-0.253c0.116-0.07,0.257-0.125,0.424-0.163
		c0.168-0.039,0.353-0.059,0.558-0.059c0.148,0,0.306,0.012,0.471,0.034c0.168,0.022,0.335,0.056,0.498,0.103
		c0.168,0.045,0.33,0.104,0.488,0.175c0.157,0.07,0.303,0.151,0.438,0.244v-1.661c-0.273-0.104-0.568-0.183-0.89-0.232
		c-0.322-0.05-0.689-0.075-1.106-0.075c-0.424,0-0.824,0.047-1.203,0.137c-0.38,0.092-0.713,0.233-1,0.426
		c-0.288,0.193-0.516,0.438-0.684,0.736s-0.25,0.654-0.25,1.07c0,0.529,0.152,0.982,0.459,1.356s0.771,0.691,1.395,0.95
		c0.231,0.095,0.461,0.192,0.687,0.295c0.213,0.097,0.395,0.196,0.549,0.301c0.154,0.103,0.276,0.216,0.365,0.338
		s0.135,0.263,0.135,0.417c0,0.116-0.028,0.222-0.084,0.321c-0.057,0.098-0.141,0.182-0.254,0.255
		c-0.113,0.072-0.255,0.127-0.424,0.169c-0.17,0.041-0.367,0.061-0.593,0.061c-0.388,0-0.77-0.067-1.148-0.202
		S-295.007,410.151-295.33,409.881L-295.33,409.881z M-298.326,405.498h2.285v-1.46h-6.373v1.46h2.276v6.499h1.812V405.498z"/>
</g>
</svg>
