<?xml version="1.0" encoding="utf-8"?>
<!-- Generator: Adobe Illustrator 16.0.0, SVG Export Plug-In . SVG Version: 6.00 Build 0)  -->
<!DOCTYPE svg PUBLIC "-//W3C//DTD SVG 1.1//EN" "http://www.w3.org/Graphics/SVG/1.1/DTD/svg11.dtd">
<svg version="1.1"
	 id="svg8" xmlns:inkscape="http://www.inkscape.org/namespaces/inkscape" xmlns:sodipodi="http://sodipodi.sourceforge.net/DTD/sodipodi-0.dtd" xmlns:svg="http://www.w3.org/2000/svg" inkscape:version="1.2.2 (732a01da63, 2022-12-09)" sodipodi:docname="javaScript_dark.svg"
	 xmlns="http://www.w3.org/2000/svg" xmlns:xlink="http://www.w3.org/1999/xlink" x="0px" y="0px" width="24px" height="24px"
	 viewBox="0 0 24 24" enable-background="new 0 0 24 24" xml:space="preserve">
<sodipodi:namedview  id="namedview10" bordercolor="#000000" inkscape:cy="8.7343467" pagecolor="#ffffff" inkscape:cx="5.5135564" inkscape:zoom="18.318485" showgrid="false" borderopacity="0.25" inkscape:current-layer="svg8" inkscape:window-y="-8" inkscape:window-x="-8" inkscape:window-height="1009" inkscape:window-width="1920" inkscape:deskcolor="#d1d1d1" inkscape:pageopacity="0.0" inkscape:showpageshadow="2" inkscape:window-maximized="1" inkscape:pagecheckerboard="0">
	</sodipodi:namedview>
<g id="g298" transform="matrix(1.605,0,0,1.605,-0.84,-0.84)">
	<path id="path2" fill="#F2C55C" d="M14,4c0-1.105-0.895-2-2-2H4C2.895,2,2,2.895,2,4v8c0,1.105,0.895,2,2,2h8c1.105,0,2-0.895,2-2
		V4z"/>
	<path id="path4" fill="#1E1F22" d="M4.213,11h1.009c0.154,0,0.289-0.031,0.406-0.094c0.12-0.066,0.211-0.157,0.273-0.274
		C5.967,10.513,6,10.376,6,10.222L6,6h1v4.358c0,0.322-0.071,0.607-0.214,0.855c-0.142,0.248-0.34,0.442-0.594,0.582
		C5.939,11.932,5.648,12,5.32,12H4.213V11z"/>
	<path id="path6" fill="#1E1F22" d="M10.105,12.102c-0.425,0-0.801-0.077-1.128-0.23c-0.328-0.157-0.584-0.374-0.77-0.65
		c-0.185-0.28-0.279-0.599-0.282-0.958h1.013c0,0.187,0.05,0.356,0.15,0.504c0.1,0.148,0.239,0.264,0.415,0.347
		c0.179,0.08,0.385,0.119,0.616,0.119c0.225,0,0.423-0.037,0.594-0.111c0.172-0.074,0.302-0.178,0.393-0.312
		c0.095-0.137,0.141-0.294,0.141-0.47c0-0.223-0.067-0.413-0.201-0.573c-0.134-0.162-0.312-0.262-0.534-0.299l-1.013-0.17
		C9.208,9.247,8.955,9.144,8.742,8.991C8.528,8.837,8.363,8.644,8.246,8.413C8.132,8.179,8.075,7.925,8.075,7.648
		c0-0.331,0.085-0.627,0.256-0.889c0.174-0.265,0.415-0.472,0.723-0.62c0.308-0.151,0.656-0.227,1.043-0.227
		c0.397,0,0.748,0.073,1.056,0.218c0.31,0.145,0.552,0.348,0.726,0.607c0.174,0.259,0.263,0.556,0.265,0.889h-1.013
		c0-0.162-0.043-0.308-0.128-0.436c-0.085-0.131-0.206-0.232-0.359-0.304C10.49,6.816,10.312,6.78,10.11,6.78
		c-0.203,0-0.381,0.034-0.534,0.103c-0.155,0.068-0.274,0.165-0.36,0.291C9.13,7.299,9.088,7.444,9.088,7.61
		c0,0.194,0.063,0.362,0.189,0.504c0.125,0.14,0.289,0.227,0.492,0.261l0.995,0.162c0.294,0.052,0.555,0.161,0.782,0.329
		c0.231,0.168,0.409,0.377,0.534,0.629c0.125,0.251,0.189,0.517,0.189,0.799c0,0.343-0.091,0.652-0.274,0.928
		c-0.183,0.273-0.437,0.488-0.765,0.645C10.902,12.024,10.527,12.102,10.105,12.102z"/>
</g>
</svg>
