<?xml version="1.0" encoding="utf-8"?>
<!-- Generator: Adobe Illustrator 16.0.0, SVG Export Plug-In . SVG Version: 6.00 Build 0)  -->
<!DOCTYPE svg PUBLIC "-//W3C//DTD SVG 1.1//EN" "http://www.w3.org/Graphics/SVG/1.1/DTD/svg11.dtd">
<svg version="1.1" id="图层_1" xmlns="http://www.w3.org/2000/svg" xmlns:xlink="http://www.w3.org/1999/xlink" x="0px" y="0px"
	 width="24px" height="24px" viewBox="-309.5 392.5 24 24" enable-background="new -309.5 392.5 24 24" xml:space="preserve">
<path fill="#497CE3" d="M-288.812,402.661l0.55-0.117c0.085,0.404,0.144,0.815,0.176,1.227l-0.561,0.043
	C-288.677,403.426-288.732,403.04-288.812,402.661z M-290.417,399.487c-1.147,0-2.075-0.928-2.076-2.074
	c-0.001-1.146,0.926-2.075,2.074-2.078c1.146,0,2.076,0.929,2.077,2.076l0,0C-288.342,398.558-289.27,399.487-290.417,399.487z
	 M-297.5,411.584c-3.914,0.003-7.088-3.167-7.09-7.082c-0.003-3.913,3.168-7.089,7.083-7.091s7.089,3.169,7.09,7.083
	c0,0.002,0,0.004,0,0.006C-290.419,408.411-293.589,411.582-297.5,411.584z M-294.564,399.487c-1.147,0-2.079,0.927-2.079,2.071
	c-0.002,1.147,0.927,2.078,2.072,2.078c1.146,0.002,2.077-0.925,2.079-2.072l0,0c0.001-1.146-0.928-2.077-2.074-2.077
	c0,0,0,0-0.001,0H-294.564z M-294.592,396.106l0.183-0.53c0.39,0.136,0.773,0.298,1.142,0.48l-0.254,0.497
	c-0.348-0.17-0.706-0.32-1.073-0.447H-294.592z M-296.875,395.64l0.041-0.567c0.413,0.028,0.824,0.086,1.228,0.169l-0.113,0.55
	C-296.101,395.716-296.487,395.664-296.875,395.64z M-299.299,395.237c0.404-0.083,0.813-0.137,1.224-0.165l0.037,0.562
	c-0.389,0.022-0.775,0.071-1.157,0.147L-299.299,395.237z M-301.651,396.016c0.372-0.181,0.755-0.337,1.147-0.469l0.175,0.53
	c-0.368,0.123-0.728,0.273-1.077,0.444L-301.651,396.016z M-303.712,397.382c0.312-0.271,0.642-0.523,0.986-0.75l0.311,0.461
	c-0.325,0.216-0.635,0.45-0.928,0.705L-303.712,397.382z M-305.348,399.238c0.23-0.343,0.482-0.672,0.755-0.982l0.423,0.37
	c-0.257,0.292-0.494,0.603-0.711,0.925L-305.348,399.238z M-306.441,407.548l0.532-0.181c0.127,0.368,0.277,0.728,0.45,1.079
	l-0.504,0.248C-306.147,408.323-306.306,407.94-306.441,407.548z M-306.441,401.456c0.133-0.393,0.292-0.773,0.476-1.145l0.502,0.25
	c-0.172,0.348-0.321,0.707-0.447,1.075L-306.441,401.456z M-306.367,403.92l-0.56-0.036c0.028-0.413,0.083-0.824,0.164-1.229
	l0.55,0.109C-306.29,403.146-306.341,403.532-306.367,403.92z M-306.214,406.241l-0.55,0.11c-0.082-0.404-0.136-0.815-0.164-1.229
	l0.56-0.035C-306.341,405.475-306.29,405.86-306.214,406.241z M-304.164,410.376l-0.422,0.37c-0.273-0.311-0.525-0.638-0.756-0.98
	l0.466-0.313c0.217,0.323,0.455,0.632,0.712,0.926V410.376z M-302.413,411.903l-0.31,0.469c-0.345-0.229-0.674-0.479-0.987-0.75
	l0.369-0.424c0.294,0.257,0.606,0.493,0.932,0.709L-302.413,411.903z M-300.322,412.923l-0.178,0.538
	c-0.391-0.133-0.772-0.292-1.143-0.477l0.247-0.506c0.35,0.171,0.71,0.321,1.079,0.444H-300.322z M-298.032,413.364l-0.035,0.563
	c-0.413-0.026-0.824-0.078-1.23-0.158l0.108-0.551c0.379,0.073,0.764,0.125,1.15,0.147L-298.032,413.364z M-295.598,413.749
	c-0.405,0.086-0.815,0.146-1.228,0.179l-0.041-0.562c0.388-0.026,0.775-0.082,1.154-0.159L-295.598,413.749z M-293.263,412.941
	c-0.368,0.185-0.75,0.347-1.141,0.482l-0.183-0.53c0.368-0.127,0.728-0.279,1.077-0.456L-293.263,412.941z M-291.215,411.552
	c-0.309,0.275-0.635,0.532-0.977,0.763l-0.316-0.465c0.322-0.218,0.629-0.458,0.921-0.715L-291.215,411.552z M-289.599,409.678
	c-0.226,0.345-0.476,0.678-0.744,0.992l-0.423-0.38c0.253-0.294,0.487-0.606,0.7-0.932L-289.599,409.678z M-288.597,401.355
	l-0.53,0.188c-0.13-0.366-0.283-0.729-0.46-1.075l0.501-0.256c0.187,0.368,0.349,0.749,0.486,1.14L-288.597,401.355z
	 M-288.528,407.447c-0.129,0.393-0.284,0.776-0.463,1.151l-0.505-0.245c0.168-0.35,0.313-0.707,0.434-1.077L-288.528,407.447z
	 M-288.633,404.98l0.56,0.031c-0.024,0.413-0.074,0.824-0.15,1.231l-0.552-0.104C-288.701,405.756-288.654,405.37-288.633,404.98z"
	/>
</svg>
