<?xml version="1.0" encoding="utf-8"?>
<!-- Generator: Adobe Illustrator 16.0.0, SVG Export Plug-In . SVG Version: 6.00 Build 0)  -->
<!DOCTYPE svg PUBLIC "-//W3C//DTD SVG 1.1//EN" "http://www.w3.org/Graphics/SVG/1.1/DTD/svg11.dtd">
<svg version="1.1" id="图层_1" xmlns="http://www.w3.org/2000/svg" xmlns:xlink="http://www.w3.org/1999/xlink" x="0px" y="0px"
	 width="24px" height="24px" viewBox="-309.5 392.5 24 24" enable-background="new -309.5 392.5 24 24" xml:space="preserve">
<g>
	<path fill="#EEE0FF" stroke="#955AE0" d="M-288.848,400.72v7.561c0,0.717-0.385,1.378-1.007,1.733l-6.656,3.803
		c-0.613,0.35-1.366,0.35-1.98,0l-6.655-3.803c-0.623-0.355-1.007-1.019-1.007-1.735v-7.557c0-0.717,0.384-1.38,1.007-1.735
		l6.655-3.803c0.614-0.35,1.367-0.35,1.98,0l6.656,3.803c0.622,0.355,1.007,1.019,1.007,1.735V400.72z"/>
	<path fill="#955AE0" d="M-297.32,409.159c1.983,0,3.68-1.199,4.098-2.896h-1.35c-0.42,0.971-1.455,1.667-2.749,1.667
		c-1.783,0-3.068-1.431-3.068-3.431s1.286-3.431,3.069-3.431c1.292,0,2.331,0.696,2.749,1.667h1.351
		c-0.42-1.695-2.117-2.896-4.1-2.896c-2.555,0-4.453,1.989-4.453,4.659S-299.875,409.159-297.32,409.159"/>
</g>
</svg>
