<?xml version="1.0" encoding="utf-8"?>
<!-- Generator: Adobe Illustrator 28.0.0, SVG Export Plug-In . SVG Version: 6.00 Build 0)  -->
<svg version="1.1" id="Layer_1" xmlns="http://www.w3.org/2000/svg" xmlns:xlink="http://www.w3.org/1999/xlink" x="0px" y="0px"
	 viewBox="0 0 24 24" style="enable-background:new 0 0 24 24;" xml:space="preserve">
<style type="text/css">
	.st0{fill:#BA68C8;}
</style>
<path class="st0" d="M12,16.8c-5.2,0-9.5-2.1-9.5-4.8S6.8,7.2,12,7.2s9.5,2.1,9.5,4.8S17.2,16.8,12,16.8 M7.9,10.5
	c0.4,0,0.7,0.1,0.9,0.2c0.1,0.2,0.2,0.4,0.1,0.8c-0.1,0.4-0.2,0.7-0.5,0.9c-0.2,0.2-0.6,0.3-1,0.3H6.7l0.4-2.2H7.9 M5.1,14.9h1.1
	l0.3-1.4h1c0.4,0,0.8,0,1.1-0.1c0.3-0.1,0.5-0.2,0.8-0.5c0.2-0.2,0.3-0.4,0.5-0.6c0.1-0.2,0.2-0.4,0.2-0.7c0.1-0.6,0-1.1-0.3-1.4
	C9.5,9.9,9,9.7,8.3,9.7H6.1L5.1,14.9 M10.9,8.3l-1,5.2H11l0.6-3h0.9c0.3,0,0.5,0,0.6,0.1c0.1,0.1,0.1,0.3,0.1,0.5l-0.5,2.3h1.1
	l0.5-2.4c0.1-0.5,0-0.8-0.2-1.1c-0.2-0.2-0.7-0.3-1.3-0.3h-1L12,8.3H10.9 M16.7,10.5c0.4,0,0.7,0.1,0.9,0.2c0.1,0.2,0.2,0.4,0.1,0.8
	c-0.1,0.4-0.2,0.7-0.5,0.9c-0.2,0.2-0.6,0.3-1,0.3h-0.7l0.4-2.2H16.7 M14,14.9h1.1l0.3-1.4h1c0.4,0,0.8,0,1.1-0.1
	c0.3-0.1,0.5-0.2,0.8-0.5c0.2-0.2,0.3-0.4,0.5-0.6c0.1-0.2,0.2-0.4,0.3-0.7c0.1-0.6,0-1.1-0.3-1.4c-0.3-0.3-0.8-0.5-1.4-0.5H15
	L14,14.9z"/>
</svg>
