<?xml version="1.0" encoding="utf-8"?>
<!-- Generator: Adobe Illustrator 28.0.0, SVG Export Plug-In . SVG Version: 6.00 Build 0)  -->
<svg version="1.1" id="Layer_1" xmlns="http://www.w3.org/2000/svg" xmlns:xlink="http://www.w3.org/1999/xlink" x="0px" y="0px"
	 viewBox="0 0 24 24" style="enable-background:new 0 0 24 24;" xml:space="preserve">
<style type="text/css">
	.st0{fill:#42A5F5;}
</style>
<g>
	<polygon class="st0" points="7.6,16 6.3,16 6.3,12.7 3.8,12.7 3.8,16 2.5,16 2.5,8 3.8,8 3.8,11.2 6.3,11.2 6.3,8 7.6,8 	"/>
	<polygon class="st0" points="12.5,16 9,16 9,8 10.3,8 10.3,14.6 12.5,14.6 	"/>
	<path class="st0" d="M13,15.7v-1.8c0.2,0.3,0.5,0.5,0.8,0.6c0.3,0.1,0.6,0.2,0.8,0.2c0.1,0,0.3,0,0.4-0.1c0.1,0,0.2-0.1,0.3-0.2
		c0.1-0.1,0.1-0.2,0.2-0.3c0-0.1,0.1-0.2,0.1-0.3c0-0.1,0-0.3-0.1-0.4c-0.1-0.1-0.2-0.2-0.3-0.3c-0.1-0.1-0.3-0.2-0.4-0.3
		c-0.2-0.1-0.3-0.2-0.5-0.3c-0.4-0.2-0.8-0.6-1-1c-0.2-0.4-0.4-0.9-0.3-1.4c0-0.4,0.1-0.7,0.2-1.1c0.1-0.3,0.3-0.5,0.5-0.7
		C13.9,8.2,14.1,8,14.4,8c0.3-0.1,0.6-0.1,0.9-0.1c0.3,0,0.5,0,0.8,0.1c0.2,0,0.4,0.1,0.7,0.2v1.7c-0.1-0.1-0.2-0.2-0.3-0.2
		c-0.1-0.1-0.2-0.1-0.4-0.2c-0.1,0-0.2-0.1-0.4-0.1c-0.1,0-0.2,0-0.3,0c-0.1,0-0.3,0-0.4,0.1c-0.1,0-0.2,0.1-0.3,0.2
		c-0.1,0.1-0.2,0.2-0.2,0.3c0,0.1-0.1,0.2-0.1,0.3c0,0.1,0,0.3,0.1,0.4c0.1,0.1,0.1,0.2,0.2,0.3c0.1,0.1,0.2,0.2,0.3,0.3
		c0.1,0.1,0.3,0.2,0.5,0.3c0.2,0.1,0.4,0.3,0.6,0.4c0.2,0.1,0.3,0.3,0.5,0.5c0.1,0.2,0.2,0.4,0.3,0.7c0.1,0.3,0.1,0.6,0.1,0.9
		c0,0.4-0.1,0.8-0.2,1.1c-0.1,0.3-0.3,0.5-0.5,0.7c-0.2,0.2-0.5,0.3-0.7,0.4c-0.3,0.1-0.6,0.1-0.9,0.1c-0.3,0-0.6,0-0.9-0.1
		C13.5,16,13.2,15.9,13,15.7z"/>
	<polygon class="st0" points="21.5,16 18,16 18,8 19.3,8 19.3,14.6 21.5,14.6 	"/>
</g>
</svg>
