<?xml version="1.0" encoding="utf-8"?>
<!-- Generator: Adobe Illustrator 28.0.0, SVG Export Plug-In . SVG Version: 6.00 Build 0)  -->
<svg version="1.1" id="Layer_1" xmlns="http://www.w3.org/2000/svg" xmlns:xlink="http://www.w3.org/1999/xlink" x="0px" y="0px"
	 viewBox="0 0 24 24" style="enable-background:new 0 0 24 24;" xml:space="preserve">
<style type="text/css">
	.st0{fill:#42A5F5;}
</style>
<path class="st0" d="M3.2,5.7v0.6L2.5,6.5V5.9L3.2,5.7 M3.2,11.3v0.6l-0.7,0.3v-0.6L3.2,11.3 M3.2,17v0.6l-0.7,0.3v-0.6L3.2,17
	 M3.1,7.5v0.5L2.6,8.3V7.8L3.1,7.5 M3.1,9.4v0.5l-0.5,0.2V9.7L3.1,9.4 M3.1,13.2v0.5L2.6,14v-0.5L3.1,13.2 M3.1,15.1v0.5l-0.5,0.2
	v-0.5L3.1,15.1 M4.9,6v0.7L4,7V6.3L4.9,6 M4.9,11.7v0.7L4,12.7V12L4.9,11.7 M4.9,17.4v0.7L4,18.4v-0.7L4.9,17.4 M4.8,8v0.6L4.1,8.9
	V8.2L4.8,8 M4.8,9.9v0.6l-0.7,0.3v-0.6L4.8,9.9 M4.8,13.6v0.6l-0.7,0.3v-0.6L4.8,13.6 M4.8,15.6v0.6l-0.7,0.3v-0.6L4.8,15.6
	 M6.6,6.4v0.8L5.4,7.7V6.9L6.6,6.4 M6.6,12.1v0.8l-1.2,0.5v-0.8L6.6,12.1 M6.6,17.7v0.8L5.4,19v-0.8L6.6,17.7 M6.6,8.4v0.7l-1,0.4
	V8.8L6.6,8.4 M6.6,10.3V11l-1,0.4v-0.7L6.6,10.3 M6.6,14.1v0.7l-1,0.4v-0.7L6.6,14.1 M6.6,15.9v0.7l-1,0.4v-0.7L6.6,15.9 M8.5,6.4
	v1.1L7,8V7L8.5,6.4 M8.5,12.1v1.1L7,13.7v-1.1L8.5,12.1 M8.5,17.7v1.1L7,19.3v-1L8.5,17.7 M8.4,8.3v1L7.2,9.8v-1L8.4,8.3 M8.4,10.2
	v1l-1.2,0.5v-1L8.4,10.2 M8.4,14v1l-1.2,0.5v-1L8.4,14 M8.4,15.9v1l-1.2,0.5v-1L8.4,15.9 M10.4,6.2v1.4L8.8,8.2V6.9L10.4,6.2
	 M10.4,11.9v1.4l-1.6,0.7v-1.4L10.4,11.9 M10.4,17.5v1.4l-1.6,0.7v-1.4L10.4,17.5 M10.4,8.3v1.2L9,10V8.8L10.4,8.3 M10.4,10.1v1.2
	L9,11.8v-1.2L10.4,10.1 M10.4,13.9v1.2L9,15.7v-1.2L10.4,13.9 M10.4,15.8V17L9,17.5v-1.2L10.4,15.8 M12.4,5.5v1.9l-1.8,0.7V6.3
	C11.3,6,11.9,5.7,12.4,5.5 M12.4,7.6v1.6L10.7,10V8.3L12.4,7.6 M12.4,9.4v1.7l-1.8,0.7v-1.7L12.4,9.4 M12.4,11.3v1.7l-1.8,0.7V12
	L12.4,11.3 M12.4,13.1v1.7l-1.8,0.7v-1.7L12.4,13.1 M12.4,15v1.7l-1.8,0.8v-1.7L12.4,15 M12.4,16.9v1.8c-0.7,0.3-1.3,0.5-1.8,0.8
	v-1.8L12.4,16.9 M21.5,5.6v13.3c-1.1-0.7-2.5-1.1-4.2-1.1c-1.4,0-3,0.3-4.7,0.9v-1.8c0.9-0.3,1.9-0.6,3-0.8v-4.3
	c-0.9,0.1-1.9,0.4-3,1v-1.2c0.9-0.4,1.9-0.7,3-0.9V6.3c-1,0.2-2,0.5-3,0.9V5.4c1.5-0.7,3-1,4.5-1C18.7,4.4,20.2,4.8,21.5,5.6
	 M19.7,6.7c-0.7-0.4-1.6-0.6-2.6-0.6c-0.1,0-0.2,0-0.3,0v4.3l0.4,0c0.9,0,1.7,0.1,2.5,0.4V6.7 M19.7,12.1c-0.8-0.3-1.6-0.5-2.6-0.5
	c-0.1,0-0.2,0-0.4,0v4.3h0.4c0.9,0,1.8,0.1,2.5,0.3V12.1L19.7,12.1z"/>
</svg>
