<?xml version="1.0" encoding="utf-8"?>
<!-- Generator: Adobe Illustrator 16.0.0, SVG Export Plug-In . SVG Version: 6.00 Build 0)  -->
<!DOCTYPE svg PUBLIC "-//W3C//DTD SVG 1.1//EN" "http://www.w3.org/Graphics/SVG/1.1/DTD/svg11.dtd">
<svg version="1.1"
	 id="svg4" xmlns:inkscape="http://www.inkscape.org/namespaces/inkscape" xmlns:sodipodi="http://sodipodi.sourceforge.net/DTD/sodipodi-0.dtd" xmlns:svg="http://www.w3.org/2000/svg" inkscape:version="1.2.2 (732a01da63, 2022-12-09)" sodipodi:docname="json.svg"
	 xmlns="http://www.w3.org/2000/svg" xmlns:xlink="http://www.w3.org/1999/xlink" x="0px" y="0px" width="24px" height="24px"
	 viewBox="294 384 24 24" enable-background="new 294 384 24 24" xml:space="preserve">
<sodipodi:namedview  id="namedview6" bordercolor="#000000" inkscape:cy="12.014475" pagecolor="#ffffff" inkscape:cx="11.088058" inkscape:zoom="34.541667" showgrid="false" borderopacity="0.25" inkscape:current-layer="svg4" inkscape:window-y="-8" inkscape:window-x="-8" inkscape:window-height="1009" inkscape:window-width="1920" inkscape:deskcolor="#d1d1d1" inkscape:pageopacity="0.0" inkscape:showpageshadow="2" inkscape:window-maximized="1" inkscape:pagecheckerboard="0">
	</sodipodi:namedview>
<path id="path2" fill="#FBC02D" d="M300.041,388.337h1.701v1.704h-1.701v4.257c-0.001,0.94-0.764,1.702-1.703,1.702l0,0
	c0.939-0.001,1.702,0.761,1.703,1.701c0,0,0,0,0,0.002v4.258h1.701v1.701h-1.701c-0.91-0.229-1.703-0.768-1.703-1.701v-3.406
	c0-0.939-0.763-1.703-1.703-1.703h-0.852v-1.703h0.852c0.94,0,1.703-0.762,1.703-1.702c0,0,0,0,0-0.001v-3.404
	c-0.001-0.939,0.76-1.702,1.699-1.704C300.039,388.337,300.04,388.337,300.041,388.337 M311.962,388.337
	c0.939,0,1.7,0.763,1.7,1.703v0v3.405c0,0.94,0.763,1.703,1.702,1.703c0,0,0,0,0.002,0h0.851v1.703h-0.851
	c-0.941,0-1.704,0.764-1.704,1.703l0,0v3.406c0,0.939-0.761,1.701-1.7,1.701l0,0h-1.705v-1.701h1.705v-4.258
	c0-0.939,0.761-1.703,1.7-1.703c-0.939,0-1.702-0.763-1.702-1.703v-4.257h-1.703v-1.703h1.703 M306,398.555
	c0.471,0,0.853,0.381,0.853,0.852l0,0c0,0.471-0.382,0.852-0.853,0.852l0,0c-0.47,0-0.851-0.381-0.851-0.852
	S305.531,398.555,306,398.555 M302.595,398.555c0.471,0,0.852,0.381,0.852,0.852s-0.381,0.852-0.852,0.852
	c-0.47,0-0.853-0.381-0.853-0.852l0,0C301.742,398.936,302.125,398.555,302.595,398.555L302.595,398.555 M309.406,398.555
	c0.471,0,0.852,0.381,0.852,0.852s-0.381,0.852-0.852,0.852c-0.47,0-0.853-0.381-0.853-0.852l0,0
	C308.553,398.936,308.936,398.555,309.406,398.555L309.406,398.555L309.406,398.555z"/>
</svg>
