<?xml version="1.0" encoding="utf-8"?>
<!-- Generator: Adobe Illustrator 16.0.0, SVG Export Plug-In . SVG Version: 6.00 Build 0)  -->
<!DOCTYPE svg PUBLIC "-//W3C//DTD SVG 1.1//EN" "http://www.w3.org/Graphics/SVG/1.1/DTD/svg11.dtd">
<svg version="1.1" id="图层_1" xmlns="http://www.w3.org/2000/svg" xmlns:xlink="http://www.w3.org/1999/xlink" x="0px" y="0px"
	 width="24px" height="24px" viewBox="-309.5 392.5 24 24" enable-background="new -309.5 392.5 24 24" xml:space="preserve">
<path fill="#FF8A65" d="M-299.942,401.932v-1.149c0.111-0.009,0.225-0.016,0.339-0.019c3.146-0.099,5.213,2.705,5.213,2.705
	s-2.231,3.097-4.622,3.097c-0.344,0-0.652-0.056-0.93-0.148v-3.49c1.226,0.148,1.471,0.69,2.208,1.918l1.639-1.382
	c0,0-1.196-1.569-3.212-1.569C-299.527,401.894-299.737,401.911-299.942,401.932 M-299.942,398.131v1.719
	c0.112-0.009,0.226-0.016,0.339-0.02c4.377-0.147,7.229,3.589,7.229,3.589s-3.275,3.981-6.688,3.981
	c-0.313,0-0.605-0.028-0.88-0.076v1.062c0.235,0.029,0.478,0.048,0.732,0.048c3.176,0,5.472-1.621,7.695-3.541
	c0.369,0.296,1.877,1.013,2.188,1.327c-2.114,1.77-7.04,3.196-9.834,3.196c-0.269,0-0.527-0.015-0.781-0.04v1.493h12.067v-12.738
	H-299.942z M-299.942,406.417v0.907c-2.937-0.523-3.752-3.577-3.752-3.577s1.41-1.562,3.752-1.815v0.995c-0.002,0-0.003,0-0.005,0
	c-1.229-0.147-2.189,1-2.189,1S-301.599,405.86-299.942,406.417 M-305.158,403.613c0,0,1.74-2.565,5.216-2.831v-0.933
	c-3.849,0.31-7.183,3.569-7.183,3.569s1.888,5.458,7.183,5.957v-0.99C-303.828,407.896-305.158,403.613-305.158,403.613z"/>
</svg>
