<?xml version="1.0" encoding="utf-8"?>
<!-- Generator: Adobe Illustrator 28.0.0, SVG Export Plug-In . SVG Version: 6.00 Build 0)  -->
<svg version="1.1" id="Layer_1" xmlns="http://www.w3.org/2000/svg" xmlns:xlink="http://www.w3.org/1999/xlink" x="0px" y="0px"
	 viewBox="0 0 24 24" style="enable-background:new 0 0 24 24;" xml:space="preserve">
<style type="text/css">
	.st0{fill:#A72146;}
</style>
<path class="st0" d="M21.4,11.8l-0.8-0.5c0-0.1,0-0.2,0-0.2l0.7-0.6c0.1-0.1,0.1-0.3,0-0.4c0,0-0.1-0.1-0.1-0.1l-0.9-0.3
	c0-0.1,0-0.2-0.1-0.2l0.5-0.8c0.1-0.1,0.1-0.2,0-0.3c0-0.1-0.1-0.1-0.2-0.2L19.7,8c0-0.1-0.1-0.1-0.1-0.2L19.9,7
	c0.1-0.1,0-0.3-0.1-0.4c0,0-0.1,0-0.1,0l-0.9,0c0-0.1-0.1-0.1-0.1-0.2l0.2-0.9c0-0.1,0-0.3-0.2-0.3c0,0-0.1,0-0.1,0l-0.9,0.2
	c-0.1,0-0.1-0.1-0.2-0.1l0-0.9c0-0.1,0-0.2-0.1-0.2C17.2,4,17.1,4,17,4.1l-0.9,0.4L16,4.3l-0.1-0.9c0-0.1-0.1-0.2-0.2-0.2
	c-0.1,0-0.2,0-0.3,0l-0.8,0.5l-0.2-0.1l-0.3-0.9c0-0.1-0.2-0.2-0.3-0.2c0,0-0.1,0-0.1,0.1L13,3.4l-0.2,0l-0.5-0.8
	c-0.1-0.1-0.2-0.2-0.4-0.1c0,0-0.1,0.1-0.1,0.1l-0.5,0.8l-0.2,0l-0.6-0.7c-0.1-0.1-0.3-0.1-0.4,0c0,0-0.1,0.1-0.1,0.1L9.6,3.7
	L9.4,3.8L8.6,3.2C8.5,3.2,8.3,3.2,8.2,3.3c0,0,0,0.1-0.1,0.1L8,4.3C8,4.4,7.9,4.4,7.8,4.5L7,4.1c-0.1,0-0.2,0-0.3,0
	C6.6,4.1,6.6,4.2,6.6,4.3l0,0.9c-0.1,0-0.1,0.1-0.2,0.1L5.5,5.2c-0.1,0-0.3,0-0.3,0.2c0,0,0,0.1,0,0.1l0.2,0.9
	C5.4,6.5,5.3,6.6,5.3,6.6l-0.9,0C4.2,6.6,4.1,6.7,4,6.9c0,0,0,0.1,0,0.1l0.4,0.9C4.4,7.9,4.4,8,4.3,8L3.4,8.2
	c-0.1,0-0.3,0.2-0.2,0.3c0,0,0,0.1,0.1,0.1l0.5,0.8c0,0.1,0,0.2-0.1,0.2L2.8,9.9c-0.1,0.1-0.2,0.2-0.2,0.3c0,0,0,0.1,0.1,0.1L3.4,11
	c0,0.1,0,0.2,0,0.2l-0.8,0.5c-0.1,0.1-0.2,0.2-0.1,0.4c0,0,0.1,0.1,0.1,0.1l0.8,0.5c0,0.1,0,0.2,0,0.2l-0.7,0.6
	c-0.1,0.1-0.1,0.3,0,0.4c0,0,0.1,0.1,0.1,0.1l0.9,0.3c0,0.1,0,0.2,0.1,0.2l-0.5,0.8c-0.1,0.1-0.1,0.2,0,0.3c0,0.1,0.1,0.2,0.2,0.2
	L4.3,16c0,0.1,0.1,0.1,0.1,0.2L4.1,17c-0.1,0.1,0,0.3,0.1,0.4c0,0,0.1,0,0.1,0l0.9,0c0,0.1,0.1,0.1,0.1,0.2l-0.2,0.9
	c0,0.1,0.1,0.3,0.2,0.3c0,0,0.1,0,0.1,0l0.9-0.2l0.2,0.1l0,0.9c0,0.2,0.1,0.3,0.3,0.3c0,0,0.1,0,0.1,0l0.9-0.4
	c0.1,0,0.1,0.1,0.2,0.1l0.1,0.9c0,0.1,0.1,0.2,0.2,0.2c0.1,0,0.2,0,0.3,0l0.8-0.5l0.2,0.1l0.3,0.9c0.1,0.1,0.2,0.2,0.3,0.2
	c0,0,0.1,0,0.1-0.1l0.6-0.7c0.1,0,0.2,0,0.2,0l0.5,0.8c0.1,0.1,0.2,0.2,0.4,0.1c0,0,0.1-0.1,0.1-0.1l0.5-0.8l0.2,0l0.6,0.7
	c0.1,0.1,0.3,0.1,0.4,0c0,0,0.1-0.1,0.1-0.1l0.3-0.9l0.2-0.1l0.8,0.5c0.1,0.1,0.2,0.1,0.3,0c0.1,0,0.2-0.1,0.2-0.2l0.2-0.9l0.2-0.1
	l0.9,0.4c0.1,0.1,0.3,0,0.4-0.1c0,0,0-0.1,0-0.1l0-0.9l0.2-0.1l0.9,0.2c0.1,0,0.2,0,0.3-0.1c0.1-0.1,0.1-0.2,0.1-0.3l-0.2-0.9
	c0.1-0.1,0.1-0.1,0.1-0.2l0.9,0c0.1,0,0.2,0,0.2-0.1c0.1-0.1,0.1-0.2,0-0.3l-0.4-0.9c0-0.1,0.1-0.1,0.1-0.2l0.9-0.2
	c0.1,0,0.3-0.2,0.2-0.3c0,0,0-0.1-0.1-0.1l-0.5-0.8c0-0.1,0-0.2,0.1-0.2l0.9-0.3c0.1,0,0.2-0.1,0.2-0.2c0-0.1,0-0.2-0.1-0.2L20.6,13
	c0-0.1,0-0.2,0-0.2l0.8-0.5C21.5,12.2,21.6,12,21.4,11.8C21.5,11.8,21.4,11.8,21.4,11.8C21.4,11.8,21.4,11.8,21.4,11.8z M16,18.4
	c-0.3-0.1-0.5-0.4-0.4-0.7c0.1-0.3,0.4-0.5,0.7-0.4c0.3,0.1,0.5,0.4,0.4,0.7c0,0,0,0,0,0C16.6,18.3,16.3,18.5,16,18.4z M15.8,16.6
	c-0.3-0.1-0.6,0.1-0.6,0.4c0,0,0,0,0,0l-0.3,1.3c-1.8,0.8-4,0.8-5.8,0l-0.3-1.3c-0.1-0.3-0.3-0.5-0.6-0.4L7,16.8
	c-0.2-0.2-0.4-0.5-0.6-0.7h5.7c0.1,0,0.1,0,0.1-0.1v-2c0-0.1,0-0.1-0.1-0.1h-1.7v-1.3h1.8c0.6,0,1,0.4,1.1,1
	c0.1,0.3,0.2,1.2,0.3,1.5c0.1,0.5,0.5,0.8,1,1h2.8c0,0,0.1,0,0.1,0c-0.2,0.3-0.4,0.5-0.6,0.8L15.8,16.6L15.8,16.6L15.8,16.6z
	 M7.9,18.4c-0.3,0.1-0.6-0.1-0.7-0.4c-0.1-0.3,0.1-0.6,0.4-0.7c0.3-0.1,0.6,0.1,0.7,0.4c0,0,0,0,0,0C8.4,18,8.2,18.3,7.9,18.4
	C7.9,18.4,7.9,18.4,7.9,18.4L7.9,18.4z M5.7,9.6c0.1,0.3,0,0.6-0.3,0.7c-0.3,0.1-0.6,0-0.7-0.3C4.6,9.8,4.7,9.5,5,9.3
	C5.3,9.2,5.6,9.3,5.7,9.6z M5.1,11.2l1.2-0.5c0.3-0.1,0.4-0.4,0.3-0.7L6.3,9.4h1v4.4h-2C5.1,13.2,5,12.6,5,11.9
	C5,11.7,5,11.4,5.1,11.2L5.1,11.2L5.1,11.2z M10.4,10.8V9.5h2.3c0.4,0,0.8,0.3,0.9,0.7c-0.1,0.4-0.6,0.7-1,0.6H10.4L10.4,10.8z
	 M19,11.9c0,0.2,0,0.3,0,0.5h-0.7c-0.1,0-0.1,0-0.1,0.1c0,0,0,0,0,0v0.3c0.1,0.5-0.2,0.9-0.7,1c0,0-0.1,0-0.1,0
	c-0.3,0.1-0.7-0.1-0.8-0.4c-0.1-0.8-0.5-1.5-1.1-1.9c0.8-0.4,1.3-1.1,1.4-2c0-0.8-0.4-1.4-1.1-1.8c-0.4-0.3-1-0.5-1.5-0.5H6.8
	c1-1.1,2.4-1.9,3.9-2.2L11.6,6c0.2,0.2,0.5,0.2,0.7,0l1-0.9c2,0.4,3.7,1.6,4.8,3.4L17.4,10c-0.1,0.3,0,0.6,0.3,0.7l1.3,0.6
	C18.9,11.5,19,11.7,19,11.9L19,11.9z M11.6,4.3c0.2-0.2,0.6-0.2,0.8,0c0.2,0.2,0.2,0.6,0,0.8c-0.2,0.2-0.6,0.2-0.8,0
	C11.3,4.9,11.4,4.5,11.6,4.3L11.6,4.3z M18.2,9.6c0.1-0.3,0.5-0.4,0.7-0.3s0.4,0.5,0.3,0.7c-0.1,0.3-0.5,0.4-0.7,0.3
	C18.2,10.3,18.1,9.9,18.2,9.6L18.2,9.6z"/>
</svg>
