<?xml version="1.0" encoding="utf-8"?>
<!-- Generator: Adobe Illustrator 16.0.0, SVG Export Plug-In . SVG Version: 6.00 Build 0)  -->
<!DOCTYPE svg PUBLIC "-//W3C//DTD SVG 1.1//EN" "http://www.w3.org/Graphics/SVG/1.1/DTD/svg11.dtd">
<svg version="1.1"
	 id="svg8" xmlns:inkscape="http://www.inkscape.org/namespaces/inkscape" xmlns:sodipodi="http://sodipodi.sourceforge.net/DTD/sodipodi-0.dtd" xmlns:svg="http://www.w3.org/2000/svg" inkscape:version="1.2.2 (732a01da63, 2022-12-09)" sodipodi:docname="asmpure.svg"
	 xmlns="http://www.w3.org/2000/svg" xmlns:xlink="http://www.w3.org/1999/xlink" x="0px" y="0px" width="24px" height="24px"
	 viewBox="0 0 24 24" enable-background="new 0 0 24 24" xml:space="preserve">
<sodipodi:namedview  id="namedview10" bordercolor="#000000" inkscape:cy="4.91307" pagecolor="#ffffff" inkscape:cx="-6.4415807" inkscape:zoom="18.318485" showgrid="false" borderopacity="0.25" inkscape:current-layer="svg8" inkscape:window-y="-8" inkscape:window-x="-8" inkscape:window-height="1009" inkscape:window-width="1920" inkscape:deskcolor="#d1d1d1" inkscape:pageopacity="0.0" inkscape:showpageshadow="2" inkscape:lockguides="true" inkscape:window-maximized="1" inkscape:pagecheckerboard="0">
	</sodipodi:namedview>
<g id="g6" transform="matrix(1.4008265,0,0,1.4008265,1.1899419,1.1902921)">
	<path id="path2" fill="#C51666" d="M0.85,0.748v13.936h2.255v-1.391H1.977V2.141h1.127V0.747L0.85,0.748z M12.329,0.748v1.393
		h1.129v11.151h-1.129v1.394h2.255V0.748L12.329,0.748z"/>
	<path id="path4" fill="#C51666" d="M9.826,2.388c-0.333,0-0.619,0.051-0.859,0.15c-0.24,0.1-0.435,0.249-0.586,0.448
		c-0.151,0.201-0.26,0.448-0.329,0.739C7.984,4.016,7.949,4.357,7.949,4.751c0,0.382,0.033,0.722,0.1,1.018
		c0.066,0.295,0.176,0.541,0.327,0.74c0.148,0.199,0.342,0.35,0.581,0.451c0.24,0.102,0.53,0.154,0.869,0.154
		c0.346,0,0.636-0.05,0.872-0.15c0.236-0.102,0.429-0.25,0.579-0.448c0.146-0.193,0.254-0.441,0.323-0.741
		c0.068-0.303,0.103-0.644,0.103-1.027S11.67,4.03,11.603,3.74c-0.068-0.293-0.175-0.539-0.323-0.738
		c-0.151-0.204-0.344-0.356-0.58-0.457C10.465,2.441,10.174,2.388,9.826,2.388L9.826,2.388z M5.284,2.469
		C5.276,2.591,5.246,2.692,5.193,2.774C5.14,2.855,5.061,2.92,4.955,2.971C4.866,3.014,4.753,3.044,4.62,3.063
		c-0.134,0.016-0.275,0.024-0.42,0.024v0.74h0.957v2.4H4.199V7.02h3.03V6.227H6.293V2.469H5.284z M9.826,3.227
		c0.25,0,0.429,0.117,0.537,0.351c0.107,0.232,0.161,0.622,0.161,1.17c0,0.543-0.055,0.933-0.165,1.17
		c-0.109,0.238-0.287,0.356-0.533,0.356c-0.245,0-0.424-0.118-0.534-0.356C9.183,5.682,9.128,5.293,9.128,4.754
		c0-0.553,0.054-0.944,0.162-1.176C9.398,3.345,9.577,3.227,9.826,3.227L9.826,3.227z M5.607,8.32c-0.333,0-0.62,0.049-0.86,0.149
		c-0.24,0.099-0.435,0.25-0.586,0.448c-0.151,0.201-0.26,0.447-0.329,0.738s-0.104,0.632-0.104,1.027c0,0.382,0.033,0.721,0.1,1.018
		c0.067,0.295,0.176,0.542,0.326,0.742c0.148,0.199,0.343,0.349,0.583,0.45c0.24,0.102,0.529,0.153,0.869,0.153
		c0.345,0,0.636-0.05,0.871-0.15c0.236-0.102,0.429-0.25,0.579-0.448c0.146-0.192,0.254-0.441,0.323-0.741
		c0.069-0.303,0.104-0.645,0.104-1.027c0-0.382-0.033-0.719-0.1-1.009C7.317,9.377,7.209,9.132,7.06,8.932
		C6.91,8.729,6.718,8.577,6.482,8.475C6.247,8.372,5.955,8.32,5.607,8.32L5.607,8.32z M9.504,8.4
		C9.496,8.521,9.465,8.623,9.412,8.705C9.359,8.786,9.28,8.852,9.175,8.902c-0.09,0.043-0.201,0.073-0.335,0.092
		C8.705,9.01,8.565,9.018,8.418,9.018v0.742h0.958v2.398H8.418v0.793h3.03v-0.793h-0.936V8.4H9.504L9.504,8.4z M5.607,9.158
		c0.25,0,0.429,0.117,0.536,0.351c0.108,0.232,0.161,0.622,0.161,1.17c0,0.542-0.054,0.933-0.163,1.171
		c-0.11,0.237-0.289,0.356-0.534,0.356c-0.246,0-0.425-0.119-0.534-0.356c-0.11-0.238-0.164-0.626-0.164-1.165
		c0-0.553,0.054-0.945,0.161-1.176C5.179,9.275,5.357,9.158,5.607,9.158L5.607,9.158z"/>
</g>
</svg>
