<?xml version="1.0" encoding="utf-8"?>
<!-- Generator: Adobe Illustrator 28.0.0, SVG Export Plug-In . SVG Version: 6.00 Build 0)  -->
<svg version="1.1" id="Layer_1" xmlns="http://www.w3.org/2000/svg" xmlns:xlink="http://www.w3.org/1999/xlink" x="0px" y="0px"
	 viewBox="0 0 24 24" style="enable-background:new 0 0 24 24;" xml:space="preserve">
<style type="text/css">
	.st0{fill:#EB2734;}
</style>
<path class="st0" d="M10.8,14.3l-0.1-0.7l6.5-4.5l0.6,3.8L10.8,14.3z M16.4,19.7c-0.1,1-1.8,1.6-1.8,1.6l-3.1-6.7l0.9-0.1
	C13.9,16.3,15.5,16.4,16.4,19.7z M12.5,19.8c-1.3-0.3-2.3-0.4-3.1-0.4c-0.8,0-1.4,0.1-1.7,0.2l0.9-2.2l0,0c0,0,0.4-0.8,3.5-0.4
	l0.8,1.7L12.5,19.8z M6.9,10.8L5.1,7.2L7,5.3l0.9,4C7.5,9.7,7.2,10.2,6.9,10.8z M15.2,8l4.9-4.1l-3.7-1.3l-3.5,4.8
	C13.7,7.4,14.5,7.7,15.2,8z M12.6,7.3l2.7-4.7h-3.5l-1.4,5.1C11,7.4,11.8,7.3,12.6,7.3z M10.1,7.7l0.5-4.4L7.8,4.6L8.2,9
	C8.7,8.6,9.3,8.1,10.1,7.7z M6.5,14.7L4.1,14l0.5,1.6h2.1C6.7,15.3,6.6,15,6.5,14.7z M6.9,15.9l-1.8,0.3l0.9,1.3l1.5-0.7
	C7.2,16.5,7,16.2,6.9,15.9z M6.3,12.8l-2.2-1.4l-0.1,2l2.5,0.8C6.3,13.8,6.3,13.3,6.3,12.8z M6.7,11.2L4.9,8.7l-0.8,2l2.2,1.9
	L6.7,11.2z M8.4,17.5c0.3-0.9,2.3-0.9,3.7-0.7l-1-2.3l-0.5,0.1l-0.3-1.2l6-4.1C12.5,6,9.3,8.3,8.2,9.5C6.6,11.1,5.5,14.6,8.4,17.5z"
	/>
</svg>
