<?xml version="1.0" encoding="utf-8"?>
<!-- Generator: Adobe Illustrator 28.0.0, SVG Export Plug-In . SVG Version: 6.00 Build 0)  -->
<svg version="1.1" id="Layer_1" xmlns="http://www.w3.org/2000/svg" xmlns:xlink="http://www.w3.org/1999/xlink" x="0px" y="0px"
	 viewBox="0 0 24 24" style="enable-background:new 0 0 24 24;" xml:space="preserve">
<style type="text/css">
	.st0{fill:#82AAFF;}
</style>
<path class="st0" d="M3.7,10.6L4,10.2l3.5,0l-0.2,0.4L3.7,10.6z M6.9,11.4L7,11.1l-4.4,0l-0.3,0.4L6.9,11.4z M6.7,12.3l0-0.4l-2,0
	l-0.2,0.4L6.7,12.3z M19.6,15.1c-1.9,1.1-4.6,0.6-5.3-1.7c-0.4,0.8-1.1,1.5-1.9,1.9c-1.9,0.9-4.6,0.1-4.9-2.4
	C7.3,10.4,9.2,9,10.4,8.6c1.8-0.6,3.6,0.1,4.3,1.8l-2,0.5c-0.2-0.6-1.3-1-2.2-0.4c-1.4,0.8-1.3,3,0.3,3.3c0.9,0.1,1.4-0.3,1.9-1
	l-2.1,0l0.7-1.5h3.2c1.4-3.9,6.8-3.7,7.3-0.2C21.9,12.4,21.5,14.1,19.6,15.1z M17.9,10.2c-1.5,0.3-1.8,1.6-1.6,2.5
	c0.2,0.9,1.2,1.5,2.4,0.9C20.5,12.7,20,9.8,17.9,10.2z"/>
</svg>
