<?xml version="1.0" encoding="utf-8"?>
<!-- Generator: Adobe Illustrator 28.0.0, SVG Export Plug-In . SVG Version: 6.00 Build 0)  -->
<svg version="1.1" id="Layer_1" xmlns="http://www.w3.org/2000/svg" xmlns:xlink="http://www.w3.org/1999/xlink" x="0px" y="0px"
	 viewBox="0 0 24 24" style="enable-background:new 0 0 24 24;" xml:space="preserve">
<style type="text/css">
	.st0{fill:#1976D2;}
</style>
<g transform="matrix(.0555 0 0 .0555 -59.538 -26.404)">
	<path class="st0" d="M1289,526.5c-91.4,0-165.4,74.1-165.4,165.4c0,91.4,74.1,165.4,165.4,165.4c91.4,0,165.5-74.1,165.5-165.4
		c0,0,0,0,0,0C1454.4,600.6,1380.3,526.5,1289,526.5C1289,526.5,1289,526.5,1289,526.5z M1291.3,599.6c7.1,0,13,1.6,17.7,4.9
		c4.7,3.2,8.8,7.3,12.1,12.1l94.5,136.7h-175.8l28.2-38.9h52.1c4.9,0,9.1,0.2,12.8,0.5c-2.1-2.7-4.5-6.1-7.3-10.3
		c-2.8-4.1-5.5-8-8-11.6l-27.1-40l-71,100.3H1164l96.9-136.7c3.2-4.4,7.1-8.3,12-11.8C1277.8,601.4,1283.9,599.6,1291.3,599.6
		L1291.3,599.6z"/>
</g>
</svg>
