<?xml version="1.0" encoding="utf-8"?>
<!-- Generator: Adobe Illustrator 16.0.0, SVG Export Plug-In . SVG Version: 6.00 Build 0)  -->
<!DOCTYPE svg PUBLIC "-//W3C//DTD SVG 1.1//EN" "http://www.w3.org/Graphics/SVG/1.1/DTD/svg11.dtd">
<svg version="1.1"
	 id="svg6" xmlns:inkscape="http://www.inkscape.org/namespaces/inkscape" xmlns:sodipodi="http://sodipodi.sourceforge.net/DTD/sodipodi-0.dtd" xmlns:svg="http://www.w3.org/2000/svg" inkscape:version="1.2.2 (732a01da63, 2022-12-09)" sodipodi:docname="python.svg"
	 xmlns="http://www.w3.org/2000/svg" xmlns:xlink="http://www.w3.org/1999/xlink" x="0px" y="0px" width="24px" height="24px"
	 viewBox="-11.5 780.5 24 24" enable-background="new -11.5 780.5 24 24" xml:space="preserve">
<g>
	
		<sodipodi:namedview  id="namedview8" bordercolor="#000000" inkscape:cy="12.014475" pagecolor="#ffffff" inkscape:cx="11.088058" inkscape:zoom="34.541667" showgrid="false" borderopacity="0.25" inkscape:current-layer="svg6" inkscape:window-y="-8" inkscape:window-x="-8" inkscape:window-height="1009" inkscape:window-width="1920" inkscape:deskcolor="#d1d1d1" inkscape:pageopacity="0.0" inkscape:showpageshadow="2" inkscape:window-maximized="1" inkscape:pagecheckerboard="0">
		</sodipodi:namedview>
	<path id="path2" fill="#3C78AA" d="M-1.646,782.475c-1.584,0-2.867,1.284-2.867,2.868v1.684h4.301c0.391,0,0.713,0.571,0.713,0.963
		h-7.158c-1.584,0-2.867,1.283-2.867,2.867l0,0v3.792c0,1.582,1.283,2.865,2.867,2.865l0,0h1.184v-2.686
		c-0.006-1.58,1.269-2.861,2.846-2.869c0.004,0,0.008,0,0.01,0h5.264c1.584,0,2.867-1.273,2.867-2.857v-3.759
		c0-1.584-1.283-2.868-2.867-2.868H-1.646z M-2.367,784.09c0.4,0,0.721,0.12,0.721,0.712c0,0.591-0.32,0.893-0.721,0.893
		c-0.392,0-0.712-0.301-0.712-0.893S-2.759,784.09-2.367,784.09z"/>
	<path id="path4" fill="#FDD835" d="M6.473,787.488v2.686c0.006,1.578-1.27,2.863-2.848,2.867c-0.002,0-0.006,0-0.008,0h-5.264
		c-1.578-0.006-2.861,1.27-2.867,2.848c0,0.002,0,0.006,0,0.01v3.76c0,1.584,1.283,2.867,2.867,2.867l0,0h4.291
		c1.584,0,2.867-1.283,2.867-2.867v-1.684H1.211c-0.393,0-0.711-0.572-0.711-0.963h7.156c1.584,0,2.869-1.283,2.869-2.867l0,0v-3.79
		c0-1.583-1.285-2.866-2.869-2.866l0,0H6.473z M-3.189,792.012l-0.004,0.004c0.012-0.002,0.024,0,0.037-0.004H-3.189z
		 M3.367,799.307c0.391,0,0.711,0.301,0.711,0.893c0,0.393-0.318,0.711-0.711,0.711c-0.402,0-0.723-0.119-0.723-0.711
		S2.965,799.307,3.367,799.307z"/>
</g>
</svg>
