<?xml version="1.0" encoding="utf-8"?>
<!-- Generator: Adobe Illustrator 16.0.0, SVG Export Plug-In . SVG Version: 6.00 Build 0)  -->
<!DOCTYPE svg PUBLIC "-//W3C//DTD SVG 1.1//EN" "http://www.w3.org/Graphics/SVG/1.1/DTD/svg11.dtd">
<svg version="1.1" id="图层_1" xmlns="http://www.w3.org/2000/svg" xmlns:xlink="http://www.w3.org/1999/xlink" x="0px" y="0px"
	 width="24px" height="24px" viewBox="-309.5 392.5 24 24" enable-background="new -309.5 392.5 24 24" xml:space="preserve">
<path fill="#563F7D" d="M-304.352,408.559v0.969c-0.467-0.013-0.923-0.033-1.341-0.28c-0.465-0.272-0.616-0.745-0.645-1.28
	c-0.02-0.359-0.021-1.198-0.022-1.967c-0.033-0.643-0.262-0.925-0.837-1.033c-0.005-0.029-0.014-0.062-0.014-0.094l0-0.798
	l0.041-0.042c0.606-0.159,0.806-0.432,0.813-1.126c0.004-0.444-0.007-0.891,0.004-1.336c0.006-0.301,0.019-0.607,0.067-0.901
	c0.108-0.654,0.541-1.049,1.234-1.15c0.205-0.031,0.412-0.049,0.619-0.052c0.481-0.008,0.963-0.002,1.477-0.002l0,6.185
	c0,0.744,0.075,0.854,0.75,1.067l-0.162,1.036c-0.359-0.09-0.706-0.13-1.019-0.265c-0.597-0.258-0.691-0.852-0.693-1.461
	l-0.003-5.591c-0.274,0.022-0.526,0.021-0.769,0.071c-0.279,0.06-0.438,0.311-0.447,0.678c-0.014,0.513-0.005,1.024-0.013,1.539
	c-0.004,0.233-0.013,0.47-0.039,0.703c-0.048,0.438-0.229,0.795-0.566,1.034v0.064c0.506,0.387,0.596,0.968,0.605,1.581
	c0.007,0.487,0.004,0.975,0.002,1.463C-305.314,408.335-305.109,408.53-304.352,408.559 M-301.003,405.258
	c-0.071,0.645,0.382,1.238,1.013,1.367c0.597,0.123,1.172,0.011,1.768-0.194l0.134,0.891c0.005,0.047-0.066,0.132-0.116,0.149
	c-0.874,0.3-1.755,0.398-2.632,0.029c-0.541-0.228-0.931-0.65-1.139-1.242c-0.33-0.944-0.333-1.893,0.055-2.815
	c0.568-1.35,1.985-1.7,3.045-1.159c0.64,0.326,0.949,0.935,1.06,1.663c0.063,0.418,0.057,0.847,0.085,1.312H-301.003z
	 M-298.885,404.348c0.013-0.787-0.394-1.28-1.031-1.275c-0.609,0.004-1.105,0.576-1.09,1.275H-298.885z M-290.645,409.536v-0.973
	l0.254-0.02c0.479-0.042,0.693-0.276,0.705-0.803c0.011-0.504,0-1.008,0.008-1.512c0.004-0.243,0.017-0.489,0.049-0.728
	c0.057-0.417,0.25-0.751,0.606-1.003c-0.629-0.438-0.649-1.106-0.656-1.779c-0.005-0.463,0.004-0.925-0.004-1.387
	c-0.012-0.629-0.223-0.857-0.797-0.886l-0.158-0.012v-0.968c0.499,0.012,0.992,0.028,1.429,0.34
	c0.407,0.287,0.534,0.745,0.553,1.237c0.024,0.597,0.012,1.193,0.022,1.789c0.003,0.177,0.011,0.356,0.052,0.523
	c0.104,0.432,0.377,0.655,0.791,0.671v0.943c-0.396,0.02-0.679,0.227-0.785,0.66c-0.042,0.168-0.053,0.347-0.056,0.521
	c-0.011,0.589,0,1.176-0.02,1.765c-0.03,0.933-0.478,1.451-1.325,1.56C-290.192,409.506-290.413,409.516-290.645,409.536
	 M-291.066,404.705c-0.445-0.234-1.007-0.453-1.179-0.559c-0.283-0.151-0.396-0.38-0.354-0.636c0.038-0.236,0.22-0.385,0.527-0.439
	c0.489-0.087,0.957,0.032,1.43,0.204l0.205-0.976c-0.573-0.191-1.134-0.321-1.711-0.23c-0.298,0.045-0.604,0.132-0.873,0.272
	c-0.91,0.476-0.917,2.045-0.1,2.552c0.278,0.174,0.579,0.301,0.869,0.452c0.24,0.128,0.489,0.241,0.716,0.393
	c0.185,0.123,0.247,0.333,0.199,0.573c-0.046,0.232-0.206,0.339-0.396,0.359c-0.287,0.031-0.583,0.063-0.867,0.023
	c-0.344-0.045-0.68-0.159-1.033-0.248l-0.181,0.983c0.821,0.338,1.636,0.394,2.46,0.195c0.691-0.167,1.083-0.606,1.139-1.206
	C-290.136,405.565-290.375,405.083-291.066,404.705 M-296.84,404.895c-0.819-0.515-0.806-2.071,0.118-2.575
	c0.411-0.224,0.845-0.308,1.292-0.269c0.421,0.037,0.838,0.132,1.283,0.204l-0.214,1.023c-0.474-0.178-0.935-0.29-1.417-0.209
	c-0.323,0.055-0.504,0.205-0.543,0.453c-0.039,0.252,0.078,0.473,0.369,0.63c0.314,0.159,0.744,0.323,1.159,0.545
	c0.716,0.391,0.966,0.917,0.852,1.785c-0.078,0.598-0.553,1.057-1.254,1.178c-0.71,0.122-1.417,0.102-2.111-0.142
	c-0.17-0.061-0.241-0.133-0.189-0.336l0.147-0.735c0,0,0.687,0.202,1.032,0.247c0.284,0.036,0.58,0.008,0.867-0.024
	c0.202-0.021,0.358-0.146,0.401-0.387c0.041-0.231-0.033-0.435-0.208-0.545C-295.879,405.363-296.59,405.072-296.84,404.895
	L-296.84,404.895z"/>
</svg>
