<?xml version="1.0" encoding="utf-8"?>
<!-- Generator: Adobe Illustrator 16.0.0, SVG Export Plug-In . SVG Version: 6.00 Build 0)  -->
<!DOCTYPE svg PUBLIC "-//W3C//DTD SVG 1.1//EN" "http://www.w3.org/Graphics/SVG/1.1/DTD/svg11.dtd">
<svg version="1.1"
	 id="svg16" xmlns:inkscape="http://www.inkscape.org/namespaces/inkscape" xmlns:sodipodi="http://sodipodi.sourceforge.net/DTD/sodipodi-0.dtd" xmlns:svg="http://www.w3.org/2000/svg" inkscape:version="1.2.2 (732a01da63, 2022-12-09)" sodipodi:docname="msword-2019.svg"
	 xmlns="http://www.w3.org/2000/svg" xmlns:xlink="http://www.w3.org/1999/xlink" x="0px" y="0px" width="24px" height="24px"
	 viewBox="0 0 24 24" enable-background="new 0 0 24 24" xml:space="preserve">
<sodipodi:namedview  id="namedview18" bordercolor="#000000" inkscape:cy="8.6251674" pagecolor="#ffffff" inkscape:cx="5.568146" inkscape:zoom="18.318485" showgrid="false" borderopacity="0.25" inkscape:current-layer="svg16" inkscape:window-y="-8" inkscape:window-x="-8" inkscape:window-height="1009" inkscape:window-width="1920" inkscape:deskcolor="#d1d1d1" inkscape:pageopacity="0.0" inkscape:showpageshadow="2" inkscape:window-maximized="1" inkscape:pagecheckerboard="0">
	</sodipodi:namedview>
<g id="g310" transform="matrix(1.3217319,0,0,1.3217319,1.4261448,1.4261448)">
	<path id="path2" fill="#41A5EE" d="M15.296,4.352V1.616c0-0.504-0.409-0.912-0.912-0.912H4.352c-0.504,0-0.912,0.409-0.912,0.912
		l0,0v2.736L9.368,5.61L15.296,4.352z"/>
	<path id="path4" fill="#2B7CD3" d="M3.439,4.352V8l5.929,1.066L15.295,8V4.352H3.439z"/>
	<path id="path6" fill="#185ABD" d="M3.44,8v3.648l5.927,0.912l5.929-0.912V8H3.44z"/>
	<path id="path8" fill="#103F91" d="M3.44,11.648v2.735c0,0.504,0.408,0.912,0.912,0.912h10.032c0.504,0,0.912-0.409,0.912-0.912
		v-2.735H3.44z"/>
	<path id="path10" opacity="0.5" enable-background="new    " d="M9.823,4.352H3.44v9.12h5.472c1.008,0,1.824-0.816,1.824-1.823l0,0
		V5.264C10.736,4.76,10.327,4.352,9.823,4.352L9.823,4.352z"/>
	<path id="rect12" fill="#185ABD" d="M1.616,3.44h7.296c0.504,0,0.912,0.409,0.912,0.912v7.297c0,0.503-0.408,0.912-0.912,0.912
		H1.616c-0.504,0-0.912-0.409-0.912-0.912V4.352C0.704,3.848,1.112,3.44,1.616,3.44z"/>
	<path id="path14" fill="#FFFFFF" d="M3.76,9.404c0.017,0.13,0.028,0.243,0.032,0.34H3.81c0.023-0.222,0.056-0.442,0.1-0.661
		l0.834-3.819H5.82l0.86,3.763c0.051,0.234,0.087,0.471,0.108,0.71h0.016c0.016-0.231,0.047-0.46,0.091-0.688l0.687-3.785h0.979
		l-1.201,5.472h-1.15L5.39,7.111C5.333,6.855,5.288,6.597,5.253,6.337H5.237c-0.033,0.264-0.072,0.526-0.12,0.787l-0.774,3.612
		H3.181L1.964,5.264h0.999l0.75,3.829C3.73,9.17,3.745,9.277,3.762,9.404H3.76z"/>
</g>
</svg>
