<?xml version="1.0" encoding="utf-8"?>
<!-- Generator: Adobe Illustrator 16.0.0, SVG Export Plug-In . SVG Version: 6.00 Build 0)  -->
<!DOCTYPE svg PUBLIC "-//W3C//DTD SVG 1.1//EN" "http://www.w3.org/Graphics/SVG/1.1/DTD/svg11.dtd">
<svg version="1.1" id="图层_1" xmlns="http://www.w3.org/2000/svg" xmlns:xlink="http://www.w3.org/1999/xlink" x="0px" y="0px"
	 width="24px" height="24px" viewBox="-309.5 392.5 24 24" enable-background="new -309.5 392.5 24 24" xml:space="preserve">
<path fill="#CD6799" d="M-290.475,405.592c-0.679,0.004-1.269,0.167-1.762,0.408c-0.181-0.359-0.362-0.679-0.396-0.913
	c-0.036-0.272-0.077-0.44-0.036-0.768c0.043-0.326,0.236-0.792,0.231-0.828c-0.002-0.034-0.042-0.202-0.433-0.206
	c-0.391-0.003-0.728,0.075-0.767,0.178c-0.039,0.104-0.114,0.338-0.164,0.58c-0.067,0.354-0.781,1.624-1.19,2.288
	c-0.132-0.259-0.245-0.486-0.27-0.669c-0.036-0.272-0.079-0.44-0.036-0.767c0.043-0.326,0.236-0.793,0.231-0.829
	c-0.004-0.034-0.043-0.202-0.434-0.205c-0.391-0.004-0.729,0.074-0.767,0.177c-0.041,0.104-0.082,0.345-0.164,0.58
	c-0.081,0.234-1.03,2.353-1.279,2.899c-0.101,0.222-0.206,0.44-0.316,0.657c0,0-0.003,0.012-0.014,0.028
	c-0.035,0.069-0.07,0.136-0.106,0.202v0.005c-0.054,0.096-0.11,0.184-0.139,0.184c-0.021,0-0.061-0.255,0.007-0.603
	c0.142-0.735,0.48-1.881,0.477-1.919c0-0.021,0.063-0.221-0.22-0.324c-0.278-0.103-0.377,0.067-0.402,0.067
	c-0.025,0-0.042,0.062-0.042,0.062s0.31-1.286-0.59-1.286c-0.561,0-1.336,0.614-1.72,1.168c-0.437,0.236-0.873,0.475-1.308,0.714
	c-0.209,0.118-0.426,0.235-0.629,0.345c-0.014-0.015-0.028-0.031-0.043-0.046c-1.087-1.162-3.098-1.983-3.013-3.543
	c0.032-0.568,0.228-2.061,3.863-3.873c2.992-1.475,5.374-1.066,5.786-0.16c0.591,1.294-1.276,3.696-4.368,4.044
	c-1.18,0.132-1.798-0.323-1.954-0.494c-0.164-0.178-0.189-0.188-0.249-0.152c-0.1,0.053-0.036,0.213,0,0.306
	c0.092,0.241,0.473,0.668,1.116,0.878c0.569,0.185,1.951,0.288,3.625-0.36c1.873-0.724,3.337-2.738,2.906-4.427
	c-0.43-1.713-3.272-2.278-5.962-1.322c-1.6,0.569-3.333,1.465-4.581,2.63c-1.482,1.386-1.716,2.591-1.621,3.096
	c0.345,1.791,2.815,2.955,3.803,3.82c-0.05,0.028-0.096,0.052-0.135,0.073c-0.494,0.245-2.377,1.23-2.847,2.272
	c-0.533,1.179,0.086,2.024,0.494,2.139c1.269,0.353,2.573-0.281,3.273-1.325c0.7-1.045,0.615-2.402,0.292-3.025
	c-0.004-0.007-0.007-0.014-0.015-0.021c0.128-0.074,0.259-0.152,0.387-0.227c0.235-0.139,0.473-0.273,0.714-0.401
	c-0.121,0.329-0.209,0.725-0.252,1.294c-0.053,0.667,0.22,1.534,0.58,1.876c0.16,0.148,0.348,0.153,0.469,0.153
	c0.419,0,0.607-0.349,0.817-0.763c0.255-0.503,0.486-1.09,0.486-1.09s-0.288,1.586,0.494,1.586c0.285,0,0.572-0.37,0.7-0.559v0.004
	c0,0,0.007-0.011,0.021-0.036c0.028-0.045,0.046-0.074,0.046-0.074v-0.007c0.114-0.2,0.37-0.65,0.75-1.4
	c0.49-0.967,0.963-2.176,0.963-2.176s0.043,0.296,0.189,0.786c0.084,0.287,0.262,0.604,0.405,0.91
	c-0.114,0.159-0.186,0.249-0.186,0.249l0.005,0.002c-0.093,0.121-0.193,0.252-0.302,0.381c-0.388,0.462-0.85,0.991-0.914,1.145
	c-0.075,0.181-0.057,0.313,0.085,0.419c0.104,0.079,0.288,0.09,0.477,0.079c0.348-0.025,0.593-0.111,0.714-0.163
	c0.188-0.068,0.408-0.172,0.614-0.324c0.381-0.281,0.612-0.683,0.591-1.212c-0.012-0.291-0.107-0.583-0.224-0.856
	c0.036-0.05,0.067-0.099,0.103-0.149c0.6-0.878,1.067-1.841,1.067-1.841s0.043,0.296,0.188,0.786
	c0.071,0.248,0.216,0.519,0.344,0.781c-0.565,0.458-0.913,0.991-1.037,1.34c-0.224,0.646-0.05,0.938,0.281,1.006
	c0.149,0.031,0.362-0.04,0.518-0.107c0.199-0.063,0.435-0.174,0.658-0.338c0.379-0.279,0.746-0.672,0.724-1.2
	c-0.011-0.242-0.074-0.479-0.163-0.711c0.48-0.199,1.098-0.309,1.887-0.217c1.691,0.199,2.024,1.254,1.961,1.699
	c-0.064,0.443-0.42,0.687-0.537,0.76c-0.117,0.075-0.156,0.101-0.146,0.152c0.015,0.079,0.072,0.075,0.17,0.061
	c0.139-0.024,0.89-0.358,0.92-1.176C-287.721,406.722-288.716,405.581-290.475,405.592 M-303.524,409.992
	c-0.562,0.61-1.343,0.842-1.681,0.646c-0.362-0.21-0.22-1.112,0.469-1.758c0.419-0.396,0.959-0.763,1.318-0.985
	c0.082-0.05,0.203-0.121,0.348-0.21c0.025-0.015,0.04-0.021,0.04-0.021l0.085-0.054
	C-302.692,408.534-302.934,409.349-303.524,409.992 M-299.438,407.213c-0.195,0.476-0.604,1.694-0.853,1.626
	c-0.214-0.056-0.345-0.979-0.043-1.893c0.153-0.459,0.477-1.006,0.665-1.22c0.306-0.341,0.643-0.455,0.725-0.316
	C-298.84,405.592-299.316,406.914-299.438,407.213 M-296.064,408.825c-0.082,0.043-0.16,0.071-0.195,0.05
	c-0.026-0.015,0.036-0.071,0.036-0.071s0.421-0.454,0.588-0.66c0.098-0.121,0.211-0.263,0.331-0.424v0.047
	C-295.305,408.311-295.831,408.677-296.064,408.825L-296.064,408.825z M-293.464,408.231c-0.06-0.042-0.05-0.185,0.152-0.628
	c0.079-0.174,0.265-0.466,0.58-0.746c0.036,0.113,0.061,0.225,0.056,0.326C-292.678,407.87-293.168,408.125-293.464,408.231"/>
</svg>
