<?xml version="1.0" encoding="utf-8"?>
<!-- Generator: Adobe Illustrator 16.0.0, SVG Export Plug-In . SVG Version: 6.00 Build 0)  -->
<!DOCTYPE svg PUBLIC "-//W3C//DTD SVG 1.1//EN" "http://www.w3.org/Graphics/SVG/1.1/DTD/svg11.dtd">
<svg version="1.1" id="图层_1" xmlns="http://www.w3.org/2000/svg" xmlns:xlink="http://www.w3.org/1999/xlink" x="0px" y="0px"
	 width="24px" height="24px" viewBox="-309.5 392.5 24 24" enable-background="new -309.5 392.5 24 24" xml:space="preserve">
<path fill="#59944F" d="M-301.726,414.324c-0.216-0.075-0.397-0.231-0.505-0.433c-0.104-0.178-0.125-0.265-0.125-0.529
	c0-0.405,0.147-0.682,0.46-0.868l0.214-0.126l1.652-0.015l1.652-0.012v-12.967h-1.36l-0.904,0.573
	c-1.008,0.641-1.182,0.719-1.659,0.771l-0.333,0.033l1.321,3.276c1.177,2.916,1.323,3.301,1.323,3.527
	c0.002,0.374-0.106,0.595-0.442,0.899c-1.533,1.391-4.31,1.509-6.053,0.26c-0.626-0.449-0.87-0.891-0.754-1.359
	c0.028-0.114,0.622-1.616,1.317-3.337c0.696-1.722,1.274-3.165,1.285-3.209c0.02-0.069-0.015-0.079-0.315-0.079
	c-0.282,0-0.377-0.021-0.573-0.125c-0.694-0.365-0.681-1.422,0.024-1.81c0.115-0.066,0.342-0.077,1.675-0.092l1.543-0.014
	l0.883-0.562c1.182-0.752,1.184-0.755,2.202-0.778l0.821-0.02v-0.991c0-0.969,0.002-0.997,0.111-1.215
	c0.323-0.639,1.125-0.662,1.496-0.043l0.145,0.243v2.006l0.822,0.018c1.012,0.023,1.023,0.028,2.223,0.794l0.859,0.547l1.543,0.015
	c1.336,0.015,1.563,0.025,1.679,0.092c0.598,0.331,0.712,1.201,0.217,1.671c-0.192,0.186-0.423,0.264-0.778,0.264
	c-0.173,0-0.316,0.017-0.316,0.038c0,0.021,0.576,1.463,1.279,3.208c0.706,1.747,1.304,3.258,1.331,3.362
	c0.167,0.621-0.346,1.249-1.448,1.774c-1.724,0.819-4.045,0.537-5.348-0.647c-0.344-0.313-0.456-0.53-0.457-0.887
	c0-0.255,0.089-0.495,1.322-3.549l1.329-3.278l-0.333-0.033c-0.482-0.053-0.68-0.143-1.67-0.776l-0.891-0.568h-1.364v12.969
	l1.653,0.013l1.652,0.015l0.192,0.107c0.357,0.225,0.548,0.638,0.487,1.056c-0.042,0.278-0.27,0.611-0.5,0.73
	c-0.177,0.093-0.227,0.093-4.315,0.102c-2.848,0.005-4.179-0.006-4.271-0.04V414.324z M-302.75,407.483
	c0.345-0.088,0.733-0.246,0.733-0.297c0-0.099-1.592-3.971-1.619-3.939c-0.047,0.054-1.576,3.868-1.574,3.931
	c0,0.101,0.671,0.325,1.169,0.395C-303.778,407.606-303.025,407.555-302.75,407.483 M-290.517,407.487
	c0.355-0.084,0.728-0.244,0.728-0.31c0-0.063-1.529-3.877-1.576-3.931c-0.027-0.031-1.536,3.635-1.6,3.884
	c-0.019,0.079,0.015,0.109,0.216,0.189C-292.04,407.604-291.259,407.661-290.517,407.487"/>
</svg>
