<?xml version="1.0" encoding="utf-8"?>
<!-- Generator: Adobe Illustrator 28.0.0, SVG Export Plug-In . SVG Version: 6.00 Build 0)  -->
<svg version="1.1" id="Layer_1" xmlns="http://www.w3.org/2000/svg" xmlns:xlink="http://www.w3.org/1999/xlink" x="0px" y="0px"
	 viewBox="0 0 24 24" style="enable-background:new 0 0 24 24;" xml:space="preserve">
<style type="text/css">
	.st0{fill:#EF5350;}
</style>
<path class="st0" d="M21.3,12c0,5.2-4.2,9.3-9.3,9.3S2.7,17.2,2.7,12S6.8,2.7,12,2.7S21.3,6.8,21.3,12 M14.2,8
	c0.5,0.3,1.2,0.1,1.5-0.4c0.3-0.5,0.1-1.2-0.4-1.5c-0.5-0.3-1.2-0.1-1.5,0.4C13.5,7,13.7,7.7,14.2,8 M11.9,15.3
	c-0.5,0-1-0.1-1.4-0.3l-0.8,1.4c0.7,0.3,1.4,0.5,2.2,0.5c0.5,0,0.9-0.1,1.3-0.2c0.1-0.5,0.3-0.9,0.8-1.1c0.4-0.3,0.9-0.3,1.3-0.1
	c0.8-0.8,1.4-1.9,1.4-3.2l-1.6,0C15,14,13.6,15.3,11.9,15.3 M11.9,8.7c1.7,0,3.1,1.3,3.3,3l1.6,0c-0.1-1.2-0.6-2.3-1.4-3.2
	c-0.4,0.2-0.9,0.1-1.3-0.1c-0.4-0.2-0.7-0.7-0.8-1.1c-0.4-0.1-0.8-0.2-1.3-0.2c-0.8,0-1.5,0.2-2.2,0.5L10.5,9
	C10.9,8.8,11.4,8.7,11.9,8.7 M8.6,12c0-1.1,0.6-2.1,1.4-2.7L9.2,7.9c-1,0.7-1.7,1.7-2,2.8c0.4,0.3,0.6,0.7,0.6,1.2s-0.2,0.9-0.6,1.2
	c0.3,1.2,1,2.2,2,2.8l0.8-1.4C9.2,14.1,8.6,13.1,8.6,12 M14.2,16c-0.5,0.3-0.7,1-0.4,1.5c0.3,0.5,1,0.7,1.5,0.4
	c0.5-0.3,0.7-1,0.4-1.5C15.4,15.8,14.7,15.7,14.2,16 M6.2,10.9c-0.6,0-1.1,0.5-1.1,1.1s0.5,1.1,1.1,1.1c0.6,0,1.1-0.5,1.1-1.1
	S6.8,10.9,6.2,10.9z"/>
</svg>
