<?xml version="1.0" encoding="utf-8"?>
<!-- Generator: Adobe Illustrator 16.0.0, SVG Export Plug-In . SVG Version: 6.00 Build 0)  -->
<!DOCTYPE svg PUBLIC "-//W3C//DTD SVG 1.1//EN" "http://www.w3.org/Graphics/SVG/1.1/DTD/svg11.dtd">
<svg version="1.1" id="图层_1" xmlns="http://www.w3.org/2000/svg" xmlns:xlink="http://www.w3.org/1999/xlink" x="0px" y="0px"
	 width="24px" height="24px" viewBox="-309.5 392.5 24 24" enable-background="new -309.5 392.5 24 24" xml:space="preserve">
<path fill="#AED581" d="M-300.038,401.832v-1.195c0.116-0.01,0.233-0.016,0.353-0.02c3.269-0.102,5.415,2.811,5.415,2.811
	s-2.317,3.219-4.801,3.219c-0.357,0-0.678-0.059-0.967-0.156v-3.625c1.273,0.154,1.529,0.717,2.294,1.992l1.703-1.436
	c0,0-1.243-1.629-3.337-1.629C-299.606,401.793-299.824,401.809-300.038,401.832 M-300.038,397.883v1.785
	c0.117-0.01,0.235-0.018,0.353-0.021c4.547-0.152,7.51,3.73,7.51,3.73s-3.403,4.137-6.948,4.137c-0.325,0-0.629-0.031-0.915-0.08
	v1.104c0.245,0.029,0.498,0.049,0.762,0.049c3.3,0,5.685-1.684,7.995-3.678c0.383,0.307,1.951,1.051,2.273,1.379
	c-2.196,1.838-7.314,3.32-10.217,3.32c-0.279,0-0.549-0.016-0.813-0.041v1.551h12.538v-13.234H-300.038z M-300.038,406.49v0.943
	c-3.051-0.543-3.897-3.717-3.897-3.717s1.465-1.621,3.897-1.885v1.033c-0.001,0-0.003,0-0.005,0
	c-1.276-0.154-2.274,1.039-2.274,1.039S-301.758,405.914-300.038,406.49 M-305.457,403.58c0,0,1.808-2.668,5.418-2.943v-0.969
	c-3.999,0.32-7.462,3.709-7.462,3.709s1.961,5.67,7.462,6.189v-1.029C-304.075,408.029-305.457,403.58-305.457,403.58z"/>
</svg>
