<?xml version="1.0" encoding="utf-8"?>
<!-- Generator: Adobe Illustrator 16.0.0, SVG Export Plug-In . SVG Version: 6.00 Build 0)  -->
<!DOCTYPE svg PUBLIC "-//W3C//DTD SVG 1.1//EN" "http://www.w3.org/Graphics/SVG/1.1/DTD/svg11.dtd">
<svg version="1.1"
	 id="svg4" xmlns:inkscape="http://www.inkscape.org/namespaces/inkscape" xmlns:sodipodi="http://sodipodi.sourceforge.net/DTD/sodipodi-0.dtd" xmlns:svg="http://www.w3.org/2000/svg" inkscape:version="1.2.2 (732a01da63, 2022-12-09)" sodipodi:docname="file-zip.svg"
	 xmlns="http://www.w3.org/2000/svg" xmlns:xlink="http://www.w3.org/1999/xlink" x="0px" y="0px" width="24px" height="24px"
	 viewBox="0 0 24 24" enable-background="new 0 0 24 24" xml:space="preserve">
<sodipodi:namedview  id="namedview6" bordercolor="#000000" inkscape:cy="8.7889364" pagecolor="#ffffff" inkscape:cx="15.121338" inkscape:zoom="18.318485" showgrid="false" borderopacity="0.25" inkscape:current-layer="svg4" inkscape:window-y="-8" inkscape:window-x="-8" inkscape:window-height="1009" inkscape:window-width="1920" inkscape:deskcolor="#d1d1d1" inkscape:pageopacity="0.0" inkscape:showpageshadow="2" inkscape:window-maximized="1" inkscape:pagecheckerboard="0">
	</sodipodi:namedview>
<path id="path2" fill="#AB7967" d="M4.648,4.521h14.692l-1.005-1.068H5.514L4.648,4.521 M21.125,4.766
	c0.311,0.363,0.492,0.823,0.492,1.357v13.356c0,1.181-0.957,2.138-2.138,2.138l0,0H4.521c-1.181,0-2.138-0.957-2.138-2.138V6.123
	c0-0.534,0.182-0.994,0.492-1.357L4.35,2.971c0.299-0.363,0.737-0.588,1.239-0.588h12.822c0.502,0,0.94,0.225,1.229,0.588
	L21.125,4.766 M5.589,18.411H12v-3.206H5.589V18.411z"/>
</svg>
