<?xml version="1.0" encoding="utf-8"?>
<!-- Generator: Adobe Illustrator 16.0.0, SVG Export Plug-In . SVG Version: 6.00 Build 0)  -->
<!DOCTYPE svg PUBLIC "-//W3C//DTD SVG 1.1//EN" "http://www.w3.org/Graphics/SVG/1.1/DTD/svg11.dtd">
<svg version="1.1"
	 id="svg4" xmlns:inkscape="http://www.inkscape.org/namespaces/inkscape" xmlns:sodipodi="http://sodipodi.sourceforge.net/DTD/sodipodi-0.dtd" xmlns:svg="http://www.w3.org/2000/svg" inkscape:version="1.2.2 (732a01da63, 2022-12-09)" sodipodi:docname="audio.svg"
	 xmlns="http://www.w3.org/2000/svg" xmlns:xlink="http://www.w3.org/1999/xlink" x="0px" y="0px" width="24px" height="24px"
	 viewBox="0 0 24 24" enable-background="new 0 0 24 24" xml:space="preserve">
<sodipodi:namedview  id="namedview6" bordercolor="#000000" inkscape:cy="12.703994" pagecolor="#ffffff" inkscape:cx="10.586662" inkscape:zoom="29.754422" showgrid="false" borderopacity="0.25" inkscape:current-layer="svg4" inkscape:window-y="-8" inkscape:window-x="-8" inkscape:window-height="1009" inkscape:window-width="1920" inkscape:deskcolor="#d1d1d1" inkscape:pageopacity="0.0" inkscape:showpageshadow="2" inkscape:window-maximized="1" inkscape:pagecheckerboard="0">
	</sodipodi:namedview>
<path id="path2" fill="#D52A29" d="M11.19,5.095v13.81c0.005,0.443-0.352,0.809-0.796,0.813c-0.22,0.002-0.43-0.085-0.583-0.241
	L5.6,15.249H2.291c-0.449-0.002-0.814-0.363-0.82-0.813V9.563c0.006-0.445,0.364-0.806,0.81-0.813h3.309l4.212-4.227
	c0.312-0.321,0.823-0.328,1.145-0.017C11.104,4.661,11.192,4.873,11.19,5.095z M16.049,12c0.002,0.639-0.186,1.264-0.538,1.796
	c-0.337,0.536-0.835,0.952-1.423,1.187c-0.1,0.045-0.207,0.067-0.316,0.063c-0.213,0.002-0.418-0.083-0.568-0.235
	c-0.158-0.149-0.244-0.359-0.24-0.577c-0.006-0.163,0.048-0.323,0.15-0.451c0.104-0.125,0.229-0.232,0.367-0.317
	c0.143-0.089,0.287-0.187,0.43-0.291c0.155-0.121,0.281-0.275,0.367-0.451c0.201-0.462,0.201-0.986,0-1.448
	c-0.086-0.176-0.212-0.331-0.367-0.451c-0.143-0.104-0.287-0.201-0.43-0.29c-0.139-0.085-0.264-0.192-0.367-0.317
	c-0.103-0.128-0.156-0.288-0.15-0.451c-0.004-0.217,0.083-0.426,0.24-0.576c0.15-0.152,0.356-0.237,0.57-0.234
	c0.109-0.004,0.217,0.018,0.316,0.063c0.59,0.228,1.089,0.643,1.422,1.181C15.863,10.733,16.051,11.359,16.049,12z M19.289,12
	c0.006,1.275-0.369,2.523-1.076,3.586c-0.684,1.068-1.677,1.902-2.847,2.393c-0.101,0.041-0.208,0.063-0.315,0.063
	c-0.219,0.004-0.43-0.083-0.582-0.241c-0.156-0.148-0.243-0.355-0.241-0.57c-0.004-0.328,0.19-0.626,0.493-0.753
	c0.334-0.163,0.654-0.349,0.961-0.558c2.166-1.586,2.637-4.629,1.051-6.795c-0.295-0.401-0.648-0.756-1.051-1.05
	c-0.307-0.208-0.627-0.395-0.961-0.558c-0.303-0.127-0.497-0.425-0.493-0.752c0.006-0.445,0.364-0.805,0.81-0.813
	c0.112,0,0.225,0.021,0.329,0.063c1.17,0.49,2.163,1.324,2.847,2.393C18.922,9.473,19.296,10.723,19.289,12z M22.529,12
	c-0.003,3.893-2.314,7.412-5.885,8.961c-0.104,0.042-0.217,0.063-0.329,0.064c-0.445-0.008-0.804-0.367-0.81-0.813
	c0.01-0.324,0.201-0.615,0.494-0.752c0.092-0.051,0.187-0.096,0.283-0.135c0.098-0.039,0.192-0.084,0.285-0.133
	c0.359-0.193,0.705-0.41,1.037-0.647c3.617-2.675,4.381-7.776,1.706-11.394c-0.48-0.65-1.056-1.226-1.706-1.706
	c-0.332-0.237-0.678-0.453-1.037-0.646c-0.093-0.05-0.188-0.095-0.285-0.134C16.187,4.626,16.092,4.582,16,4.532
	c-0.293-0.138-0.484-0.429-0.494-0.753c0.01-0.441,0.367-0.797,0.81-0.805c0.112,0.001,0.225,0.022,0.329,0.063
	C20.215,4.588,22.526,8.107,22.529,12z"/>
</svg>
