<?xml version="1.0" encoding="utf-8"?>
<!-- Generator: Adobe Illustrator 16.0.0, SVG Export Plug-In . SVG Version: 6.00 Build 0)  -->
<!DOCTYPE svg PUBLIC "-//W3C//DTD SVG 1.1//EN" "http://www.w3.org/Graphics/SVG/1.1/DTD/svg11.dtd">
<svg version="1.1"
	 id="svg4" xmlns:inkscape="http://www.inkscape.org/namespaces/inkscape" xmlns:sodipodi="http://sodipodi.sourceforge.net/DTD/sodipodi-0.dtd" xmlns:svg="http://www.w3.org/2000/svg" inkscape:version="1.2.2 (732a01da63, 2022-12-09)" sodipodi:docname="video.svg"
	 xmlns="http://www.w3.org/2000/svg" xmlns:xlink="http://www.w3.org/1999/xlink" x="0px" y="0px" width="24px" height="24px"
	 viewBox="0 0 24 24" enable-background="new 0 0 24 24" xml:space="preserve">
<sodipodi:namedview  id="namedview6" bordercolor="#000000" inkscape:cy="14.440289" pagecolor="#ffffff" inkscape:cx="10.923313" inkscape:zoom="24.168492" showgrid="false" borderopacity="0.25" inkscape:current-layer="svg4" inkscape:window-y="-8" inkscape:window-x="-8" inkscape:window-height="1009" inkscape:window-width="1920" inkscape:deskcolor="#d1d1d1" inkscape:pageopacity="0.0" inkscape:showpageshadow="2" inkscape:window-maximized="1" inkscape:pagecheckerboard="0">
	</sodipodi:namedview>
<path id="path2" fill="#7963E6" d="M21.197,5.547l-6.643,4.33V6.632c-0.027-0.68-0.598-1.21-1.277-1.19H3.058
	c-0.68-0.021-1.25,0.51-1.277,1.19v10.736c0.026,0.681,0.596,1.214,1.277,1.192h10.219c0.682,0.021,1.25-0.512,1.277-1.192v-3.245
	l6.643,4.33c0.297,0.204,0.703,0.128,0.908-0.17c0.064-0.095,0.104-0.205,0.113-0.319V6.036c-0.027-0.36-0.344-0.629-0.703-0.602
	C21.4,5.443,21.291,5.482,21.197,5.547z"/>
</svg>
