<?xml version="1.0" encoding="utf-8"?>
<!-- Generator: Adobe Illustrator 16.0.0, SVG Export Plug-In . SVG Version: 6.00 Build 0)  -->
<!DOCTYPE svg PUBLIC "-//W3C//DTD SVG 1.1//EN" "http://www.w3.org/Graphics/SVG/1.1/DTD/svg11.dtd">
<svg version="1.1"
	 id="svg16" xmlns:inkscape="http://www.inkscape.org/namespaces/inkscape" xmlns:sodipodi="http://sodipodi.sourceforge.net/DTD/sodipodi-0.dtd" xmlns:svg="http://www.w3.org/2000/svg" inkscape:version="1.2.2 (732a01da63, 2022-12-09)" sodipodi:docname="msonenote-2019.svg"
	 xmlns="http://www.w3.org/2000/svg" xmlns:xlink="http://www.w3.org/1999/xlink" x="0px" y="0px" width="24px" height="24px"
	 viewBox="0 0 24 24" enable-background="new 0 0 24 24" xml:space="preserve">
<sodipodi:namedview  id="namedview18" bordercolor="#000000" inkscape:cy="9.0072951" pagecolor="#ffffff" inkscape:cx="-7.8063224" inkscape:zoom="18.318485" showgrid="false" borderopacity="0.25" inkscape:current-layer="svg16" inkscape:window-y="-8" inkscape:window-x="-8" inkscape:window-height="1009" inkscape:window-width="1920" inkscape:deskcolor="#d1d1d1" inkscape:pageopacity="0.0" inkscape:showpageshadow="2" inkscape:window-maximized="1" inkscape:pagecheckerboard="0">
	</sodipodi:namedview>
<g id="g310" transform="matrix(1.3198328,0,0,1.3198328,1.4413376,1.4413376)">
	<path id="path2" fill="#CA64EA" d="M14.384,0.704H4.352c-0.504,0-0.912,0.408-0.912,0.912l0,0v12.768
		c0.002,0.503,0.409,0.91,0.912,0.912h9.607c0.738,0,1.336-0.598,1.336-1.336V1.616C15.294,1.113,14.887,0.706,14.384,0.704z"/>
	<path id="path4" fill="#AE4BD5" d="M11.648,4.352h3.648V8h-3.648V4.352z"/>
	<path id="path6" opacity="0.75" enable-background="new    " d="M9.825,4.352H3.44v9.12h5.673c0.897,0,1.623-0.725,1.623-1.622l0,0
		V5.264C10.736,4.761,10.328,4.352,9.825,4.352z"/>
	<path id="rect8" fill="#7719AA" d="M1.616,3.44h7.295c0.506,0,0.913,0.408,0.913,0.912v7.296c0,0.505-0.408,0.912-0.913,0.912
		H1.616c-0.504,0-0.912-0.408-0.912-0.912V4.352C0.704,3.848,1.113,3.44,1.616,3.44z"/>
	<path id="path10" fill="#FFFFFF" d="M2.673,5.264h1.195l2.84,3.629c0.107,0.164,0.186,0.294,0.24,0.393h0.016
		C6.935,9.039,6.925,8.79,6.93,8.541V5.264h1.017v5.472H6.831L3.903,7.007C3.821,6.885,3.748,6.756,3.685,6.622h-0.02
		C3.69,6.893,3.7,7.166,3.696,7.438v3.298H2.674L2.673,5.264z"/>
	<path id="path12" fill="#9332BF" d="M11.648,8h3.648v3.648h-3.648V8z"/>
	<path id="path14" fill="#7719AA" d="M11.648,11.648v3.648h2.736c0.505,0,0.912-0.408,0.912-0.912v-2.736H11.648z"/>
</g>
</svg>
