<?xml version="1.0" encoding="utf-8"?>
<!-- Generator: Adobe Illustrator 28.0.0, SVG Export Plug-In . SVG Version: 6.00 Build 0)  -->
<svg version="1.1" id="Layer_1" xmlns="http://www.w3.org/2000/svg" xmlns:xlink="http://www.w3.org/1999/xlink" x="0px" y="0px"
	 viewBox="0 0 24 24" style="enable-background:new 0 0 24 24;" xml:space="preserve">
<style type="text/css">
	.st0{fill:#EA7130;}
</style>
<path class="st0" d="M20.2,6H3.8C3,6,2.4,6.6,2.4,7.4v9.2C2.4,17.4,3,18,3.8,18h16.4c0.8,0,1.4-0.6,1.4-1.4V7.4
	C21.6,6.6,21,6,20.2,6C20.2,6,20.2,6,20.2,6z M13.2,15.6h-2.4V12L9,14.3L7.2,12v3.6H4.8V8.4h2.4L9,10.8l1.8-2.4h2.4V15.6z
	 M16.8,16.2l-3-4.2h1.8V8.4H18V12h1.8L16.8,16.2z"/>
</svg>
