<?xml version="1.0" encoding="utf-8"?>
<!-- Generator: Adobe Illustrator 16.0.0, SVG Export Plug-In . SVG Version: 6.00 Build 0)  -->
<!DOCTYPE svg PUBLIC "-//W3C//DTD SVG 1.1//EN" "http://www.w3.org/Graphics/SVG/1.1/DTD/svg11.dtd">
<svg version="1.1" id="图层_1" xmlns="http://www.w3.org/2000/svg" xmlns:xlink="http://www.w3.org/1999/xlink" x="0px" y="0px"
	 width="24px" height="24px" viewBox="-305.5 396.5 24 24" enable-background="new -305.5 396.5 24 24" xml:space="preserve">
<g>
	<path fill="#ED6C47" d="M-293.499,399.08c-5.196,0.018-9.404,4.227-9.42,9.422l11.776,2.781L-293.499,399.08z"/>
	<path fill="#FF8F6B" d="M-293.499,399.08v9.422l4.711,3.048l4.71-3.048C-284.094,403.307-288.303,399.098-293.499,399.08"/>
	<path fill="#D35230" d="M-284.078,408.502c-0.001,5.203-4.22,9.418-9.423,9.418c-5.201-0.002-9.417-4.218-9.418-9.418H-284.078z"/>
	<path opacity="0.5" enable-background="new    " d="M-291.145,403.791h-10.498c-2.272,3.882-1.456,8.83,1.942,11.777h7.378
		c1.301,0,2.354-1.058,2.354-2.355l0,0v-8.244C-289.966,404.316-290.493,403.791-291.145,403.791"/>
	<path opacity="0.1" enable-background="new    " d="M-291.145,403.791h-10.498c-2.272,3.882-1.456,8.83,1.942,11.777h7.378
		c1.301,0,2.354-1.058,2.354-2.355l0,0v-8.244C-289.966,404.316-290.493,403.791-291.145,403.791"/>
	<path fill="#C43E1C" d="M-301.742,402.613h9.42c0.651,0,1.178,0.525,1.178,1.178v9.422c0,0.648-0.526,1.178-1.178,1.178h-9.42
		c-0.651,0-1.178-0.527-1.178-1.178v-9.422C-302.919,403.141-302.393,402.613-301.742,402.613z"/>
	<path fill="#FFFFFF" d="M-296.635,404.969c0.663-0.047,1.319,0.155,1.841,0.567c0.444,0.426,0.678,1.026,0.637,1.639
		c0.007,0.431-0.102,0.854-0.315,1.228c-0.211,0.357-0.524,0.65-0.898,0.836c-0.417,0.207-0.879,0.308-1.346,0.297h-1.277v2.501
		h-1.311v-7.066L-296.635,404.969L-296.635,404.969z M-297.996,408.455h1.126c0.358,0.027,0.714-0.082,0.994-0.309
		c0.237-0.242,0.358-0.574,0.335-0.914c0-0.776-0.43-1.166-1.289-1.166h-1.167L-297.996,408.455L-297.996,408.455z"/>
</g>
</svg>
