<?xml version="1.0" encoding="utf-8"?>
<!-- Generator: Adobe Illustrator 16.0.0, SVG Export Plug-In . SVG Version: 6.00 Build 0)  -->
<!DOCTYPE svg PUBLIC "-//W3C//DTD SVG 1.1//EN" "http://www.w3.org/Graphics/SVG/1.1/DTD/svg11.dtd">
<svg version="1.1" id="图层_1" xmlns="http://www.w3.org/2000/svg" xmlns:xlink="http://www.w3.org/1999/xlink" x="0px" y="0px"
	 width="24px" height="24px" viewBox="-305.5 396.5 24 24" enable-background="new -305.5 396.5 24 24" xml:space="preserve">
<path fill="#FF604A" d="M-290.017,406.537h-3.859l-0.786,1.896h-1.709l3.615-8.523h1.75l3.467,8.523h-1.826L-290.017,406.537
	L-290.017,406.537z M-290.656,404.834l-1.184-3.128l-1.321,3.128H-290.656z"/>
<path fill="#EEEEEE" fill-opacity="0.85" d="M-299.888,413.228v-4.177l1.148,0.011l1.147,0.008l0.985,1.884
	c0.542,1.034,0.995,1.881,1.007,1.882c0.01,0,0.488-0.846,1.059-1.882l1.038-1.884l1.162-0.008l1.162-0.011v8.353h-1.677v-2.945
	c0-1.618-0.013-2.941-0.024-2.941c-0.017,0-0.463,0.897-0.993,1.996l-0.962,2l-0.695-0.011l-0.695-0.009l-0.929-1.914
	c-0.312-0.65-0.63-1.298-0.955-1.943c-0.016-0.013-0.027,1.276-0.027,2.871v2.896h-1.749v-4.176H-299.888z M-290.037,413.21v-4.159
	h1.783v6.566h4.424v1.75h-6.207V413.21z M-299.888,406.435v-1.651l-1.642-2.575c-0.552-0.861-1.099-1.727-1.641-2.594
	c0-0.01,0.526-0.018,1.168-0.018l1.169,0.002l1.051,1.674c0.578,0.92,1.061,1.668,1.071,1.66c0.01-0.004,0.493-0.76,1.072-1.675
	l1.054-1.661h1.114c0.614,0,1.115,0.008,1.115,0.019c0,0.01-0.77,1.174-1.712,2.587l-1.714,2.568v3.318h-2.104L-299.888,406.435
	L-299.888,406.435z"/>
</svg>
