<?xml version="1.0" encoding="utf-8"?>
<!-- Generator: Adobe Illustrator 16.0.0, SVG Export Plug-In . SVG Version: 6.00 Build 0)  -->
<!DOCTYPE svg PUBLIC "-//W3C//DTD SVG 1.1//EN" "http://www.w3.org/Graphics/SVG/1.1/DTD/svg11.dtd">
<svg version="1.1" id="图层_1" xmlns="http://www.w3.org/2000/svg" xmlns:xlink="http://www.w3.org/1999/xlink" x="0px" y="0px"
	 width="24px" height="24px" viewBox="-309.5 392.5 24 24" enable-background="new -309.5 392.5 24 24" xml:space="preserve">
<path fill="#C792EA" d="M-300.123,409.794c-0.444,0.118-1.245,0.403-1.028,0.976c0.52,0.533,1.24,0.842,1.999,0.858
	c1.784,0.244,3.603-0.021,5.231-0.765c-0.555-0.171-1.076-0.488-1.589-0.686c-1.5,0.352-3.065,0.363-4.57,0.034
	c0.076-0.174,0.757-0.573,0.189-0.447l-0.232,0.016V409.794z M-300.602,407.691c-0.569,0.047-1.04,0.445-1.161,0.983
	c0.406,0.498,1.027,0.787,1.684,0.789c2.22,0.277,4.474,0.069,6.6-0.606c-0.489-0.129-0.942-0.368-1.315-0.697
	c-1.886,0.425-3.841,0.479-5.748,0.155c-0.264-0.135,0.269-0.386,0.3-0.521c0.531-0.441-0.186-0.065-0.361-0.103H-300.602z
	 M-293.124,398.854c-1.652,0.325-3.136,1.195-4.192,2.462c-0.538,1.041-0.296,2.299,0.593,3.085
	c0.454,0.507,0.395,1.271-0.131,1.708c-0.029,0.023-0.061,0.047-0.092,0.068c-0.579,0.49,0.09,0.405,0.425,0.168
	c0.972-0.41,1.54-1.396,1.382-2.407c-0.279-0.771-1.305-1.413-0.942-2.317c0.708-1.241,2.186-1.784,3.299-2.629
	c0.426-0.276-0.176-0.104-0.339-0.144L-293.124,398.854z M-302.17,411.181c-0.97,0.031-1.899,0.385-2.628,1.002
	c-0.341,0.387,0.148,0.831,0.548,0.875c3.488,0.656,7.07,0.703,10.575,0.136c0.971-0.093,1.894-0.454,2.656-1.044
	c0.307-0.505-0.417-0.874-0.839-0.906c0.07,0.201,0.17,0.393,0.296,0.566c-0.522,0.356-1.14,0.56-1.781,0.586
	c-2.973,0.424-5.993,0.438-8.971,0.042c-0.339-0.047-0.668-0.149-0.974-0.3c0.695-0.419,1.525-0.578,2.333-0.447
	c-0.32-0.322-0.762-0.502-1.225-0.5L-302.17,411.181z M-299.958,405.5c-1.153,0.032-2.276,0.359-3.254,0.947
	c-0.336,0.308,0.084,0.709,0.432,0.747c2.032,0.393,4.117,0.471,6.174,0.23c0.963-0.035,1.913-0.239,2.799-0.602
	c0.353-0.147,0.679-0.343,0.974-0.578c-1.093-0.063-2.164,0.285-3.252,0.323c-1.772,0.207-3.564,0.197-5.334-0.026
	c-0.273-0.061,0.211-0.202,0.287-0.25c0.631-0.273,1.328-0.334,1.93-0.664c-0.242-0.086-0.499-0.128-0.757-0.128H-299.958z
	 M-291.995,405.318c-0.58-0.026-1.12,0.29-1.36,0.8c-0.269,0.355,0.445-0.16,0.692-0.157c0.54-0.188,1.137,0.083,1.331,0.603
	c0.079,0.216,0.082,0.449,0.005,0.664c-0.518,0.823-1.271,1.485-2.169,1.904c-0.641,0.508-0.437,0.533,0.245,0.287
	c1.357-0.193,2.527-1.023,3.119-2.215c0.166-0.876-0.437-1.717-1.347-1.876c-0.17-0.03-0.343-0.034-0.516-0.014V405.318z
	 M-295.715,395.136c0.316,1.212-0.142,2.487-1.168,3.252c-1.077,1.035-2.626,1.744-3.266,3.144c-0.42,1.196,0.553,2.288,1.336,3.103
	c0.524,0.543,1.094,1.043,1.705,1.495c-0.285-1.402-1.896-2.305-1.75-3.814c0.288-1.447,1.854-2.081,2.751-3.124
	c1.11-0.935,1.513-2.426,1.018-3.763c-0.213-0.35-0.475-0.671-0.776-0.956L-295.715,395.136L-295.715,395.136z M-290.419,412.414
	c-0.776,0.55-1.689,0.895-2.646,1c-3.194,0.543-6.458,0.581-9.664,0.113c0.987,0.654,2.173,0.976,3.372,0.913
	c2.627,0.229,5.277,0.016,7.829-0.632c0.842-0.118,1.46-0.825,1.434-1.645c0.061-0.519-0.21,0.166-0.326,0.257L-290.419,412.414z"/>
</svg>
